<svg xmlns="http://www.w3.org/2000/svg" xmlns:xlink="http://www.w3.org/1999/xlink" width="849.402" height="427.118" viewBox="0 0 637.051 320.339"><defs><style>*{stroke-linejoin:round;stroke-linecap:butt}</style></defs><g id="figure_1"><path id="patch_1" d="M0 320.339h637.051V0H0z" style="fill:#fff"/><g id="axes_1"><path id="patch_2" d="M62.867 275.04h242.608V53.28H62.867z" style="fill:#fff"/><g id="PathCollection_1"><defs><path id="m00cae974e8" d="M0 3.873a3.873 3.873 0 1 0 0-7.746 3.873 3.873 0 0 0 0 7.746z" style="stroke:#0066c0"/></defs><g clip-path="url(#pdecf7792d0)"><use xlink:href="#m00cae974e8" x="73.894" y="260.795" style="fill:#0066c0;stroke:#0066c0"/><use xlink:href="#m00cae974e8" x="95.95" y="264.96" style="fill:#0066c0;stroke:#0066c0"/><use xlink:href="#m00cae974e8" x="118.005" y="261.258" style="fill:#0066c0;stroke:#0066c0"/><use xlink:href="#m00cae974e8" x="140.06" y="119.579" style="fill:#0066c0;stroke:#0066c0"/><use xlink:href="#m00cae974e8" x="162.116" y="119.294" style="fill:#0066c0;stroke:#0066c0"/><use xlink:href="#m00cae974e8" x="184.171" y="117.016" style="fill:#0066c0;stroke:#0066c0"/><use xlink:href="#m00cae974e8" x="206.226" y="111.605" style="fill:#0066c0;stroke:#0066c0"/><use xlink:href="#m00cae974e8" x="228.282" y="121.857" style="fill:#0066c0;stroke:#0066c0"/><use xlink:href="#m00cae974e8" x="250.337" y="68.577" style="fill:#0066c0;stroke:#0066c0"/><use xlink:href="#m00cae974e8" x="272.392" y="63.36" style="fill:#0066c0;stroke:#0066c0"/><use xlink:href="#m00cae974e8" x="294.448" y="66.052" style="fill:#0066c0;stroke:#0066c0"/></g></g><g id="matplotlib.axis_1"><g id="xtick_1"><g id="line2d_1"><defs><path id="m29da15d6e0" d="M0 0v3.5" style="stroke:#000;stroke-width:.8"/></defs><use xlink:href="#m29da15d6e0" x="73.894" y="275.04" style="stroke:#000;stroke-width:.8"/></g><g id="text_1" transform="matrix(.14 0 0 -.14 62.79 292.678)"><defs><path id="DejaVuSans-30" d="M2034 4250q-487 0-733-480-245-479-245-1442 0-959 245-1439 246-480 733-480 491 0 736 480 246 480 246 1439 0 963-246 1442-245 480-736 480m0 500q785 0 1199-621 414-620 414-1801 0-1178-414-1799Q2819-91 2034-91q-784 0-1198 620-414 621-414 1799 0 1181 414 1801 414 621 1198 621" transform="scale(.01563)"/><path id="DejaVuSans-25" d="M4653 2053q-272 0-427-231-154-231-154-644 0-406 154-639 155-233 427-233 266 0 420 233 155 233 155 639 0 410-155 642-154 233-420 233m0 397q494 0 784-344 291-343 291-928 0-584-292-927-292-342-783-342-500 0-791 342-290 343-290 927 0 588 292 930t789 342M1428 4353q-269 0-424-233-154-232-154-639 0-412 153-644 153-231 425-231t426 231q155 232 155 644 0 403-156 637-156 235-425 235m2822 397h500L1831-91h-500zm-2822 0q494 0 787-342 294-342 294-927 0-590-292-931t-789-341-786 342q-289 343-289 930 0 582 290 925 291 344 785 344" transform="scale(.01563)"/></defs><use xlink:href="#DejaVuSans-30"/><use xlink:href="#DejaVuSans-25" transform="translate(63.623)"/></g></g><g id="xtick_2"><use xlink:href="#m29da15d6e0" id="line2d_2" x="118.005" y="275.04" style="stroke:#000;stroke-width:.8"/><g id="text_2" transform="matrix(.14 0 0 -.14 102.446 292.678)"><defs><path id="DejaVuSans-32" d="M1228 531h2203V0H469v531q359 372 979 998 621 627 780 809 303 340 423 576 121 236 121 464 0 372-261 606-261 235-680 235-297 0-627-103-329-103-704-313v638q381 153 712 231 332 78 607 78 725 0 1156-363 431-362 431-968 0-288-108-546-107-257-392-607-78-91-497-524-418-433-1181-1211" transform="scale(.01563)"/></defs><use xlink:href="#DejaVuSans-32"/><use xlink:href="#DejaVuSans-30" transform="translate(63.623)"/><use xlink:href="#DejaVuSans-25" transform="translate(127.246)"/></g></g><g id="xtick_3"><use xlink:href="#m29da15d6e0" id="line2d_3" x="162.116" y="275.04" style="stroke:#000;stroke-width:.8"/><g id="text_3" transform="matrix(.14 0 0 -.14 146.557 292.678)"><defs><path id="DejaVuSans-34" d="M2419 4116 825 1625h1594zm-166 550h794V1625h666v-525h-666V0h-628v1100H313v609z" transform="scale(.01563)"/></defs><use xlink:href="#DejaVuSans-34"/><use xlink:href="#DejaVuSans-30" transform="translate(63.623)"/><use xlink:href="#DejaVuSans-25" transform="translate(127.246)"/></g></g><g id="xtick_4"><use xlink:href="#m29da15d6e0" id="line2d_4" x="206.226" y="275.04" style="stroke:#000;stroke-width:.8"/><g id="text_4" transform="matrix(.14 0 0 -.14 190.668 292.678)"><defs><path id="DejaVuSans-36" d="M2113 2584q-425 0-674-291-248-290-248-796 0-503 248-796 249-292 674-292t673 292q248 293 248 796 0 506-248 796-248 291-673 291m1253 1979v-575q-238 112-480 171-242 60-480 60-625 0-955-422-329-422-376-1275 184 272 462 417 279 145 613 145 703 0 1111-427 408-426 408-1160 0-719-425-1154Q2819-91 2113-91q-810 0-1238 620-428 621-428 1799 0 1106 525 1764t1409 658q238 0 480-47t505-140" transform="scale(.01563)"/></defs><use xlink:href="#DejaVuSans-36"/><use xlink:href="#DejaVuSans-30" transform="translate(63.623)"/><use xlink:href="#DejaVuSans-25" transform="translate(127.246)"/></g></g><g id="xtick_5"><use xlink:href="#m29da15d6e0" id="line2d_5" x="250.337" y="275.04" style="stroke:#000;stroke-width:.8"/><g id="text_5" transform="matrix(.14 0 0 -.14 234.778 292.678)"><defs><path id="DejaVuSans-38" d="M2034 2216q-450 0-708-241-257-241-257-662 0-422 257-663 258-241 708-241t709 242q260 243 260 662 0 421-258 662-257 241-711 241m-631 268q-406 100-633 378-226 279-226 679 0 559 398 884 399 325 1092 325 697 0 1094-325t397-884q0-400-227-679-226-278-629-378 456-106 710-416 255-309 255-755 0-679-414-1042Q2806-91 2034-91q-771 0-1186 362-414 363-414 1042 0 446 256 755 257 310 713 416m-231 997q0-362 226-565 227-203 636-203 407 0 636 203 230 203 230 565 0 363-230 566-229 203-636 203-409 0-636-203-226-203-226-566" transform="scale(.01563)"/></defs><use xlink:href="#DejaVuSans-38"/><use xlink:href="#DejaVuSans-30" transform="translate(63.623)"/><use xlink:href="#DejaVuSans-25" transform="translate(127.246)"/></g></g><g id="xtick_6"><use xlink:href="#m29da15d6e0" id="line2d_6" x="294.448" y="275.04" style="stroke:#000;stroke-width:.8"/><g id="text_6" transform="matrix(.14 0 0 -.14 274.435 292.678)"><defs><path id="DejaVuSans-31" d="M794 531h1031v3560L703 3866v575l1116 225h631V531h1031V0H794z" transform="scale(.01563)"/></defs><use xlink:href="#DejaVuSans-31"/><use xlink:href="#DejaVuSans-30" transform="translate(63.623)"/><use xlink:href="#DejaVuSans-30" transform="translate(127.246)"/><use xlink:href="#DejaVuSans-25" transform="translate(190.87)"/></g></g><g id="text_7" transform="matrix(.14 0 0 -.14 72.582 310.227)"><defs><path id="DejaVuSans-49" d="M628 4666h631V0H628z" transform="scale(.01563)"/><path id="DejaVuSans-6e" d="M3513 2113V0h-575v2094q0 497-194 743-194 247-581 247-466 0-735-297-269-296-269-809V0H581v3500h578v-544q207 316 486 472 280 156 646 156 603 0 912-373 310-373 310-1098" transform="scale(.01563)"/><path id="DejaVuSans-74" d="M1172 4494v-994h1184v-447H1172V1153q0-428 117-550t477-122h590V0h-590q-666 0-919 248-253 249-253 905v1900H172v447h422v994z" transform="scale(.01563)"/><path id="DejaVuSans-65" d="M3597 1894v-281H953q38-594 358-905t892-311q331 0 642 81t618 244V178Q3153 47 2828-22t-659-69q-838 0-1327 487-489 488-489 1320 0 859 464 1363 464 505 1252 505 706 0 1117-455 411-454 411-1235m-575 169q-6 471-264 752-258 282-683 282-481 0-770-272t-333-766z" transform="scale(.01563)"/><path id="DejaVuSans-72" d="M2631 2963q-97 56-211 82-114 27-251 27-488 0-749-317t-261-911V0H581v3500h578v-544q182 319 472 473 291 155 707 155 59 0 131-8 72-7 159-23z" transform="scale(.01563)"/><path id="DejaVuSans-61" d="M2194 1759q-697 0-966-159t-269-544q0-306 202-486 202-179 548-179 479 0 768 339t289 901v128zm1147 238V0h-575v531q-197-318-491-470T1556-91q-537 0-855 302-317 302-317 808 0 590 395 890 396 300 1180 300h807v57q0 397-261 614t-733 217q-300 0-585-72-284-72-546-216v532q315 122 612 182 297 61 578 61 760 0 1135-394 375-393 375-1193" transform="scale(.01563)"/><path id="DejaVuSans-6c" d="M603 4863h575V0H603z" transform="scale(.01563)"/><path id="DejaVuSans-64" d="M2906 2969v1894h575V0h-575v525q-181-312-458-464-276-152-664-152-634 0-1033 506-398 507-398 1332t398 1331q399 506 1033 506 388 0 664-152 277-151 458-463M947 1747q0-634 261-995t717-361 718 361q263 361 263 995t-263 995q-262 361-718 361t-717-361-261-995" transform="scale(.01563)"/><path id="DejaVuSans-6f" d="M1959 3097q-462 0-731-361t-269-989 267-989q268-361 733-361 460 0 728 362 269 363 269 988 0 622-269 986-268 364-728 364m0 487q750 0 1178-488 429-487 429-1349 0-859-429-1349Q2709-91 1959-91q-753 0-1180 489-426 490-426 1349 0 862 426 1349 427 488 1180 488" transform="scale(.01563)"/><path id="DejaVuSans-63" d="M3122 3366v-538q-244 135-489 202t-495 67q-560 0-870-355-309-354-309-995t309-996q310-354 870-354 250 0 495 67t489 202V134Q2881 22 2623-34q-257-57-548-57-791 0-1257 497-465 497-465 1341 0 856 470 1346 471 491 1290 491 265 0 518-55 253-54 491-163" transform="scale(.01563)"/><path id="DejaVuSans-66" d="M2375 4863v-479h-550q-309 0-430-125-120-125-120-450v-309h947v-447h-947V0H697v3053H147v447h550v244q0 584 272 851 272 268 862 268z" transform="scale(.01563)"/><path id="DejaVuSans-69" d="M603 3500h575V0H603zm0 1363h575v-729H603z" transform="scale(.01563)"/><path id="DejaVuSans-6d" d="M3328 2828q216 388 516 572t706 184q547 0 844-383 297-382 297-1088V0h-578v2094q0 503-179 746-178 244-543 244-447 0-707-297-259-296-259-809V0h-578v2094q0 506-178 748t-550 242q-441 0-701-298-259-298-259-808V0H581v3500h578v-544q197 322 472 475t653 153q382 0 649-194 267-193 395-562" transform="scale(.01563)"/></defs><use xlink:href="#DejaVuSans-49"/><use xlink:href="#DejaVuSans-6e" transform="translate(29.492)"/><use xlink:href="#DejaVuSans-74" transform="translate(92.871)"/><use xlink:href="#DejaVuSans-65" transform="translate(132.08)"/><use xlink:href="#DejaVuSans-72" transform="translate(193.604)"/><use xlink:href="#DejaVuSans-6e" transform="translate(232.967)"/><use xlink:href="#DejaVuSans-61" transform="translate(296.346)"/><use xlink:href="#DejaVuSans-6c" transform="translate(357.625)"/><use xlink:href="#DejaVuSans-64" transform="translate(417.195)"/><use xlink:href="#DejaVuSans-6f" transform="translate(480.672)"/><use xlink:href="#DejaVuSans-63" transform="translate(541.854)"/><use xlink:href="#DejaVuSans-66" transform="translate(628.621)"/><use xlink:href="#DejaVuSans-72" transform="translate(663.826)"/><use xlink:href="#DejaVuSans-61" transform="translate(704.94)"/><use xlink:href="#DejaVuSans-63" transform="translate(766.219)"/><use xlink:href="#DejaVuSans-74" transform="translate(821.2)"/><use xlink:href="#DejaVuSans-69" transform="translate(860.408)"/><use xlink:href="#DejaVuSans-6f" transform="translate(888.191)"/><use xlink:href="#DejaVuSans-6e" transform="translate(949.373)"/><use xlink:href="#DejaVuSans-6f" transform="translate(1044.54)"/><use xlink:href="#DejaVuSans-66" transform="translate(1105.72)"/><use xlink:href="#DejaVuSans-6d" transform="translate(1172.713)"/><use xlink:href="#DejaVuSans-69" transform="translate(1270.125)"/><use xlink:href="#DejaVuSans-64" transform="translate(1297.908)"/><use xlink:href="#DejaVuSans-74" transform="translate(1361.385)"/><use xlink:href="#DejaVuSans-72" transform="translate(1400.594)"/><use xlink:href="#DejaVuSans-61" transform="translate(1441.707)"/><use xlink:href="#DejaVuSans-69" transform="translate(1502.986)"/><use xlink:href="#DejaVuSans-6e" transform="translate(1530.77)"/></g></g><g id="matplotlib.axis_2"><g id="ytick_1"><g id="line2d_7"><defs><path id="m88bc11af03" d="M0 0h-3.5" style="stroke:#000;stroke-width:.8"/></defs><use xlink:href="#m88bc11af03" x="62.867" y="244.598" style="stroke:#000;stroke-width:.8"/></g><g id="text_8" transform="matrix(.14 0 0 -.14 24.75 249.917)"><use xlink:href="#DejaVuSans-32"/><use xlink:href="#DejaVuSans-30" transform="translate(63.623)"/><use xlink:href="#DejaVuSans-25" transform="translate(127.246)"/></g></g><g id="ytick_2"><use xlink:href="#m88bc11af03" id="line2d_8" x="62.867" y="207.576" style="stroke:#000;stroke-width:.8"/><g id="text_9" transform="matrix(.14 0 0 -.14 24.75 212.895)"><defs><path id="DejaVuSans-35" d="M691 4666h2478v-532H1269V2991q137 47 274 70 138 23 276 23 781 0 1237-428 457-428 457-1159 0-753-469-1171Q2575-91 1722-91q-294 0-599 50Q819 9 494 109v635q281-153 581-228t634-75q541 0 856 284 316 284 316 772 0 487-316 771-315 285-856 285-253 0-505-56-251-56-513-175z" transform="scale(.01563)"/></defs><use xlink:href="#DejaVuSans-32"/><use xlink:href="#DejaVuSans-35" transform="translate(63.623)"/><use xlink:href="#DejaVuSans-25" transform="translate(127.246)"/></g></g><g id="ytick_3"><use xlink:href="#m88bc11af03" id="line2d_9" x="62.867" y="170.555" style="stroke:#000;stroke-width:.8"/><g id="text_10" transform="matrix(.14 0 0 -.14 24.75 175.874)"><defs><path id="DejaVuSans-33" d="M2597 2516q453-97 707-404 255-306 255-756 0-690-475-1069Q2609-91 1734-91q-293 0-604 58T488 141v609q262-153 574-231 313-78 654-78 593 0 904 234t311 681q0 413-289 645-289 233-804 233h-544v519h569q465 0 712 186t247 536q0 359-255 551-254 193-729 193-260 0-557-57-297-56-653-174v562q360 100 674 150t592 50q719 0 1137-327 419-326 419-882 0-388-222-655t-631-370" transform="scale(.01563)"/></defs><use xlink:href="#DejaVuSans-33"/><use xlink:href="#DejaVuSans-30" transform="translate(63.623)"/><use xlink:href="#DejaVuSans-25" transform="translate(127.246)"/></g></g><g id="ytick_4"><use xlink:href="#m88bc11af03" id="line2d_10" x="62.867" y="133.533" style="stroke:#000;stroke-width:.8"/><g id="text_11" transform="matrix(.14 0 0 -.14 24.75 138.852)"><use xlink:href="#DejaVuSans-33"/><use xlink:href="#DejaVuSans-35" transform="translate(63.623)"/><use xlink:href="#DejaVuSans-25" transform="translate(127.246)"/></g></g><g id="ytick_5"><use xlink:href="#m88bc11af03" id="line2d_11" x="62.867" y="96.511" style="stroke:#000;stroke-width:.8"/><g id="text_12" transform="matrix(.14 0 0 -.14 24.75 101.83)"><use xlink:href="#DejaVuSans-34"/><use xlink:href="#DejaVuSans-30" transform="translate(63.623)"/><use xlink:href="#DejaVuSans-25" transform="translate(127.246)"/></g></g><g id="ytick_6"><use xlink:href="#m88bc11af03" id="line2d_12" x="62.867" y="59.49" style="stroke:#000;stroke-width:.8"/><g id="text_13" transform="matrix(.14 0 0 -.14 24.75 64.808)"><use xlink:href="#DejaVuSans-34"/><use xlink:href="#DejaVuSans-35" transform="translate(63.623)"/><use xlink:href="#DejaVuSans-25" transform="translate(127.246)"/></g></g><g id="text_14" transform="matrix(0 -.14 -.14 0 17.838 196.12)"><defs><path id="DejaVuSans-41" d="m2188 4044-857-2322h1716zm-357 622h716L4325 0h-656l-425 1197H1141L716 0H50z" transform="scale(.01563)"/><path id="DejaVuSans-75" d="M544 1381v2119h575V1403q0-497 193-746 194-248 582-248 465 0 735 297 271 297 271 810v1984h575V0h-575v538q-209-319-486-474-276-155-642-155-603 0-916 375-312 375-312 1097m1447 2203" transform="scale(.01563)"/><path id="DejaVuSans-79" d="M2059-325q-243-625-475-815-231-191-618-191H506v481h338q237 0 368 113 132 112 291 531l103 262L191 3500h609L1894 763l1094 2737h609z" transform="scale(.01563)"/></defs><use xlink:href="#DejaVuSans-41"/><use xlink:href="#DejaVuSans-63" transform="translate(66.658)"/><use xlink:href="#DejaVuSans-63" transform="translate(121.639)"/><use xlink:href="#DejaVuSans-75" transform="translate(176.62)"/><use xlink:href="#DejaVuSans-72" transform="translate(239.998)"/><use xlink:href="#DejaVuSans-61" transform="translate(281.111)"/><use xlink:href="#DejaVuSans-63" transform="translate(342.39)"/><use xlink:href="#DejaVuSans-79" transform="translate(397.371)"/></g></g><path id="line2d_13" d="M62.867 260.795h242.608" clip-path="url(#pdecf7792d0)" style="fill:none;stroke-dasharray:11.1,4.8;stroke-dashoffset:0;stroke:#ff9640;stroke-opacity:.7;stroke-width:3"/><path id="line2d_14" d="m73.894 260.795 22.056 4.165 22.055-3.702 22.055-141.68 22.056-.284 22.055-2.278 22.055-5.411 22.056 10.252 22.055-53.28 22.055-5.217 22.056 2.692" clip-path="url(#pdecf7792d0)" style="fill:none;stroke:#0066c0;stroke-width:3;stroke-linecap:square"/><path id="patch_3" d="M62.867 275.04V53.28" style="fill:none;stroke:#000;stroke-width:.8;stroke-linejoin:miter;stroke-linecap:square"/><path id="patch_4" d="M305.475 275.04V53.28" style="fill:none;stroke:#000;stroke-width:.8;stroke-linejoin:miter;stroke-linecap:square"/><path id="patch_5" d="M62.867 275.04h242.608" style="fill:none;stroke:#000;stroke-width:.8;stroke-linejoin:miter;stroke-linecap:square"/><path id="patch_6" d="M62.867 53.28h242.608" style="fill:none;stroke:#000;stroke-width:.8;stroke-linejoin:miter;stroke-linecap:square"/><g id="text_15" transform="matrix(.14 0 0 -.14 84.816 47.28)"><defs><path id="DejaVuSans-4b" d="M628 4666h631V2694l2094 1972h813L1850 2491 4331 0h-831L1259 2247V0H628z" transform="scale(.01563)"/><path id="DejaVuSans-77" d="M269 3500h575l719-2731 715 2731h678l719-2731 716 2731h575L4050 0h-678l-753 2869L1863 0h-679z" transform="scale(.01563)"/><path id="DejaVuSans-67" d="M2906 1791q0 625-258 968-257 344-723 344-462 0-720-344-258-343-258-968 0-622 258-966t720-344q466 0 723 344 258 344 258 966m575-1357q0-893-397-1329-396-436-1215-436-303 0-572 45t-522 139v559q253-137 500-202 247-66 503-66 566 0 847 295t281 892v285q-178-310-456-463T1784 0Q1141 0 747 490 353 981 353 1791q0 812 394 1302 394 491 1037 491 388 0 666-153t456-462v531h575z" transform="scale(.01563)"/><path id="DejaVuSans-3a" d="M750 794h659V0H750zm0 2515h659v-793H750z" transform="scale(.01563)"/><path id="DejaVuSans-51" d="M2522 4238q-688 0-1093-513-404-512-404-1397 0-881 404-1394 405-512 1093-512 687 0 1089 512 402 513 402 1394 0 885-402 1397-402 513-1089 513M3406 84l832-909h-763L2784-78q-103-6-158-9-54-4-104-4-984 0-1574 658-589 658-589 1761 0 1106 589 1764 590 658 1574 658 981 0 1568-658 588-658 588-1764 0-812-327-1391-326-578-945-853" transform="scale(.01563)"/><path id="DejaVuSans-76" d="M191 3500h609L1894 563l1094 2937h609L2284 0h-781z" transform="scale(.01563)"/></defs><use xlink:href="#DejaVuSans-4b"/><use xlink:href="#DejaVuSans-6e" transform="translate(65.576)"/><use xlink:href="#DejaVuSans-6f" transform="translate(128.955)"/><use xlink:href="#DejaVuSans-77" transform="translate(190.137)"/><use xlink:href="#DejaVuSans-6c" transform="translate(271.924)"/><use xlink:href="#DejaVuSans-65" transform="translate(299.707)"/><use xlink:href="#DejaVuSans-64" transform="translate(361.23)"/><use xlink:href="#DejaVuSans-67" transform="translate(424.707)"/><use xlink:href="#DejaVuSans-65" transform="translate(488.184)"/><use xlink:href="#DejaVuSans-3a" transform="translate(549.707)"/><use xlink:href="#DejaVuSans-69" transform="translate(615.186)"/><use xlink:href="#DejaVuSans-6e" transform="translate(642.969)"/><use xlink:href="#DejaVuSans-74" transform="translate(706.348)"/><use xlink:href="#DejaVuSans-65" transform="translate(745.557)"/><use xlink:href="#DejaVuSans-72" transform="translate(807.08)"/><use xlink:href="#DejaVuSans-6e" transform="translate(846.443)"/><use xlink:href="#DejaVuSans-61" transform="translate(909.822)"/><use xlink:href="#DejaVuSans-6c" transform="translate(971.102)"/><use xlink:href="#DejaVuSans-51" transform="translate(1030.672)"/><use xlink:href="#DejaVuSans-41" transform="translate(1109.383)"/><use xlink:href="#DejaVuSans-65" transform="translate(1209.578)"/><use xlink:href="#DejaVuSans-76" transform="translate(1271.102)"/><use xlink:href="#DejaVuSans-61" transform="translate(1330.281)"/><use xlink:href="#DejaVuSans-6c" transform="translate(1391.56)"/></g></g><g id="axes_2"><path id="patch_7" d="M378.258 275.04h242.609V53.28h-242.61z" style="fill:#fff"/><g id="PathCollection_2" clip-path="url(#p5bc848869a)"><use xlink:href="#m00cae974e8" x="389.286" y="155.27" style="fill:#0066c0;stroke:#0066c0"/><use xlink:href="#m00cae974e8" x="411.341" y="158.686" style="fill:#0066c0;stroke:#0066c0"/><use xlink:href="#m00cae974e8" x="433.396" y="160.18" style="fill:#0066c0;stroke:#0066c0"/><use xlink:href="#m00cae974e8" x="455.452" y="189.183" style="fill:#0066c0;stroke:#0066c0"/><use xlink:href="#m00cae974e8" x="477.507" y="188.132" style="fill:#0066c0;stroke:#0066c0"/><use xlink:href="#m00cae974e8" x="499.562" y="192.599" style="fill:#0066c0;stroke:#0066c0"/><use xlink:href="#m00cae974e8" x="521.618" y="188.657" style="fill:#0066c0;stroke:#0066c0"/><use xlink:href="#m00cae974e8" x="543.673" y="192.73" style="fill:#0066c0;stroke:#0066c0"/><use xlink:href="#m00cae974e8" x="565.728" y="879.964" style="fill:#0066c0;stroke:#0066c0"/><use xlink:href="#m00cae974e8" x="587.784" y="893.473" style="fill:#0066c0;stroke:#0066c0"/><use xlink:href="#m00cae974e8" x="609.839" y="886.563" style="fill:#0066c0;stroke:#0066c0"/></g><g id="matplotlib.axis_3"><g id="xtick_7"><use xlink:href="#m29da15d6e0" id="line2d_15" x="389.286" y="275.04" style="stroke:#000;stroke-width:.8"/><g id="text_16" transform="matrix(.14 0 0 -.14 378.18 292.678)"><use xlink:href="#DejaVuSans-30"/><use xlink:href="#DejaVuSans-25" transform="translate(63.623)"/></g></g><g id="xtick_8"><use xlink:href="#m29da15d6e0" id="line2d_16" x="433.396" y="275.04" style="stroke:#000;stroke-width:.8"/><g id="text_17" transform="matrix(.14 0 0 -.14 417.838 292.678)"><use xlink:href="#DejaVuSans-32"/><use xlink:href="#DejaVuSans-30" transform="translate(63.623)"/><use xlink:href="#DejaVuSans-25" transform="translate(127.246)"/></g></g><g id="xtick_9"><use xlink:href="#m29da15d6e0" id="line2d_17" x="477.507" y="275.04" style="stroke:#000;stroke-width:.8"/><g id="text_18" transform="matrix(.14 0 0 -.14 461.948 292.678)"><use xlink:href="#DejaVuSans-34"/><use xlink:href="#DejaVuSans-30" transform="translate(63.623)"/><use xlink:href="#DejaVuSans-25" transform="translate(127.246)"/></g></g><g id="xtick_10"><use xlink:href="#m29da15d6e0" id="line2d_18" x="521.618" y="275.04" style="stroke:#000;stroke-width:.8"/><g id="text_19" transform="matrix(.14 0 0 -.14 506.059 292.678)"><use xlink:href="#DejaVuSans-36"/><use xlink:href="#DejaVuSans-30" transform="translate(63.623)"/><use xlink:href="#DejaVuSans-25" transform="translate(127.246)"/></g></g><g id="xtick_11"><use xlink:href="#m29da15d6e0" id="line2d_19" x="565.728" y="275.04" style="stroke:#000;stroke-width:.8"/><g id="text_20" transform="matrix(.14 0 0 -.14 550.17 292.678)"><use xlink:href="#DejaVuSans-38"/><use xlink:href="#DejaVuSans-30" transform="translate(63.623)"/><use xlink:href="#DejaVuSans-25" transform="translate(127.246)"/></g></g><g id="xtick_12"><use xlink:href="#m29da15d6e0" id="line2d_20" x="609.839" y="275.04" style="stroke:#000;stroke-width:.8"/><g id="text_21" transform="matrix(.14 0 0 -.14 589.827 292.678)"><use xlink:href="#DejaVuSans-31"/><use xlink:href="#DejaVuSans-30" transform="translate(63.623)"/><use xlink:href="#DejaVuSans-30" transform="translate(127.246)"/><use xlink:href="#DejaVuSans-25" transform="translate(190.87)"/></g></g><g id="text_22" transform="matrix(.14 0 0 -.14 387.973 310.227)"><use xlink:href="#DejaVuSans-49"/><use xlink:href="#DejaVuSans-6e" transform="translate(29.492)"/><use xlink:href="#DejaVuSans-74" transform="translate(92.871)"/><use xlink:href="#DejaVuSans-65" transform="translate(132.08)"/><use xlink:href="#DejaVuSans-72" transform="translate(193.604)"/><use xlink:href="#DejaVuSans-6e" transform="translate(232.967)"/><use xlink:href="#DejaVuSans-61" transform="translate(296.346)"/><use xlink:href="#DejaVuSans-6c" transform="translate(357.625)"/><use xlink:href="#DejaVuSans-64" transform="translate(417.195)"/><use xlink:href="#DejaVuSans-6f" transform="translate(480.672)"/><use xlink:href="#DejaVuSans-63" transform="translate(541.854)"/><use xlink:href="#DejaVuSans-66" transform="translate(628.621)"/><use xlink:href="#DejaVuSans-72" transform="translate(663.826)"/><use xlink:href="#DejaVuSans-61" transform="translate(704.94)"/><use xlink:href="#DejaVuSans-63" transform="translate(766.219)"/><use xlink:href="#DejaVuSans-74" transform="translate(821.2)"/><use xlink:href="#DejaVuSans-69" transform="translate(860.408)"/><use xlink:href="#DejaVuSans-6f" transform="translate(888.191)"/><use xlink:href="#DejaVuSans-6e" transform="translate(949.373)"/><use xlink:href="#DejaVuSans-6f" transform="translate(1044.54)"/><use xlink:href="#DejaVuSans-66" transform="translate(1105.72)"/><use xlink:href="#DejaVuSans-6d" transform="translate(1172.713)"/><use xlink:href="#DejaVuSans-69" transform="translate(1270.125)"/><use xlink:href="#DejaVuSans-64" transform="translate(1297.908)"/><use xlink:href="#DejaVuSans-74" transform="translate(1361.385)"/><use xlink:href="#DejaVuSans-72" transform="translate(1400.594)"/><use xlink:href="#DejaVuSans-61" transform="translate(1441.707)"/><use xlink:href="#DejaVuSans-69" transform="translate(1502.986)"/><use xlink:href="#DejaVuSans-6e" transform="translate(1530.77)"/></g></g><g id="matplotlib.axis_4"><g id="ytick_7"><use xlink:href="#m88bc11af03" id="line2d_21" x="378.258" y="256.56" style="stroke:#000;stroke-width:.8"/><g id="text_23" transform="matrix(.14 0 0 -.14 340.14 261.879)"><defs><path id="DejaVuSans-37" d="M525 4666h3000v-269L1831 0h-659l1594 4134H525z" transform="scale(.01563)"/></defs><use xlink:href="#DejaVuSans-37"/><use xlink:href="#DejaVuSans-36" transform="translate(63.623)"/><use xlink:href="#DejaVuSans-25" transform="translate(127.246)"/></g></g><g id="ytick_8"><use xlink:href="#m88bc11af03" id="line2d_22" x="378.258" y="219.6" style="stroke:#000;stroke-width:.8"/><g id="text_24" transform="matrix(.14 0 0 -.14 340.14 224.919)"><use xlink:href="#DejaVuSans-37"/><use xlink:href="#DejaVuSans-38" transform="translate(63.623)"/><use xlink:href="#DejaVuSans-25" transform="translate(127.246)"/></g></g><g id="ytick_9"><use xlink:href="#m88bc11af03" id="line2d_23" x="378.258" y="182.64" style="stroke:#000;stroke-width:.8"/><g id="text_25" transform="matrix(.14 0 0 -.14 340.14 187.959)"><use xlink:href="#DejaVuSans-38"/><use xlink:href="#DejaVuSans-30" transform="translate(63.623)"/><use xlink:href="#DejaVuSans-25" transform="translate(127.246)"/></g></g><g id="ytick_10"><use xlink:href="#m88bc11af03" id="line2d_24" x="378.258" y="145.68" style="stroke:#000;stroke-width:.8"/><g id="text_26" transform="matrix(.14 0 0 -.14 340.14 150.999)"><use xlink:href="#DejaVuSans-38"/><use xlink:href="#DejaVuSans-32" transform="translate(63.623)"/><use xlink:href="#DejaVuSans-25" transform="translate(127.246)"/></g></g><g id="ytick_11"><use xlink:href="#m88bc11af03" id="line2d_25" x="378.258" y="108.72" style="stroke:#000;stroke-width:.8"/><g id="text_27" transform="matrix(.14 0 0 -.14 340.14 114.039)"><use xlink:href="#DejaVuSans-38"/><use xlink:href="#DejaVuSans-34" transform="translate(63.623)"/><use xlink:href="#DejaVuSans-25" transform="translate(127.246)"/></g></g><g id="ytick_12"><use xlink:href="#m88bc11af03" id="line2d_26" x="378.258" y="71.76" style="stroke:#000;stroke-width:.8"/><g id="text_28" transform="matrix(.14 0 0 -.14 340.14 77.079)"><use xlink:href="#DejaVuSans-38"/><use xlink:href="#DejaVuSans-36" transform="translate(63.623)"/><use xlink:href="#DejaVuSans-25" transform="translate(127.246)"/></g></g><g id="text_29" transform="matrix(0 -.14 -.14 0 333.23 249.29)"><defs><path id="DejaVuSans-28" d="M1984 4856q-418-718-622-1422-203-703-203-1425 0-721 205-1429t620-1424h-500Q1016-109 783 600T550 2009q0 697 231 1403 232 707 703 1444z" transform="scale(.01563)"/><path id="DejaVuSans-73" d="M2834 3397v-544q-243 125-506 187-262 63-544 63-428 0-642-131t-214-394q0-200 153-314t616-217l197-44q612-131 870-370t258-667q0-488-386-773Q2250-91 1575-91q-281 0-586 55T347 128v594q319-166 628-249 309-82 613-82 406 0 624 139 219 139 219 392 0 234-158 359-157 125-692 241l-200 47q-534 112-772 345-237 233-237 639 0 494 350 762 350 269 994 269 318 0 599-47 282-46 519-140" transform="scale(.01563)"/><path id="DejaVuSans-70" d="M1159 525v-1856H581v4831h578v-531q182 312 458 463 277 152 661 152 638 0 1036-506 399-506 399-1331T3314 415Q2916-91 2278-91q-384 0-661 152-276 152-458 464m1957 1222q0 634-261 995t-717 361q-457 0-718-361t-261-995 261-995 718-361q456 0 717 361t261 995" transform="scale(.01563)"/><path id="DejaVuSans-29" d="M513 4856h500q468-737 701-1444 233-706 233-1403 0-700-233-1409T1013-844H513q415 716 620 1424t205 1429q0 722-205 1425-205 704-620 1422" transform="scale(.01563)"/></defs><use xlink:href="#DejaVuSans-41"/><use xlink:href="#DejaVuSans-63" transform="translate(66.658)"/><use xlink:href="#DejaVuSans-63" transform="translate(121.639)"/><use xlink:href="#DejaVuSans-75" transform="translate(176.62)"/><use xlink:href="#DejaVuSans-72" transform="translate(239.998)"/><use xlink:href="#DejaVuSans-61" transform="translate(281.111)"/><use xlink:href="#DejaVuSans-63" transform="translate(342.39)"/><use xlink:href="#DejaVuSans-79" transform="translate(397.371)"/><use xlink:href="#DejaVuSans-28" transform="translate(488.338)"/><use xlink:href="#DejaVuSans-73" transform="translate(527.352)"/><use xlink:href="#DejaVuSans-74" transform="translate(579.451)"/><use xlink:href="#DejaVuSans-72" transform="translate(618.66)"/><use xlink:href="#DejaVuSans-69" transform="translate(659.773)"/><use xlink:href="#DejaVuSans-63" transform="translate(687.557)"/><use xlink:href="#DejaVuSans-74" transform="translate(742.537)"/><use xlink:href="#DejaVuSans-70" transform="translate(813.533)"/><use xlink:href="#DejaVuSans-72" transform="translate(877.01)"/><use xlink:href="#DejaVuSans-6f" transform="translate(915.873)"/><use xlink:href="#DejaVuSans-6d" transform="translate(977.055)"/><use xlink:href="#DejaVuSans-70" transform="translate(1074.467)"/><use xlink:href="#DejaVuSans-74" transform="translate(1137.943)"/><use xlink:href="#DejaVuSans-29" transform="translate(1177.152)"/></g></g><path id="line2d_27" d="M378.258 90.24h242.609" clip-path="url(#p5bc848869a)" style="fill:none;stroke-dasharray:11.1,4.8;stroke-dashoffset:0;stroke:#ff9640;stroke-opacity:.7;stroke-width:3"/><path id="line2d_28" d="m389.286 155.27 22.055 3.416 22.055 1.494 22.056 29.003 22.055-1.051 22.055 4.467 22.056-3.942 22.055 4.073 4.127 128.609" clip-path="url(#p5bc848869a)" style="fill:none;stroke:#0066c0;stroke-width:3;stroke-linecap:square"/><path id="patch_8" d="M378.258 275.04V53.28" style="fill:none;stroke:#000;stroke-width:.8;stroke-linejoin:miter;stroke-linecap:square"/><path id="patch_9" d="M620.867 275.04V53.28" style="fill:none;stroke:#000;stroke-width:.8;stroke-linejoin:miter;stroke-linecap:square"/><path id="patch_10" d="M378.258 275.04h242.609" style="fill:none;stroke:#000;stroke-width:.8;stroke-linejoin:miter;stroke-linecap:square"/><path id="patch_11" d="M378.258 53.28h242.609" style="fill:none;stroke:#000;stroke-width:.8;stroke-linejoin:miter;stroke-linecap:square"/><g id="text_30" transform="matrix(.14 0 0 -.14 376.596 47.28)"><defs><path id="DejaVuSans-43" d="M4122 4306v-665q-319 297-680 443-361 147-767 147-800 0-1225-489t-425-1414q0-922 425-1411t1225-489q406 0 767 147t680 444V359q-331-225-702-338-370-112-782-112-1060 0-1670 648-609 649-609 1771 0 1125 609 1773 610 649 1670 649 418 0 788-111 371-111 696-333" transform="scale(.01563)"/><path id="DejaVuSans-68" d="M3513 2113V0h-575v2094q0 497-194 743-194 247-581 247-466 0-735-297-269-296-269-809V0H581v4863h578V2956q207 316 486 472 280 156 646 156 603 0 912-373 310-373 310-1098" transform="scale(.01563)"/><path id="DejaVuSans-46" d="M628 4666h2681v-532H1259V2759h1850v-531H1259V0H628z" transform="scale(.01563)"/><path id="DejaVuSans-2d" d="M313 2009h1684v-512H313z" transform="scale(.01563)"/></defs><use xlink:href="#DejaVuSans-43"/><use xlink:href="#DejaVuSans-68" transform="translate(69.824)"/><use xlink:href="#DejaVuSans-61" transform="translate(133.203)"/><use xlink:href="#DejaVuSans-74" transform="translate(194.482)"/><use xlink:href="#DejaVuSans-3a" transform="translate(233.691)"/><use xlink:href="#DejaVuSans-69" transform="translate(299.17)"/><use xlink:href="#DejaVuSans-6e" transform="translate(326.953)"/><use xlink:href="#DejaVuSans-73" transform="translate(390.332)"/><use xlink:href="#DejaVuSans-74" transform="translate(442.432)"/><use xlink:href="#DejaVuSans-72" transform="translate(481.64)"/><use xlink:href="#DejaVuSans-75" transform="translate(522.754)"/><use xlink:href="#DejaVuSans-63" transform="translate(586.133)"/><use xlink:href="#DejaVuSans-74" transform="translate(641.113)"/><use xlink:href="#DejaVuSans-69" transform="translate(680.322)"/><use xlink:href="#DejaVuSans-6f" transform="translate(708.105)"/><use xlink:href="#DejaVuSans-6e" transform="translate(769.287)"/><use xlink:href="#DejaVuSans-66" transform="translate(864.453)"/><use xlink:href="#DejaVuSans-6f" transform="translate(899.658)"/><use xlink:href="#DejaVuSans-6c" transform="translate(960.84)"/><use xlink:href="#DejaVuSans-6c" transform="translate(988.623)"/><use xlink:href="#DejaVuSans-6f" transform="translate(1016.406)"/><use xlink:href="#DejaVuSans-77" transform="translate(1077.588)"/><use xlink:href="#DejaVuSans-69" transform="translate(1159.375)"/><use xlink:href="#DejaVuSans-6e" transform="translate(1187.158)"/><use xlink:href="#DejaVuSans-67" transform="translate(1250.537)"/><use xlink:href="#DejaVuSans-28" transform="translate(1345.8)"/><use xlink:href="#DejaVuSans-49" transform="translate(1384.814)"/><use xlink:href="#DejaVuSans-46" transform="translate(1414.307)"/><use xlink:href="#DejaVuSans-2d" transform="translate(1471.826)"/><use xlink:href="#DejaVuSans-65" transform="translate(1507.91)"/><use xlink:href="#DejaVuSans-76" transform="translate(1569.434)"/><use xlink:href="#DejaVuSans-61" transform="translate(1628.613)"/><use xlink:href="#DejaVuSans-6c" transform="translate(1689.893)"/><use xlink:href="#DejaVuSans-29" transform="translate(1717.676)"/></g><g id="legend_1"><path id="line2d_29" d="M390.858 234.08h28" style="fill:none;stroke-dasharray:11.1,4.8;stroke-dashoffset:0;stroke:#ff9640;stroke-opacity:.7;stroke-width:3"/><g id="text_31" transform="matrix(.14 0 0 -.14 430.058 238.98)"><defs><path id="DejaVuSans-42" d="M1259 2228V519h1013q509 0 754 211 246 211 246 645 0 438-246 645-245 208-754 208zm0 1919V2741h935q462 0 688 173 227 174 227 530 0 353-227 528-226 175-688 175zm-631 519h1613q722 0 1112-300 391-300 391-853 0-429-200-682t-588-315q466-100 724-418 258-317 258-792 0-625-425-966Q3088 0 2303 0H628z" transform="scale(.01563)"/></defs><use xlink:href="#DejaVuSans-51"/><use xlink:href="#DejaVuSans-77" transform="translate(78.71)"/><use xlink:href="#DejaVuSans-65" transform="translate(160.498)"/><use xlink:href="#DejaVuSans-6e" transform="translate(222.021)"/><use xlink:href="#DejaVuSans-33" transform="translate(285.4)"/><use xlink:href="#DejaVuSans-2d" transform="translate(349.023)"/><use xlink:href="#DejaVuSans-38" transform="translate(385.107)"/><use xlink:href="#DejaVuSans-42" transform="translate(448.73)"/></g><path id="line2d_30" d="M390.858 254.628h28" style="fill:none;stroke:#0066c0;stroke-width:3;stroke-linecap:square"/><g id="text_32" transform="matrix(.14 0 0 -.14 430.058 259.528)"><defs><path id="DejaVuSans-50" d="M1259 4147V2394h794q441 0 681 228 241 228 241 650 0 419-241 647-240 228-681 228zm-631 519h1425q785 0 1186-355 402-355 402-1039 0-691-402-1044-401-353-1186-353h-794V0H628z" transform="scale(.01563)"/></defs><use xlink:href="#DejaVuSans-50"/><use xlink:href="#DejaVuSans-6f" transform="translate(56.678)"/><use xlink:href="#DejaVuSans-73" transform="translate(117.86)"/><use xlink:href="#DejaVuSans-74" transform="translate(169.959)"/><use xlink:href="#DejaVuSans-2d" transform="translate(209.168)"/><use xlink:href="#DejaVuSans-6d" transform="translate(245.252)"/><use xlink:href="#DejaVuSans-69" transform="translate(342.664)"/><use xlink:href="#DejaVuSans-64" transform="translate(370.447)"/><use xlink:href="#DejaVuSans-74" transform="translate(433.924)"/><use xlink:href="#DejaVuSans-72" transform="translate(473.133)"/><use xlink:href="#DejaVuSans-61" transform="translate(514.246)"/><use xlink:href="#DejaVuSans-69" transform="translate(575.525)"/><use xlink:href="#DejaVuSans-6e" transform="translate(603.309)"/></g></g></g><g id="text_33" transform="matrix(.14 0 0 -.14 81.36 17.838)"><defs><path id="DejaVuSans-7a" d="M353 3500h2731v-525L922 459h2162V0H275v525l2163 2516H353z" transform="scale(.01563)"/><path id="DejaVuSans-2b" d="M2944 4013V2272h1740v-531H2944V0h-525v1741H678v531h1741v1741z" transform="scale(.01563)"/><path id="DejaVuSans-54" d="M-19 4666h3947v-532H2272V0h-634v4134H-19z" transform="scale(.01563)"/></defs><use xlink:href="#DejaVuSans-50"/><use xlink:href="#DejaVuSans-65" transform="translate(56.678)"/><use xlink:href="#DejaVuSans-72" transform="translate(118.201)"/><use xlink:href="#DejaVuSans-73" transform="translate(159.314)"/><use xlink:href="#DejaVuSans-6f" transform="translate(211.414)"/><use xlink:href="#DejaVuSans-6e" transform="translate(272.596)"/><use xlink:href="#DejaVuSans-61" transform="translate(335.975)"/><use xlink:href="#DejaVuSans-6c" transform="translate(397.254)"/><use xlink:href="#DejaVuSans-69" transform="translate(425.037)"/><use xlink:href="#DejaVuSans-7a" transform="translate(452.82)"/><use xlink:href="#DejaVuSans-61" transform="translate(505.31)"/><use xlink:href="#DejaVuSans-74" transform="translate(566.59)"/><use xlink:href="#DejaVuSans-69" transform="translate(605.799)"/><use xlink:href="#DejaVuSans-6f" transform="translate(633.582)"/><use xlink:href="#DejaVuSans-6e" transform="translate(694.764)"/><use xlink:href="#DejaVuSans-6d" transform="translate(789.93)"/><use xlink:href="#DejaVuSans-69" transform="translate(887.342)"/><use xlink:href="#DejaVuSans-64" transform="translate(915.125)"/><use xlink:href="#DejaVuSans-74" transform="translate(978.602)"/><use xlink:href="#DejaVuSans-72" transform="translate(1017.81)"/><use xlink:href="#DejaVuSans-61" transform="translate(1058.924)"/><use xlink:href="#DejaVuSans-69" transform="translate(1120.203)"/><use xlink:href="#DejaVuSans-6e" transform="translate(1147.986)"/><use xlink:href="#DejaVuSans-6f" transform="translate(1243.152)"/><use xlink:href="#DejaVuSans-6e" transform="translate(1304.334)"/><use xlink:href="#DejaVuSans-69" transform="translate(1399.5)"/><use xlink:href="#DejaVuSans-6e" transform="translate(1427.283)"/><use xlink:href="#DejaVuSans-74" transform="translate(1490.662)"/><use xlink:href="#DejaVuSans-65" transform="translate(1529.871)"/><use xlink:href="#DejaVuSans-72" transform="translate(1591.395)"/><use xlink:href="#DejaVuSans-6e" transform="translate(1630.758)"/><use xlink:href="#DejaVuSans-61" transform="translate(1694.137)"/><use xlink:href="#DejaVuSans-6c" transform="translate(1755.416)"/><use xlink:href="#DejaVuSans-64" transform="translate(1814.986)"/><use xlink:href="#DejaVuSans-6f" transform="translate(1878.463)"/><use xlink:href="#DejaVuSans-63" transform="translate(1939.645)"/><use xlink:href="#DejaVuSans-73" transform="translate(1994.625)"/><use xlink:href="#DejaVuSans-2b" transform="translate(2078.512)"/><use xlink:href="#DejaVuSans-54" transform="translate(2194.088)"/><use xlink:href="#DejaVuSans-75" transform="translate(2240.047)"/><use xlink:href="#DejaVuSans-6c" transform="translate(2303.426)"/><use xlink:href="#DejaVuSans-75" transform="translate(2331.209)"/><use xlink:href="#DejaVuSans-33" transform="translate(2394.588)"/><use xlink:href="#DejaVuSans-63" transform="translate(2489.998)"/><use xlink:href="#DejaVuSans-68" transform="translate(2544.979)"/><use xlink:href="#DejaVuSans-61" transform="translate(2608.357)"/><use xlink:href="#DejaVuSans-74" transform="translate(2669.637)"/><use xlink:href="#DejaVuSans-64" transform="translate(2740.633)"/><use xlink:href="#DejaVuSans-61" transform="translate(2804.11)"/><use xlink:href="#DejaVuSans-74" transform="translate(2865.389)"/><use xlink:href="#DejaVuSans-61" transform="translate(2904.598)"/><use xlink:href="#DejaVuSans-28" transform="translate(2997.664)"/><use xlink:href="#DejaVuSans-51" transform="translate(3036.678)"/><use xlink:href="#DejaVuSans-77" transform="translate(3115.389)"/><use xlink:href="#DejaVuSans-65" transform="translate(3197.176)"/><use xlink:href="#DejaVuSans-6e" transform="translate(3258.7)"/><use xlink:href="#DejaVuSans-33" transform="translate(3322.078)"/><use xlink:href="#DejaVuSans-2d" transform="translate(3385.701)"/><use xlink:href="#DejaVuSans-38" transform="translate(3421.785)"/><use xlink:href="#DejaVuSans-42" transform="translate(3485.408)"/><use xlink:href="#DejaVuSans-29" transform="translate(3554.012)"/></g></g><defs><clipPath id="pdecf7792d0"><path d="M62.867 53.28h242.609v221.76H62.867z"/></clipPath><clipPath id="p5bc848869a"><path d="M378.258 53.28h242.609v221.76H378.258z"/></clipPath></defs></svg>