<svg xmlns="http://www.w3.org/2000/svg" xmlns:xlink="http://www.w3.org/1999/xlink" width="971.199" height="429.92" viewBox="0 0 728.4 322.44"><defs><style>*{stroke-linejoin:round;stroke-linecap:butt}</style></defs><g id="figure_1"><path id="patch_1" d="M0 322.44h728.4V0H0z" style="fill:#fff"/><g id="axes_1"><path id="patch_2" d="M62.867 277.141h282.747V49.878H62.867z" style="fill:#fff"/><g id="matplotlib.axis_1"><g id="xtick_1"><g id="line2d_1"><defs><path id="me398dcac32" d="M0 0v3.5" style="stroke:#000;stroke-width:.8"/></defs><use xlink:href="#me398dcac32" x="73.122" y="277.141" style="stroke:#000;stroke-width:.8"/></g><g id="text_1" transform="matrix(.14 0 0 -.14 68.669 294.779)"><defs><path id="DejaVuSans-30" d="M2034 4250q-487 0-733-480-245-479-245-1442 0-959 245-1439 246-480 733-480 491 0 736 480 246 480 246 1439 0 963-246 1442-245 480-736 480m0 500q785 0 1199-621 414-620 414-1801 0-1178-414-1799Q2819-91 2034-91q-784 0-1198 620-414 621-414 1799 0 1181 414 1801 414 621 1198 621" transform="scale(.01563)"/></defs><use xlink:href="#DejaVuSans-30"/></g></g><g id="xtick_2"><use xlink:href="#me398dcac32" id="line2d_2" x="125.05" y="277.141" style="stroke:#000;stroke-width:.8"/><g id="text_2" transform="matrix(.14 0 0 -.14 116.143 294.779)"><defs><path id="DejaVuSans-32" d="M1228 531h2203V0H469v531q359 372 979 998 621 627 780 809 303 340 423 576 121 236 121 464 0 372-261 606-261 235-680 235-297 0-627-103-329-103-704-313v638q381 153 712 231 332 78 607 78 725 0 1156-363 431-362 431-968 0-288-108-546-107-257-392-607-78-91-497-524-418-433-1181-1211" transform="scale(.01563)"/></defs><use xlink:href="#DejaVuSans-32"/><use xlink:href="#DejaVuSans-30" transform="translate(63.623)"/></g></g><g id="xtick_3"><use xlink:href="#me398dcac32" id="line2d_3" x="176.978" y="277.141" style="stroke:#000;stroke-width:.8"/><g id="text_3" transform="matrix(.14 0 0 -.14 168.07 294.779)"><defs><path id="DejaVuSans-34" d="M2419 4116 825 1625h1594zm-166 550h794V1625h666v-525h-666V0h-628v1100H313v609z" transform="scale(.01563)"/></defs><use xlink:href="#DejaVuSans-34"/><use xlink:href="#DejaVuSans-30" transform="translate(63.623)"/></g></g><g id="xtick_4"><use xlink:href="#me398dcac32" id="line2d_4" x="228.906" y="277.141" style="stroke:#000;stroke-width:.8"/><g id="text_4" transform="matrix(.14 0 0 -.14 219.999 294.779)"><defs><path id="DejaVuSans-36" d="M2113 2584q-425 0-674-291-248-290-248-796 0-503 248-796 249-292 674-292t673 292q248 293 248 796 0 506-248 796-248 291-673 291m1253 1979v-575q-238 112-480 171-242 60-480 60-625 0-955-422-329-422-376-1275 184 272 462 417 279 145 613 145 703 0 1111-427 408-426 408-1160 0-719-425-1154Q2819-91 2113-91q-810 0-1238 620-428 621-428 1799 0 1106 525 1764t1409 658q238 0 480-47t505-140" transform="scale(.01563)"/></defs><use xlink:href="#DejaVuSans-36"/><use xlink:href="#DejaVuSans-30" transform="translate(63.623)"/></g></g><g id="xtick_5"><use xlink:href="#me398dcac32" id="line2d_5" x="280.834" y="277.141" style="stroke:#000;stroke-width:.8"/><g id="text_5" transform="matrix(.14 0 0 -.14 271.926 294.779)"><defs><path id="DejaVuSans-38" d="M2034 2216q-450 0-708-241-257-241-257-662 0-422 257-663 258-241 708-241t709 242q260 243 260 662 0 421-258 662-257 241-711 241m-631 268q-406 100-633 378-226 279-226 679 0 559 398 884 399 325 1092 325 697 0 1094-325t397-884q0-400-227-679-226-278-629-378 456-106 710-416 255-309 255-755 0-679-414-1042Q2806-91 2034-91q-771 0-1186 362-414 363-414 1042 0 446 256 755 257 310 713 416m-231 997q0-362 226-565 227-203 636-203 407 0 636 203 230 203 230 565 0 363-230 566-229 203-636 203-409 0-636-203-226-203-226-566" transform="scale(.01563)"/></defs><use xlink:href="#DejaVuSans-38"/><use xlink:href="#DejaVuSans-30" transform="translate(63.623)"/></g></g><g id="xtick_6"><use xlink:href="#me398dcac32" id="line2d_6" x="332.762" y="277.141" style="stroke:#000;stroke-width:.8"/><g id="text_6" transform="matrix(.14 0 0 -.14 319.4 294.779)"><defs><path id="DejaVuSans-31" d="M794 531h1031v3560L703 3866v575l1116 225h631V531h1031V0H794z" transform="scale(.01563)"/></defs><use xlink:href="#DejaVuSans-31"/><use xlink:href="#DejaVuSans-30" transform="translate(63.623)"/><use xlink:href="#DejaVuSans-30" transform="translate(127.246)"/></g></g><g id="text_7" transform="matrix(.14 0 0 -.14 188.301 312.328)"><defs><path id="DejaVuSans-53" d="M3425 4513v-616q-359 172-678 256-319 85-616 85-515 0-795-200t-280-569q0-310 186-468 186-157 705-254l381-78q706-135 1042-474t336-907q0-679-455-1029Q2797-91 1919-91q-331 0-705 75-373 75-773 222v650q384-215 753-325 369-109 725-109 540 0 834 212 294 213 294 607 0 343-211 537t-692 291l-385 75q-706 140-1022 440-315 300-315 835 0 619 436 975t1201 356q329 0 669-60 341-59 697-177" transform="scale(.01563)"/><path id="DejaVuSans-74" d="M1172 4494v-994h1184v-447H1172V1153q0-428 117-550t477-122h590V0h-590q-666 0-919 248-253 249-253 905v1900H172v447h422v994z" transform="scale(.01563)"/><path id="DejaVuSans-65" d="M3597 1894v-281H953q38-594 358-905t892-311q331 0 642 81t618 244V178Q3153 47 2828-22t-659-69q-838 0-1327 487-489 488-489 1320 0 859 464 1363 464 505 1252 505 706 0 1117-455 411-454 411-1235m-575 169q-6 471-264 752-258 282-683 282-481 0-770-272t-333-766z" transform="scale(.01563)"/><path id="DejaVuSans-70" d="M1159 525v-1856H581v4831h578v-531q182 312 458 463 277 152 661 152 638 0 1036-506 399-506 399-1331T3314 415Q2916-91 2278-91q-384 0-661 152-276 152-458 464m1957 1222q0 634-261 995t-717 361q-457 0-718-361t-261-995 261-995 718-361q456 0 717 361t261 995" transform="scale(.01563)"/></defs><use xlink:href="#DejaVuSans-53"/><use xlink:href="#DejaVuSans-74" transform="translate(63.477)"/><use xlink:href="#DejaVuSans-65" transform="translate(102.686)"/><use xlink:href="#DejaVuSans-70" transform="translate(164.209)"/></g></g><g id="matplotlib.axis_2"><g id="ytick_1"><g id="line2d_7"><defs><path id="m1772108f73" d="M0 0h-3.5" style="stroke:#000;stroke-width:.8"/></defs><use xlink:href="#m1772108f73" x="62.867" y="271.013" style="stroke:#000;stroke-width:.8"/></g><g id="text_8" transform="matrix(.14 0 0 -.14 24.75 276.332)"><defs><path id="DejaVuSans-25" d="M4653 2053q-272 0-427-231-154-231-154-644 0-406 154-639 155-233 427-233 266 0 420 233 155 233 155 639 0 410-155 642-154 233-420 233m0 397q494 0 784-344 291-343 291-928 0-584-292-927-292-342-783-342-500 0-791 342-290 343-290 927 0 588 292 930t789 342M1428 4353q-269 0-424-233-154-232-154-639 0-412 153-644 153-231 425-231t426 231q155 232 155 644 0 403-156 637-156 235-425 235m2822 397h500L1831-91h-500zm-2822 0q494 0 787-342 294-342 294-927 0-590-292-931t-789-341-786 342q-289 343-289 930 0 582 290 925 291 344 785 344" transform="scale(.01563)"/></defs><use xlink:href="#DejaVuSans-32"/><use xlink:href="#DejaVuSans-30" transform="translate(63.623)"/><use xlink:href="#DejaVuSans-25" transform="translate(127.246)"/></g></g><g id="ytick_2"><use xlink:href="#m1772108f73" id="line2d_8" x="62.867" y="230.991" style="stroke:#000;stroke-width:.8"/><g id="text_9" transform="matrix(.14 0 0 -.14 24.75 236.31)"><use xlink:href="#DejaVuSans-32"/><use xlink:href="#DejaVuSans-32" transform="translate(63.623)"/><use xlink:href="#DejaVuSans-25" transform="translate(127.246)"/></g></g><g id="ytick_3"><use xlink:href="#m1772108f73" id="line2d_9" x="62.867" y="190.969" style="stroke:#000;stroke-width:.8"/><g id="text_10" transform="matrix(.14 0 0 -.14 24.75 196.288)"><use xlink:href="#DejaVuSans-32"/><use xlink:href="#DejaVuSans-34" transform="translate(63.623)"/><use xlink:href="#DejaVuSans-25" transform="translate(127.246)"/></g></g><g id="ytick_4"><use xlink:href="#m1772108f73" id="line2d_10" x="62.867" y="150.947" style="stroke:#000;stroke-width:.8"/><g id="text_11" transform="matrix(.14 0 0 -.14 24.75 156.266)"><use xlink:href="#DejaVuSans-32"/><use xlink:href="#DejaVuSans-36" transform="translate(63.623)"/><use xlink:href="#DejaVuSans-25" transform="translate(127.246)"/></g></g><g id="ytick_5"><use xlink:href="#m1772108f73" id="line2d_11" x="62.867" y="110.925" style="stroke:#000;stroke-width:.8"/><g id="text_12" transform="matrix(.14 0 0 -.14 24.75 116.243)"><use xlink:href="#DejaVuSans-32"/><use xlink:href="#DejaVuSans-38" transform="translate(63.623)"/><use xlink:href="#DejaVuSans-25" transform="translate(127.246)"/></g></g><g id="ytick_6"><use xlink:href="#m1772108f73" id="line2d_12" x="62.867" y="70.902" style="stroke:#000;stroke-width:.8"/><g id="text_13" transform="matrix(.14 0 0 -.14 24.75 76.221)"><defs><path id="DejaVuSans-33" d="M2597 2516q453-97 707-404 255-306 255-756 0-690-475-1069Q2609-91 1734-91q-293 0-604 58T488 141v609q262-153 574-231 313-78 654-78 593 0 904 234t311 681q0 413-289 645-289 233-804 233h-544v519h569q465 0 712 186t247 536q0 359-255 551-254 193-729 193-260 0-557-57-297-56-653-174v562q360 100 674 150t592 50q719 0 1137-327 419-326 419-882 0-388-222-655t-631-370" transform="scale(.01563)"/></defs><use xlink:href="#DejaVuSans-33"/><use xlink:href="#DejaVuSans-30" transform="translate(63.623)"/><use xlink:href="#DejaVuSans-25" transform="translate(127.246)"/></g></g><g id="text_14" transform="matrix(0 -.14 -.14 0 17.838 195.469)"><defs><path id="DejaVuSans-41" d="m2188 4044-857-2322h1716zm-357 622h716L4325 0h-656l-425 1197H1141L716 0H50z" transform="scale(.01563)"/><path id="DejaVuSans-63" d="M3122 3366v-538q-244 135-489 202t-495 67q-560 0-870-355-309-354-309-995t309-996q310-354 870-354 250 0 495 67t489 202V134Q2881 22 2623-34q-257-57-548-57-791 0-1257 497-465 497-465 1341 0 856 470 1346 471 491 1290 491 265 0 518-55 253-54 491-163" transform="scale(.01563)"/><path id="DejaVuSans-75" d="M544 1381v2119h575V1403q0-497 193-746 194-248 582-248 465 0 735 297 271 297 271 810v1984h575V0h-575v538q-209-319-486-474-276-155-642-155-603 0-916 375-312 375-312 1097m1447 2203" transform="scale(.01563)"/><path id="DejaVuSans-72" d="M2631 2963q-97 56-211 82-114 27-251 27-488 0-749-317t-261-911V0H581v3500h578v-544q182 319 472 473 291 155 707 155 59 0 131-8 72-7 159-23z" transform="scale(.01563)"/><path id="DejaVuSans-61" d="M2194 1759q-697 0-966-159t-269-544q0-306 202-486 202-179 548-179 479 0 768 339t289 901v128zm1147 238V0h-575v531q-197-318-491-470T1556-91q-537 0-855 302-317 302-317 808 0 590 395 890 396 300 1180 300h807v57q0 397-261 614t-733 217q-300 0-585-72-284-72-546-216v532q315 122 612 182 297 61 578 61 760 0 1135-394 375-393 375-1193" transform="scale(.01563)"/><path id="DejaVuSans-79" d="M2059-325q-243-625-475-815-231-191-618-191H506v481h338q237 0 368 113 132 112 291 531l103 262L191 3500h609L1894 763l1094 2737h609z" transform="scale(.01563)"/></defs><use xlink:href="#DejaVuSans-41"/><use xlink:href="#DejaVuSans-63" transform="translate(66.658)"/><use xlink:href="#DejaVuSans-63" transform="translate(121.639)"/><use xlink:href="#DejaVuSans-75" transform="translate(176.62)"/><use xlink:href="#DejaVuSans-72" transform="translate(239.998)"/><use xlink:href="#DejaVuSans-61" transform="translate(281.111)"/><use xlink:href="#DejaVuSans-63" transform="translate(342.39)"/><use xlink:href="#DejaVuSans-79" transform="translate(397.371)"/></g></g><path id="line2d_13" d="M62.867 89.713h282.747" clip-path="url(#pe4017c60ed)" style="fill:none;stroke-dasharray:7.4,3.2;stroke-dashoffset:0;stroke:#0066c0;stroke-opacity:.5;stroke-width:2"/><path id="line2d_14" d="m75.719 266.81 23.367-29.115 25.964-37.571 25.964-20.787 25.964-29.203 25.964-16.703 25.964-5.25 25.964-28.64 25.964-39.333 25.964 23.057 25.964 3.224" clip-path="url(#pe4017c60ed)" style="fill:none;stroke:#0066c0;stroke-width:3;stroke-linecap:square"/><path id="line2d_15" d="M75.719 266.81 99.086 62.565 125.05 79.24l25.964-14.591" clip-path="url(#pe4017c60ed)" style="fill:none;stroke:#169e78;stroke-width:3;stroke-linecap:square"/><path id="line2d_16" d="m75.719 266.81 23.367-139.626 25.964-10.423 25.964 8.338 25.964-22.93" clip-path="url(#pe4017c60ed)" style="fill:none;stroke:#99c44a;stroke-opacity:.3;stroke-width:3;stroke-linecap:square"/><path id="line2d_17" d="m75.719 266.81 23.367-106.275 25.964-58.365 25.964 6.253 25.964 6.254" clip-path="url(#pe4017c60ed)" style="fill:none;stroke:#99c44a;stroke-width:3;stroke-linecap:square"/><path id="patch_3" d="M62.867 277.141V49.878" style="fill:none;stroke:#000;stroke-width:.8;stroke-linejoin:miter;stroke-linecap:square"/><path id="patch_4" d="M345.614 277.141V49.878" style="fill:none;stroke:#000;stroke-width:.8;stroke-linejoin:miter;stroke-linecap:square"/><path id="patch_5" d="M62.867 277.141h282.747" style="fill:none;stroke:#000;stroke-width:.8;stroke-linejoin:miter;stroke-linecap:square"/><path id="patch_6" d="M62.867 49.878h282.747" style="fill:none;stroke:#000;stroke-width:.8;stroke-linejoin:miter;stroke-linecap:square"/><g id="text_15" transform="matrix(.14 0 0 -.14 123.759 43.878)"><defs><path id="DejaVuSans-6d" d="M3328 2828q216 388 516 572t706 184q547 0 844-383 297-382 297-1088V0h-578v2094q0 503-179 746-178 244-543 244-447 0-707-297-259-296-259-809V0h-578v2094q0 506-178 748t-550 242q-441 0-701-298-259-298-259-808V0H581v3500h578v-544q197 322 472 475t653 153q382 0 649-194 267-193 395-562" transform="scale(.01563)"/><path id="DejaVuSans-6c" d="M603 4863h575V0H603z" transform="scale(.01563)"/><path id="DejaVuSans-69" d="M603 3500h575V0H603zm0 1363h575v-729H603z" transform="scale(.01563)"/><path id="DejaVuSans-6e" d="M3513 2113V0h-575v2094q0 497-194 743-194 247-581 247-466 0-735-297-269-296-269-809V0H581v3500h578v-544q207 316 486 472 280 156 646 156 603 0 912-373 310-373 310-1098" transform="scale(.01563)"/><path id="DejaVuSans-67" d="M2906 1791q0 625-258 968-257 344-723 344-462 0-720-344-258-343-258-968 0-622 258-966t720-344q466 0 723 344 258 344 258 966m575-1357q0-893-397-1329-396-436-1215-436-303 0-572 45t-522 139v559q253-137 500-202 247-66 503-66 566 0 847 295t281 892v285q-178-310-456-463T1784 0Q1141 0 747 490 353 981 353 1791q0 812 394 1302 394 491 1037 491 388 0 666-153t456-462v531h575z" transform="scale(.01563)"/><path id="DejaVuSans-76" d="M191 3500h609L1894 563l1094 2937h609L2284 0h-781z" transform="scale(.01563)"/><path id="DejaVuSans-3a" d="M750 794h659V0H750zm0 2515h659v-793H750z" transform="scale(.01563)"/><path id="DejaVuSans-49" d="M628 4666h631V0H628z" transform="scale(.01563)"/><path id="DejaVuSans-4d" d="M628 4666h941l1190-3175 1197 3175h941V0h-616v4097L3078 897h-634L1241 4097V0H628z" transform="scale(.01563)"/><path id="DejaVuSans-45" d="M628 4666h2950v-532H1259V2753h2222v-531H1259V531h2375V0H628z" transform="scale(.01563)"/></defs><use xlink:href="#DejaVuSans-53"/><use xlink:href="#DejaVuSans-61" transform="translate(63.477)"/><use xlink:href="#DejaVuSans-6d" transform="translate(124.756)"/><use xlink:href="#DejaVuSans-70" transform="translate(222.168)"/><use xlink:href="#DejaVuSans-6c" transform="translate(285.645)"/><use xlink:href="#DejaVuSans-69" transform="translate(313.428)"/><use xlink:href="#DejaVuSans-6e" transform="translate(341.21)"/><use xlink:href="#DejaVuSans-67" transform="translate(404.59)"/><use xlink:href="#DejaVuSans-65" transform="translate(499.854)"/><use xlink:href="#DejaVuSans-76" transform="translate(561.377)"/><use xlink:href="#DejaVuSans-61" transform="translate(620.557)"/><use xlink:href="#DejaVuSans-6c" transform="translate(681.836)"/><use xlink:href="#DejaVuSans-3a" transform="translate(709.62)"/><use xlink:href="#DejaVuSans-41" transform="translate(775.098)"/><use xlink:href="#DejaVuSans-49" transform="translate(843.506)"/><use xlink:href="#DejaVuSans-4d" transform="translate(872.998)"/><use xlink:href="#DejaVuSans-45" transform="translate(959.277)"/><use xlink:href="#DejaVuSans-32" transform="translate(1022.46)"/><use xlink:href="#DejaVuSans-34" transform="translate(1086.084)"/></g></g><g id="axes_2"><path id="patch_7" d="M429.545 277.141h282.747V49.878H429.545z" style="fill:#fff"/><g id="matplotlib.axis_3"><g id="xtick_7"><use xlink:href="#me398dcac32" id="line2d_18" x="442.366" y="277.141" style="stroke:#000;stroke-width:.8"/><use xlink:href="#DejaVuSans-30" id="text_16" transform="matrix(.14 0 0 -.14 437.912 294.779)"/></g><g id="xtick_8"><use xlink:href="#me398dcac32" id="line2d_19" x="509.848" y="277.141" style="stroke:#000;stroke-width:.8"/><g id="text_17" transform="matrix(.14 0 0 -.14 500.94 294.779)"><use xlink:href="#DejaVuSans-31"/><use xlink:href="#DejaVuSans-30" transform="translate(63.623)"/></g></g><g id="xtick_9"><use xlink:href="#me398dcac32" id="line2d_20" x="577.329" y="277.141" style="stroke:#000;stroke-width:.8"/><g id="text_18" transform="matrix(.14 0 0 -.14 568.422 294.779)"><use xlink:href="#DejaVuSans-32"/><use xlink:href="#DejaVuSans-30" transform="translate(63.623)"/></g></g><g id="xtick_10"><use xlink:href="#me398dcac32" id="line2d_21" x="644.811" y="277.141" style="stroke:#000;stroke-width:.8"/><g id="text_19" transform="matrix(.14 0 0 -.14 635.903 294.779)"><use xlink:href="#DejaVuSans-33"/><use xlink:href="#DejaVuSans-30" transform="translate(63.623)"/></g></g><g id="xtick_11"><use xlink:href="#me398dcac32" id="line2d_22" x="712.292" y="277.141" style="stroke:#000;stroke-width:.8"/><g id="text_20" transform="matrix(.14 0 0 -.14 703.385 294.779)"><use xlink:href="#DejaVuSans-34"/><use xlink:href="#DejaVuSans-30" transform="translate(63.623)"/></g></g><g id="text_21" transform="matrix(.14 0 0 -.14 554.98 312.328)"><use xlink:href="#DejaVuSans-53"/><use xlink:href="#DejaVuSans-74" transform="translate(63.477)"/><use xlink:href="#DejaVuSans-65" transform="translate(102.686)"/><use xlink:href="#DejaVuSans-70" transform="translate(164.209)"/></g></g><g id="matplotlib.axis_4"><g id="ytick_7"><use xlink:href="#m1772108f73" id="line2d_23" x="429.545" y="266.811" style="stroke:#000;stroke-width:.8"/><g id="text_22" transform="matrix(.14 0 0 -.14 400.28 272.13)"><defs><path id="DejaVuSans-2e" d="M684 794h660V0H684z" transform="scale(.01563)"/></defs><use xlink:href="#DejaVuSans-2e"/><use xlink:href="#DejaVuSans-30" transform="translate(31.787)"/><use xlink:href="#DejaVuSans-30" transform="translate(95.41)"/></g></g><g id="ytick_8"><use xlink:href="#m1772108f73" id="line2d_24" x="429.545" y="230.843" style="stroke:#000;stroke-width:.8"/><g id="text_23" transform="matrix(.14 0 0 -.14 400.28 236.162)"><use xlink:href="#DejaVuSans-2e"/><use xlink:href="#DejaVuSans-30" transform="translate(31.787)"/><use xlink:href="#DejaVuSans-33" transform="translate(95.41)"/></g></g><g id="ytick_9"><use xlink:href="#m1772108f73" id="line2d_25" x="429.545" y="194.876" style="stroke:#000;stroke-width:.8"/><g id="text_24" transform="matrix(.14 0 0 -.14 400.28 200.195)"><use xlink:href="#DejaVuSans-2e"/><use xlink:href="#DejaVuSans-30" transform="translate(31.787)"/><use xlink:href="#DejaVuSans-36" transform="translate(95.41)"/></g></g><g id="ytick_10"><use xlink:href="#m1772108f73" id="line2d_26" x="429.545" y="158.908" style="stroke:#000;stroke-width:.8"/><g id="text_25" transform="matrix(.14 0 0 -.14 400.28 164.227)"><defs><path id="DejaVuSans-39" d="M703 97v575q238-113 481-172 244-59 479-59 625 0 954 420 330 420 377 1277-181-269-460-413-278-144-615-144-700 0-1108 423-408 424-408 1159 0 718 425 1152 425 435 1131 435 810 0 1236-621 427-620 427-1801 0-1103-524-1761Q2575-91 1691-91q-238 0-482 47Q966 3 703 97m1256 1978q425 0 673 290 249 291 249 798 0 503-249 795-248 292-673 292t-673-292-248-795q0-507 248-798 248-290 673-290" transform="scale(.01563)"/></defs><use xlink:href="#DejaVuSans-2e"/><use xlink:href="#DejaVuSans-30" transform="translate(31.787)"/><use xlink:href="#DejaVuSans-39" transform="translate(95.41)"/></g></g><g id="ytick_11"><use xlink:href="#m1772108f73" id="line2d_27" x="429.545" y="122.941" style="stroke:#000;stroke-width:.8"/><g id="text_26" transform="matrix(.14 0 0 -.14 400.28 128.26)"><use xlink:href="#DejaVuSans-2e"/><use xlink:href="#DejaVuSans-31" transform="translate(31.787)"/><use xlink:href="#DejaVuSans-32" transform="translate(95.41)"/></g></g><g id="ytick_12"><use xlink:href="#m1772108f73" id="line2d_28" x="429.545" y="86.973" style="stroke:#000;stroke-width:.8"/><g id="text_27" transform="matrix(.14 0 0 -.14 400.28 92.292)"><defs><path id="DejaVuSans-35" d="M691 4666h2478v-532H1269V2991q137 47 274 70 138 23 276 23 781 0 1237-428 457-428 457-1159 0-753-469-1171Q2575-91 1722-91q-294 0-599 50Q819 9 494 109v635q281-153 581-228t634-75q541 0 856 284 316 284 316 772 0 487-316 771-315 285-856 285-253 0-505-56-251-56-513-175z" transform="scale(.01563)"/></defs><use xlink:href="#DejaVuSans-2e"/><use xlink:href="#DejaVuSans-31" transform="translate(31.787)"/><use xlink:href="#DejaVuSans-35" transform="translate(95.41)"/></g></g><g id="ytick_13"><use xlink:href="#m1772108f73" id="line2d_29" x="429.545" y="51.005" style="stroke:#000;stroke-width:.8"/><g id="text_28" transform="matrix(.14 0 0 -.14 400.28 56.324)"><use xlink:href="#DejaVuSans-2e"/><use xlink:href="#DejaVuSans-31" transform="translate(31.787)"/><use xlink:href="#DejaVuSans-38" transform="translate(95.41)"/></g></g><g id="text_29" transform="matrix(0 -.14 -.14 0 392.92 217.27)"><defs><path id="DejaVuSans-4b" d="M628 4666h631V2694l2094 1972h813L1850 2491 4331 0h-831L1259 2247V0H628z" transform="scale(.01563)"/><path id="DejaVuSans-4c" d="M628 4666h631V531h2272V0H628z" transform="scale(.01563)"/><path id="DejaVuSans-28" d="M1984 4856q-418-718-622-1422-203-703-203-1425 0-721 205-1429t620-1424h-500Q1016-109 783 600T550 2009q0 697 231 1403 232 707 703 1444z" transform="scale(.01563)"/><path id="DejaVuSans-Oblique-3c0" d="M584 3500h3354l-113-575h-441L2966 775q-44-225 15-325 57-97 228-97 47 0 116 10 72 6 94 9l-81-416q-116-40-235-59-122-19-237-19-375 0-478 203-104 207 3 757l406 2087H1506L938 0H350l569 2925H472z" transform="scale(.01563)"/><path id="DejaVuSans-Oblique-3b8" d="M2913 2219H925q-134-935 3-1331 172-488 638-488 468 0 825 491 312 431 522 1328m96 531q85 888-25 1200-171 494-631 494-478 0-828-488-275-393-491-1206zm-565 2163q750 0 1050-663 300-659 72-1828-225-1166-785-1828Q2225-72 1475-72 722-72 425 594q-297 662-72 1828 228 1169 781 1828 557 663 1310 663" transform="scale(.01563)"/><path id="DejaVuSans-7c" d="M1344 4891v-6400H813v6400z" transform="scale(.01563)"/><path id="DejaVuSans-68" d="M3513 2113V0h-575v2094q0 497-194 743-194 247-581 247-466 0-735-297-269-296-269-809V0H581v4863h578V2956q207 316 486 472 280 156 646 156 603 0 912-373 310-373 310-1098" transform="scale(.01563)"/><path id="DejaVuSans-29" d="M513 4856h500q468-737 701-1444 233-706 233-1403 0-700-233-1409T1013-844H513q415 716 620 1424t205 1429q0 722-205 1425-205 704-620 1422" transform="scale(.01563)"/></defs><use xlink:href="#DejaVuSans-4b" transform="translate(0 .578)"/><use xlink:href="#DejaVuSans-4c" transform="translate(65.576 .578)"/><use xlink:href="#DejaVuSans-28" transform="translate(121.29 .578)"/><use xlink:href="#DejaVuSans-Oblique-3c0" transform="translate(160.303 .578)"/><use xlink:href="#DejaVuSans-Oblique-3b8" transform="matrix(.7 0 0 .7 220.508 -15.828)"/><use xlink:href="#DejaVuSans-7c" transform="translate(297.856 .578)"/><use xlink:href="#DejaVuSans-7c" transform="translate(331.548 .578)"/><use xlink:href="#DejaVuSans-Oblique-3c0" transform="translate(397.026 .578)"/><use xlink:href="#DejaVuSans-74" transform="matrix(.7 0 0 .7 457.231 -15.828)"/><use xlink:href="#DejaVuSans-65" transform="matrix(.7 0 0 .7 484.678 -15.828)"/><use xlink:href="#DejaVuSans-61" transform="matrix(.7 0 0 .7 527.744 -15.828)"/><use xlink:href="#DejaVuSans-63" transform="matrix(.7 0 0 .7 570.64 -15.828)"/><use xlink:href="#DejaVuSans-68" transform="matrix(.7 0 0 .7 609.126 -15.828)"/><use xlink:href="#DejaVuSans-65" transform="matrix(.7 0 0 .7 653.491 -15.828)"/><use xlink:href="#DejaVuSans-72" transform="matrix(.7 0 0 .7 696.558 -15.828)"/><use xlink:href="#DejaVuSans-29" transform="translate(728.071 .578)"/></g></g><path id="line2d_30" d="M429.545 266.81h282.747" clip-path="url(#p1fa2e1536e)" style="fill:none;stroke-dasharray:7.4,3.2;stroke-dashoffset:0;stroke:#0066c0;stroke-opacity:.5;stroke-width:2"/><path id="line2d_31" d="m442.366 96.787 6.748 38.777 6.748 33.36 6.749 27.628 6.748 23.162 6.748 10.881 6.748 7.457 6.748 4.67 6.748 2.812 6.748 2.478 6.749 2.818 6.748.704 6.748 1.716 6.748 1.491 6.748.818 6.748.836 6.748.793 6.749.43 6.748.69 6.748.619 6.748.308 6.748.635 6.748.398 6.749.37 6.748.397 6.748.492 6.748.288 6.748.283 6.748.2" clip-path="url(#p1fa2e1536e)" style="fill:none;stroke:#169e78;stroke-width:3;stroke-linecap:square"/><path id="line2d_32" d="m442.366 150.975 6.748-24.947 6.748 31.438 6.749 6.54 6.748 29.817 6.748 13.015 6.748 2.02 6.748 5.123 6.748 10.784 6.748-3.587 6.749 5.259 6.748 4.373 6.748-4.003 6.748-9.178 6.748 5.933 6.748-1.858 6.748-3.595 6.749 3.476 6.748 8.082 6.748 1.058 6.748-.456 6.748.279 6.748 3.563 6.749 4.132 6.748.757 6.748 1.464 6.748 4.563 6.748-.06 6.748-2.724 6.748-2.285 6.749-2.948 6.748-.009 6.748.58 6.748-.593 6.748.24 6.748 4.562 6.748-1.262 6.749-.306 6.748.348" clip-path="url(#p1fa2e1536e)" style="fill:none;stroke:#99c44a;stroke-opacity:.3;stroke-width:3;stroke-linecap:square"/><path id="line2d_33" d="m442.366 60.208 6.748 53.014 6.748 42.279 6.749 34.104 6.748 25.214 6.748 11.064 6.748 4.378 6.748 1.725 6.748 1.03 6.748 1.72 6.749 3.473 6.748 1.71 6.748 2.684 6.748 2.6 6.748 1.143 6.748 1.183 6.748 1.82 6.749 1.536 6.748.954 6.748.957 6.748 1.069 6.748.697 6.748.684 6.749.989 6.748.953 6.748.664 6.748.567 6.748.442 6.748.458 6.748.522 6.749.488 6.748.45 6.748.361 6.748.197 6.748.172 6.748.265 6.748.306 6.749.21 6.748.17" clip-path="url(#p1fa2e1536e)" style="fill:none;stroke:#99c44a;stroke-width:3;stroke-linecap:square"/><path id="patch_8" d="M429.545 277.141V49.878" style="fill:none;stroke:#000;stroke-width:.8;stroke-linejoin:miter;stroke-linecap:square"/><path id="patch_9" d="M712.292 277.141V49.878" style="fill:none;stroke:#000;stroke-width:.8;stroke-linejoin:miter;stroke-linecap:square"/><path id="patch_10" d="M429.545 277.141h282.747" style="fill:none;stroke:#000;stroke-width:.8;stroke-linejoin:miter;stroke-linecap:square"/><path id="patch_11" d="M429.545 49.878h282.747" style="fill:none;stroke:#000;stroke-width:.8;stroke-linejoin:miter;stroke-linecap:square"/><g id="text_30" transform="matrix(.14 0 0 -.14 445.735 43.878)"><defs><path id="DejaVuSans-54" d="M-19 4666h3947v-532H2272V0h-634v4134H-19z" transform="scale(.01563)"/><path id="DejaVuSans-73" d="M2834 3397v-544q-243 125-506 187-262 63-544 63-428 0-642-131t-214-394q0-200 153-314t616-217l197-44q612-131 870-370t258-667q0-488-386-773Q2250-91 1575-91q-281 0-586 55T347 128v594q319-166 628-249 309-82 613-82 406 0 624 139 219 139 219 392 0 234-158 359-157 125-692 241l-200 47q-534 112-772 345-237 233-237 639 0 494 350 762 350 269 994 269 318 0 599-47 282-46 519-140" transform="scale(.01563)"/></defs><use xlink:href="#DejaVuSans-54"/><use xlink:href="#DejaVuSans-72" transform="translate(46.334)"/><use xlink:href="#DejaVuSans-61" transform="translate(87.447)"/><use xlink:href="#DejaVuSans-69" transform="translate(148.727)"/><use xlink:href="#DejaVuSans-6e" transform="translate(176.51)"/><use xlink:href="#DejaVuSans-69" transform="translate(239.889)"/><use xlink:href="#DejaVuSans-6e" transform="translate(267.672)"/><use xlink:href="#DejaVuSans-67" transform="translate(331.05)"/><use xlink:href="#DejaVuSans-65" transform="translate(426.314)"/><use xlink:href="#DejaVuSans-76" transform="translate(487.838)"/><use xlink:href="#DejaVuSans-61" transform="translate(547.018)"/><use xlink:href="#DejaVuSans-6c" transform="translate(608.297)"/><use xlink:href="#DejaVuSans-3a" transform="translate(636.08)"/><use xlink:href="#DejaVuSans-72" transform="translate(701.559)"/><use xlink:href="#DejaVuSans-65" transform="translate(740.422)"/><use xlink:href="#DejaVuSans-76" transform="translate(801.945)"/><use xlink:href="#DejaVuSans-65" transform="translate(861.125)"/><use xlink:href="#DejaVuSans-72" transform="translate(922.648)"/><use xlink:href="#DejaVuSans-73" transform="translate(963.762)"/><use xlink:href="#DejaVuSans-65" transform="translate(1015.861)"/><use xlink:href="#DejaVuSans-4b" transform="translate(1109.172)"/><use xlink:href="#DejaVuSans-4c" transform="translate(1174.748)"/><use xlink:href="#DejaVuSans-76" transform="translate(1262.248)"/><use xlink:href="#DejaVuSans-73" transform="translate(1321.428)"/><use xlink:href="#DejaVuSans-74" transform="translate(1405.314)"/><use xlink:href="#DejaVuSans-65" transform="translate(1444.523)"/><use xlink:href="#DejaVuSans-61" transform="translate(1506.047)"/><use xlink:href="#DejaVuSans-63" transform="translate(1567.326)"/><use xlink:href="#DejaVuSans-68" transform="translate(1622.307)"/><use xlink:href="#DejaVuSans-65" transform="translate(1685.686)"/><use xlink:href="#DejaVuSans-72" transform="translate(1747.209)"/></g><g id="legend_1"><path id="line2d_34" d="M506.665 65.596h24" style="fill:none;stroke:#0066c0;stroke-width:3;stroke-linecap:square"/><g id="text_31" transform="matrix(.12 0 0 -.12 540.265 69.796)"><defs><path id="DejaVuSans-52" d="M2841 2188q203-69 395-294t386-619L4263 0h-679l-596 1197q-232 469-449 622t-592 153h-688V0H628v4666h1425q800 0 1194-335 394-334 394-1009 0-441-205-732-205-290-595-402M1259 4147V2491h794q456 0 689 211t233 620-233 617-689 208z" transform="scale(.01563)"/><path id="DejaVuSans-6f" d="M1959 3097q-462 0-731-361t-269-989 267-989q268-361 733-361 460 0 728 362 269 363 269 988 0 622-269 986-268 364-728 364m0 487q750 0 1178-488 429-487 429-1349 0-859-429-1349Q2709-91 1959-91q-753 0-1180 489-426 490-426 1349 0 862 426 1349 427 488 1180 488" transform="scale(.01563)"/><path id="DejaVuSans-6b" d="M581 4863h578V1991l1716 1509h734L1753 1863 3688 0h-750L1159 1709V0H581z" transform="scale(.01563)"/></defs><use xlink:href="#DejaVuSans-52"/><use xlink:href="#DejaVuSans-4c" transform="translate(69.482)"/><use xlink:href="#DejaVuSans-28" transform="translate(156.982)"/><use xlink:href="#DejaVuSans-4c" transform="translate(195.996)"/><use xlink:href="#DejaVuSans-6f" transform="translate(249.959)"/><use xlink:href="#DejaVuSans-52" transform="translate(311.14)"/><use xlink:href="#DejaVuSans-41" transform="translate(376.623)"/><use xlink:href="#DejaVuSans-52" transform="translate(476.818)"/><use xlink:href="#DejaVuSans-61" transform="translate(544.05)"/><use xlink:href="#DejaVuSans-6e" transform="translate(605.33)"/><use xlink:href="#DejaVuSans-6b" transform="translate(668.709)"/><use xlink:href="#DejaVuSans-31" transform="translate(758.406)"/><use xlink:href="#DejaVuSans-32" transform="translate(822.03)"/><use xlink:href="#DejaVuSans-38" transform="translate(885.652)"/><use xlink:href="#DejaVuSans-29" transform="translate(949.275)"/></g><path id="line2d_35" d="M506.665 83.21h24" style="fill:none;stroke:#169e78;stroke-width:3;stroke-linecap:square"/><g id="text_32" transform="matrix(.12 0 0 -.12 540.265 87.41)"><defs><path id="DejaVuSans-44" d="M1259 4147V519h763q966 0 1414 437 448 438 448 1382 0 937-448 1373t-1414 436zm-631 519h1297q1356 0 1990-564 635-564 635-1764 0-1207-638-1773Q3275 0 1925 0H628z" transform="scale(.01563)"/><path id="DejaVuSans-2f" d="M1625 4666h531L531-594H0z" transform="scale(.01563)"/><path id="DejaVuSans-62" d="M3116 1747q0 634-261 995t-717 361q-457 0-718-361t-261-995 261-995 718-361q456 0 717 361t261 995M1159 2969q182 312 458 463 277 152 661 152 638 0 1036-506 399-506 399-1331T3314 415Q2916-91 2278-91q-384 0-661 152-276 152-458 464V0H581v4863h578z" transform="scale(.01563)"/></defs><use xlink:href="#DejaVuSans-44"/><use xlink:href="#DejaVuSans-69" transform="translate(77.002)"/><use xlink:href="#DejaVuSans-73" transform="translate(104.785)"/><use xlink:href="#DejaVuSans-74" transform="translate(156.885)"/><use xlink:href="#DejaVuSans-69" transform="translate(196.094)"/><use xlink:href="#DejaVuSans-6c" transform="translate(223.877)"/><use xlink:href="#DejaVuSans-6c" transform="translate(251.66)"/><use xlink:href="#DejaVuSans-28" transform="translate(311.23)"/><use xlink:href="#DejaVuSans-36" transform="translate(350.244)"/><use xlink:href="#DejaVuSans-34" transform="translate(413.867)"/><use xlink:href="#DejaVuSans-70" transform="translate(509.277)"/><use xlink:href="#DejaVuSans-72" transform="translate(572.754)"/><use xlink:href="#DejaVuSans-6f" transform="translate(611.617)"/><use xlink:href="#DejaVuSans-6d" transform="translate(672.799)"/><use xlink:href="#DejaVuSans-70" transform="translate(770.21)"/><use xlink:href="#DejaVuSans-74" transform="translate(833.688)"/><use xlink:href="#DejaVuSans-73" transform="translate(872.896)"/><use xlink:href="#DejaVuSans-2f" transform="translate(956.783)"/><use xlink:href="#DejaVuSans-62" transform="translate(1022.262)"/><use xlink:href="#DejaVuSans-61" transform="translate(1085.738)"/><use xlink:href="#DejaVuSans-74" transform="translate(1147.018)"/><use xlink:href="#DejaVuSans-63" transform="translate(1186.227)"/><use xlink:href="#DejaVuSans-68" transform="translate(1241.207)"/><use xlink:href="#DejaVuSans-29" transform="translate(1304.586)"/></g><path id="line2d_36" d="M506.665 100.824h24" style="fill:none;stroke:#99c44a;stroke-opacity:.3;stroke-width:3;stroke-linecap:square"/><g id="text_33" transform="matrix(.12 0 0 -.12 540.265 105.024)"><use xlink:href="#DejaVuSans-44"/><use xlink:href="#DejaVuSans-69" transform="translate(77.002)"/><use xlink:href="#DejaVuSans-73" transform="translate(104.785)"/><use xlink:href="#DejaVuSans-74" transform="translate(156.885)"/><use xlink:href="#DejaVuSans-69" transform="translate(196.094)"/><use xlink:href="#DejaVuSans-6c" transform="translate(223.877)"/><use xlink:href="#DejaVuSans-6c" transform="translate(251.66)"/><use xlink:href="#DejaVuSans-28" transform="translate(311.23)"/><use xlink:href="#DejaVuSans-31" transform="translate(350.244)"/><use xlink:href="#DejaVuSans-70" transform="translate(445.654)"/><use xlink:href="#DejaVuSans-72" transform="translate(509.13)"/><use xlink:href="#DejaVuSans-6f" transform="translate(547.994)"/><use xlink:href="#DejaVuSans-6d" transform="translate(609.176)"/><use xlink:href="#DejaVuSans-70" transform="translate(706.588)"/><use xlink:href="#DejaVuSans-74" transform="translate(770.064)"/><use xlink:href="#DejaVuSans-2f" transform="translate(841.06)"/><use xlink:href="#DejaVuSans-62" transform="translate(906.54)"/><use xlink:href="#DejaVuSans-61" transform="translate(970.016)"/><use xlink:href="#DejaVuSans-74" transform="translate(1031.295)"/><use xlink:href="#DejaVuSans-63" transform="translate(1070.504)"/><use xlink:href="#DejaVuSans-68" transform="translate(1125.484)"/><use xlink:href="#DejaVuSans-29" transform="translate(1188.863)"/></g><path id="line2d_37" d="M506.665 118.44h24" style="fill:none;stroke:#99c44a;stroke-width:3;stroke-linecap:square"/><g id="text_34" transform="matrix(.12 0 0 -.12 540.265 122.64)"><defs><path id="DejaVuSans-Bold-74" d="M1759 4494v-994h1154v-800H1759V1216q0-244 97-330t385-86h575V0h-960q-662 0-939 276-276 277-276 940v1484H84v800h557v994z" transform="scale(.01563)"/><path id="DejaVuSans-Bold-6f" d="M2203 2784q-372 0-567-267t-195-770 195-771q195-267 567-267 366 0 559 267 194 268 194 771t-194 770q-193 267-559 267m0 800q903 0 1411-488 508-487 508-1349 0-863-508-1351Q3106-91 2203-91q-906 0-1417 487-511 488-511 1351 0 862 511 1349 511 488 1417 488" transform="scale(.01563)"/><path id="DejaVuSans-Bold-61" d="M2106 1575q-350 0-527-119-176-118-176-350 0-212 142-333 143-120 396-120 315 0 531 226 216 227 216 568v128zm1710 422V0H2688v519q-225-319-507-465-281-145-684-145-544 0-883 317-339 318-339 824 0 616 423 903 424 288 1330 288h660v87q0 266-210 389-209 124-653 124-359 0-669-72-309-72-575-216v853q360 88 722 133 363 45 725 45 947 0 1367-373 421-373 421-1214" transform="scale(.01563)"/><path id="DejaVuSans-Bold-6c" d="M538 4863h1118V0H538z" transform="scale(.01563)"/></defs><use xlink:href="#DejaVuSans-44" transform="translate(0 .016)"/><use xlink:href="#DejaVuSans-69" transform="translate(77.002 .016)"/><use xlink:href="#DejaVuSans-73" transform="translate(104.785 .016)"/><use xlink:href="#DejaVuSans-74" transform="translate(156.885 .016)"/><use xlink:href="#DejaVuSans-69" transform="translate(196.094 .016)"/><use xlink:href="#DejaVuSans-6c" transform="translate(223.877 .016)"/><use xlink:href="#DejaVuSans-6c" transform="translate(251.66 .016)"/><use xlink:href="#DejaVuSans-28" transform="translate(311.23 .016)"/><use xlink:href="#DejaVuSans-31" transform="translate(350.244 .016)"/><use xlink:href="#DejaVuSans-70" transform="translate(445.654 .016)"/><use xlink:href="#DejaVuSans-72" transform="translate(509.13 .016)"/><use xlink:href="#DejaVuSans-6f" transform="translate(550.244 .016)"/><use xlink:href="#DejaVuSans-6d" transform="translate(611.426 .016)"/><use xlink:href="#DejaVuSans-70" transform="translate(708.838 .016)"/><use xlink:href="#DejaVuSans-74" transform="translate(772.314 .016)"/><use xlink:href="#DejaVuSans-Bold-74" transform="translate(843.31 .016)"/><use xlink:href="#DejaVuSans-Bold-6f" transform="translate(891.113 .016)"/><use xlink:href="#DejaVuSans-Bold-74" transform="translate(959.814 .016)"/><use xlink:href="#DejaVuSans-Bold-61" transform="translate(1007.617 .016)"/><use xlink:href="#DejaVuSans-Bold-6c" transform="translate(1075.098 .016)"/><use xlink:href="#DejaVuSans-29" transform="translate(1109.375 .016)"/></g></g></g><g id="text_35" transform="matrix(.14 0 0 -.14 81.417 17.838)"><defs><path id="DejaVuSans-2d" d="M313 2009h1684v-512H313z" transform="scale(.01563)"/><path id="DejaVuSans-64" d="M2906 2969v1894h575V0h-575v525q-181-312-458-464-276-152-664-152-634 0-1033 506-398 507-398 1332t398 1331q399 506 1033 506 388 0 664-152 277-151 458-463M947 1747q0-634 261-995t717-361 718 361q263 361 263 995t-263 995q-262 361-718 361t-717-361-261-995" transform="scale(.01563)"/><path id="DejaVuSans-66" d="M2375 4863v-479h-550q-309 0-430-125-120-125-120-450v-309h947v-447h-947V0H697v3053H147v447h550v244q0 584 272 851 272 268 862 268z" transform="scale(.01563)"/><path id="DejaVuSans-51" d="M2522 4238q-688 0-1093-513-404-512-404-1397 0-881 404-1394 405-512 1093-512 687 0 1089 512 402 513 402 1394 0 885-402 1397-402 513-1089 513M3406 84l832-909h-763L2784-78q-103-6-158-9-54-4-104-4-984 0-1574 658-589 658-589 1761 0 1106 589 1764 590 658 1574 658 981 0 1568-658 588-658 588-1764 0-812-327-1391-326-578-945-853" transform="scale(.01563)"/><path id="DejaVuSans-77" d="M269 3500h575l719-2731 715 2731h678l719-2731 716 2731h575L4050 0h-678l-753 2869L1863 0h-679z" transform="scale(.01563)"/><path id="DejaVuSans-42" d="M1259 2228V519h1013q509 0 754 211 246 211 246 645 0 438-246 645-245 208-754 208zm0 1919V2741h935q462 0 688 173 227 174 227 530 0 353-227 528-226 175-688 175zm-631 519h1613q722 0 1112-300 391-300 391-853 0-429-200-682t-588-315q466-100 724-418 258-317 258-792 0-625-425-966Q3088 0 2303 0H628z" transform="scale(.01563)"/></defs><use xlink:href="#DejaVuSans-44"/><use xlink:href="#DejaVuSans-61" transform="translate(77.002)"/><use xlink:href="#DejaVuSans-74" transform="translate(138.281)"/><use xlink:href="#DejaVuSans-61" transform="translate(177.49)"/><use xlink:href="#DejaVuSans-2d" transform="translate(238.77)"/><use xlink:href="#DejaVuSans-63" transform="translate(274.854)"/><use xlink:href="#DejaVuSans-6f" transform="translate(329.834)"/><use xlink:href="#DejaVuSans-6e" transform="translate(391.016)"/><use xlink:href="#DejaVuSans-73" transform="translate(454.395)"/><use xlink:href="#DejaVuSans-74" transform="translate(506.494)"/><use xlink:href="#DejaVuSans-72" transform="translate(545.703)"/><use xlink:href="#DejaVuSans-61" transform="translate(586.816)"/><use xlink:href="#DejaVuSans-69" transform="translate(648.096)"/><use xlink:href="#DejaVuSans-6e" transform="translate(675.879)"/><use xlink:href="#DejaVuSans-65" transform="translate(739.258)"/><use xlink:href="#DejaVuSans-64" transform="translate(800.781)"/><use xlink:href="#DejaVuSans-73" transform="translate(896.045)"/><use xlink:href="#DejaVuSans-65" transform="translate(948.145)"/><use xlink:href="#DejaVuSans-6c" transform="translate(1009.668)"/><use xlink:href="#DejaVuSans-66" transform="translate(1037.451)"/><use xlink:href="#DejaVuSans-2d" transform="translate(1067.156)"/><use xlink:href="#DejaVuSans-64" transform="translate(1103.24)"/><use xlink:href="#DejaVuSans-69" transform="translate(1166.717)"/><use xlink:href="#DejaVuSans-73" transform="translate(1194.5)"/><use xlink:href="#DejaVuSans-74" transform="translate(1246.6)"/><use xlink:href="#DejaVuSans-69" transform="translate(1285.809)"/><use xlink:href="#DejaVuSans-6c" transform="translate(1313.592)"/><use xlink:href="#DejaVuSans-6c" transform="translate(1341.375)"/><use xlink:href="#DejaVuSans-61" transform="translate(1369.158)"/><use xlink:href="#DejaVuSans-74" transform="translate(1430.438)"/><use xlink:href="#DejaVuSans-69" transform="translate(1469.646)"/><use xlink:href="#DejaVuSans-6f" transform="translate(1497.43)"/><use xlink:href="#DejaVuSans-6e" transform="translate(1558.611)"/><use xlink:href="#DejaVuSans-3a" transform="translate(1621.99)"/><use xlink:href="#DejaVuSans-51" transform="translate(1687.469)"/><use xlink:href="#DejaVuSans-77" transform="translate(1766.18)"/><use xlink:href="#DejaVuSans-65" transform="translate(1847.967)"/><use xlink:href="#DejaVuSans-6e" transform="translate(1909.49)"/><use xlink:href="#DejaVuSans-33" transform="translate(1972.87)"/><use xlink:href="#DejaVuSans-2d" transform="translate(2036.492)"/><use xlink:href="#DejaVuSans-38" transform="translate(2072.576)"/><use xlink:href="#DejaVuSans-42" transform="translate(2136.2)"/><use xlink:href="#DejaVuSans-2d" transform="translate(2204.803)"/><use xlink:href="#DejaVuSans-42" transform="translate(2237.262)"/><use xlink:href="#DejaVuSans-61" transform="translate(2305.865)"/><use xlink:href="#DejaVuSans-73" transform="translate(2367.145)"/><use xlink:href="#DejaVuSans-65" transform="translate(2419.244)"/><use xlink:href="#DejaVuSans-6f" transform="translate(2512.555)"/><use xlink:href="#DejaVuSans-6e" transform="translate(2573.736)"/><use xlink:href="#DejaVuSans-44" transform="translate(2668.902)"/><use xlink:href="#DejaVuSans-65" transform="translate(2745.904)"/><use xlink:href="#DejaVuSans-65" transform="translate(2807.428)"/><use xlink:href="#DejaVuSans-70" transform="translate(2868.951)"/><use xlink:href="#DejaVuSans-4d" transform="translate(2932.428)"/><use xlink:href="#DejaVuSans-61" transform="translate(3018.707)"/><use xlink:href="#DejaVuSans-74" transform="translate(3079.986)"/><use xlink:href="#DejaVuSans-68" transform="translate(3119.195)"/><use xlink:href="#DejaVuSans-77" transform="translate(3214.361)"/><use xlink:href="#DejaVuSans-69" transform="translate(3296.148)"/><use xlink:href="#DejaVuSans-74" transform="translate(3323.932)"/><use xlink:href="#DejaVuSans-68" transform="translate(3363.14)"/><use xlink:href="#DejaVuSans-6f" transform="translate(3458.307)"/><use xlink:href="#DejaVuSans-6e" transform="translate(3519.488)"/><use xlink:href="#DejaVuSans-65" transform="translate(3582.867)"/><use xlink:href="#DejaVuSans-70" transform="translate(3676.178)"/><use xlink:href="#DejaVuSans-72" transform="translate(3739.654)"/><use xlink:href="#DejaVuSans-6f" transform="translate(3778.518)"/><use xlink:href="#DejaVuSans-6d" transform="translate(3839.7)"/><use xlink:href="#DejaVuSans-70" transform="translate(3937.111)"/><use xlink:href="#DejaVuSans-74" transform="translate(4000.588)"/></g></g><defs><clipPath id="pe4017c60ed"><path d="M62.867 49.878h282.747v227.263H62.867z"/></clipPath><clipPath id="p1fa2e1536e"><path d="M429.545 49.878h282.747v227.263H429.545z"/></clipPath></defs></svg>