<svg xmlns="http://www.w3.org/2000/svg" xmlns:xlink="http://www.w3.org/1999/xlink" width="839.669" height="349.358" viewBox="0 0 629.752 262.019"><defs><style>*{stroke-linejoin:round;stroke-linecap:butt}</style></defs><g id="figure_1"><path id="patch_1" d="M0 262.019h629.752V0H0z" style="fill:#fff"/><g id="axes_1"><path id="patch_2" d="M62.867 216.72h155V50.4h-155z" style="fill:#fff"/><g id="PathCollection_1"><defs><path id="m9516c2ad2e" d="M0 3.873a3.873 3.873 0 1 0 0-7.746 3.873 3.873 0 0 0 0 7.746z" style="stroke:#0066c0"/></defs><g clip-path="url(#pdd1e976ca6)"><use xlink:href="#m9516c2ad2e" x="-1" y="166.495" style="fill:#0066c0;stroke:#0066c0"/><use xlink:href="#m9516c2ad2e" x="-.622" y="166.395" style="fill:#0066c0;stroke:#0066c0"/><use xlink:href="#m9516c2ad2e" x="29.601" y="150.885" style="fill:#0066c0;stroke:#0066c0"/><use xlink:href="#m9516c2ad2e" x="51.044" y="133.89" style="fill:#0066c0;stroke:#0066c0"/><use xlink:href="#m9516c2ad2e" x="67.677" y="124.815" style="fill:#0066c0;stroke:#0066c0"/><use xlink:href="#m9516c2ad2e" x="81.267" y="120.442" style="fill:#0066c0;stroke:#0066c0"/></g></g><g id="PathCollection_2"><defs><path id="m25b43aa4b4" d="M0 3.873a3.873 3.873 0 1 0 0-7.746 3.873 3.873 0 0 0 0 7.746z" style="stroke:#169e78"/></defs><g clip-path="url(#pdd1e976ca6)"><use xlink:href="#m25b43aa4b4" x="81.267" y="120.442" style="fill:#169e78;stroke:#169e78"/><use xlink:href="#m25b43aa4b4" x="109.601" y="75.645" style="fill:#169e78;stroke:#169e78"/></g></g><g id="matplotlib.axis_1"><g id="xtick_1"><g id="line2d_1"><defs><path id="m7f30fc5d7b" d="M0 0v3.5" style="stroke:#000;stroke-width:.8"/></defs><use xlink:href="#m7f30fc5d7b" x="81.267" y="216.72" style="stroke:#000;stroke-width:.8"/></g><g id="text_1" transform="matrix(.14 0 0 -.14 72.67 234.358)"><defs><path id="DejaVuSans-30" d="M2034 4250q-487 0-733-480-245-479-245-1442 0-959 245-1439 246-480 733-480 491 0 736 480 246 480 246 1439 0 963-246 1442-245 480-736 480m0 500q785 0 1199-621 414-620 414-1801 0-1178-414-1799Q2819-91 2034-91q-784 0-1198 620-414 621-414 1799 0 1181 414 1801 414 621 1198 621" transform="scale(.01563)"/><path id="DejaVuSans-78" d="M3513 3500 2247 1797 3578 0h-678L1881 1375 863 0H184l1360 1831L300 3500h678l928-1247 928 1247z" transform="scale(.01563)"/></defs><use xlink:href="#DejaVuSans-30"/><use xlink:href="#DejaVuSans-78" transform="translate(63.623)"/></g></g><g id="xtick_2"><use xlink:href="#m7f30fc5d7b" id="line2d_2" x="109.601" y="216.72" style="stroke:#000;stroke-width:.8"/><g id="text_2" transform="matrix(.14 0 0 -.14 101.004 234.358)"><defs><path id="DejaVuSans-31" d="M794 531h1031v3560L703 3866v575l1116 225h631V531h1031V0H794z" transform="scale(.01563)"/></defs><use xlink:href="#DejaVuSans-31"/><use xlink:href="#DejaVuSans-78" transform="translate(63.623)"/></g></g><g id="xtick_3"><use xlink:href="#m7f30fc5d7b" id="line2d_3" x="204.276" y="216.72" style="stroke:#000;stroke-width:.8"/><g id="text_3" transform="matrix(.14 0 0 -.14 189.001 234.358)"><defs><path id="DejaVuSans-39" d="M703 97v575q238-113 481-172 244-59 479-59 625 0 954 420 330 420 377 1277-181-269-460-413-278-144-615-144-700 0-1108 423-408 424-408 1159 0 718 425 1152 425 435 1131 435 810 0 1236-621 427-620 427-1801 0-1103-524-1761Q2575-91 1691-91q-238 0-482 47Q966 3 703 97m1256 1978q425 0 673 290 249 291 249 798 0 503-249 795-248 292-673 292t-673-292-248-795q0-507 248-798 248-290 673-290" transform="scale(.01563)"/><path id="DejaVuSans-2e" d="M684 794h660V0H684z" transform="scale(.01563)"/></defs><use xlink:href="#DejaVuSans-39"/><use xlink:href="#DejaVuSans-2e" transform="translate(63.623)"/><use xlink:href="#DejaVuSans-31" transform="translate(95.41)"/><use xlink:href="#DejaVuSans-78" transform="translate(159.033)"/></g></g><g id="text_4" transform="matrix(.14 0 0 -.14 53.76 251.907)"><defs><path id="DejaVuSans-41" d="m2188 4044-857-2322h1716zm-357 622h716L4325 0h-656l-425 1197H1141L716 0H50z" transform="scale(.01563)"/><path id="DejaVuSans-64" d="M2906 2969v1894h575V0h-575v525q-181-312-458-464-276-152-664-152-634 0-1033 506-398 507-398 1332t398 1331q399 506 1033 506 388 0 664-152 277-151 458-463M947 1747q0-634 261-995t717-361 718 361q263 361 263 995t-263 995q-262 361-718 361t-717-361-261-995" transform="scale(.01563)"/><path id="DejaVuSans-69" d="M603 3500h575V0H603zm0 1363h575v-729H603z" transform="scale(.01563)"/><path id="DejaVuSans-74" d="M1172 4494v-994h1184v-447H1172V1153q0-428 117-550t477-122h590V0h-590q-666 0-919 248-253 249-253 905v1900H172v447h422v994z" transform="scale(.01563)"/><path id="DejaVuSans-6f" d="M1959 3097q-462 0-731-361t-269-989 267-989q268-361 733-361 460 0 728 362 269 363 269 988 0 622-269 986-268 364-728 364m0 487q750 0 1178-488 429-487 429-1349 0-859-429-1349Q2709-91 1959-91q-753 0-1180 489-426 490-426 1349 0 862 426 1349 427 488 1180 488" transform="scale(.01563)"/><path id="DejaVuSans-6e" d="M3513 2113V0h-575v2094q0 497-194 743-194 247-581 247-466 0-735-297-269-296-269-809V0H581v3500h578v-544q207 316 486 472 280 156 646 156 603 0 912-373 310-373 310-1098" transform="scale(.01563)"/><path id="DejaVuSans-61" d="M2194 1759q-697 0-966-159t-269-544q0-306 202-486 202-179 548-179 479 0 768 339t289 901v128zm1147 238V0h-575v531q-197-318-491-470T1556-91q-537 0-855 302-317 302-317 808 0 590 395 890 396 300 1180 300h807v57q0 397-261 614t-733 217q-300 0-585-72-284-72-546-216v532q315 122 612 182 297 61 578 61 760 0 1135-394 375-393 375-1193" transform="scale(.01563)"/><path id="DejaVuSans-6c" d="M603 4863h575V0H603z" transform="scale(.01563)"/><path id="DejaVuSans-63" d="M3122 3366v-538q-244 135-489 202t-495 67q-560 0-870-355-309-354-309-995t309-996q310-354 870-354 250 0 495 67t489 202V134Q2881 22 2623-34q-257-57-548-57-791 0-1257 497-465 497-465 1341 0 856 470 1346 471 491 1290 491 265 0 518-55 253-54 491-163" transform="scale(.01563)"/><path id="DejaVuSans-6d" d="M3328 2828q216 388 516 572t706 184q547 0 844-383 297-382 297-1088V0h-578v2094q0 503-179 746-178 244-543 244-447 0-707-297-259-296-259-809V0h-578v2094q0 506-178 748t-550 242q-441 0-701-298-259-298-259-808V0H581v3500h578v-544q197 322 472 475t653 153q382 0 649-194 267-193 395-562" transform="scale(.01563)"/><path id="DejaVuSans-70" d="M1159 525v-1856H581v4831h578v-531q182 312 458 463 277 152 661 152 638 0 1036-506 399-506 399-1331T3314 415Q2916-91 2278-91q-384 0-661 152-276 152-458 464m1957 1222q0 634-261 995t-717 361q-457 0-718-361t-261-995 261-995 718-361q456 0 717 361t261 995" transform="scale(.01563)"/><path id="DejaVuSans-75" d="M544 1381v2119h575V1403q0-497 193-746 194-248 582-248 465 0 735 297 271 297 271 810v1984h575V0h-575v538q-209-319-486-474-276-155-642-155-603 0-916 375-312 375-312 1097m1447 2203" transform="scale(.01563)"/><path id="DejaVuSans-65" d="M3597 1894v-281H953q38-594 358-905t892-311q331 0 642 81t618 244V178Q3153 47 2828-22t-659-69q-838 0-1327 487-489 488-489 1320 0 859 464 1363 464 505 1252 505 706 0 1117-455 411-454 411-1235m-575 169q-6 471-264 752-258 282-683 282-481 0-770-272t-333-766z" transform="scale(.01563)"/><path id="DejaVuSans-28" d="M1984 4856q-418-718-622-1422-203-703-203-1425 0-721 205-1429t620-1424h-500Q1016-109 783 600T550 2009q0 697 231 1403 232 707 703 1444z" transform="scale(.01563)"/><path id="DejaVuSans-67" d="M2906 1791q0 625-258 968-257 344-723 344-462 0-720-344-258-343-258-968 0-622 258-966t720-344q466 0 723 344 258 344 258 966m575-1357q0-893-397-1329-396-436-1215-436-303 0-572 45t-522 139v559q253-137 500-202 247-66 503-66 566 0 847 295t281 892v285q-178-310-456-463T1784 0Q1141 0 747 490 353 981 353 1791q0 812 394 1302 394 491 1037 491 388 0 666-153t456-462v531h575z" transform="scale(.01563)"/><path id="DejaVuSans-29" d="M513 4856h500q468-737 701-1444 233-706 233-1403 0-700-233-1409T1013-844H513q415 716 620 1424t205 1429q0 722-205 1425-205 704-620 1422" transform="scale(.01563)"/></defs><use xlink:href="#DejaVuSans-41"/><use xlink:href="#DejaVuSans-64" transform="translate(66.658)"/><use xlink:href="#DejaVuSans-64" transform="translate(130.135)"/><use xlink:href="#DejaVuSans-69" transform="translate(193.611)"/><use xlink:href="#DejaVuSans-74" transform="translate(221.395)"/><use xlink:href="#DejaVuSans-69" transform="translate(260.604)"/><use xlink:href="#DejaVuSans-6f" transform="translate(288.387)"/><use xlink:href="#DejaVuSans-6e" transform="translate(349.568)"/><use xlink:href="#DejaVuSans-61" transform="translate(412.947)"/><use xlink:href="#DejaVuSans-6c" transform="translate(474.227)"/><use xlink:href="#DejaVuSans-63" transform="translate(533.797)"/><use xlink:href="#DejaVuSans-6f" transform="translate(588.777)"/><use xlink:href="#DejaVuSans-6d" transform="translate(649.959)"/><use xlink:href="#DejaVuSans-70" transform="translate(747.371)"/><use xlink:href="#DejaVuSans-75" transform="translate(810.848)"/><use xlink:href="#DejaVuSans-74" transform="translate(874.227)"/><use xlink:href="#DejaVuSans-65" transform="translate(913.436)"/><use xlink:href="#DejaVuSans-28" transform="translate(1006.746)"/><use xlink:href="#DejaVuSans-6c" transform="translate(1045.76)"/><use xlink:href="#DejaVuSans-6f" transform="translate(1073.543)"/><use xlink:href="#DejaVuSans-67" transform="translate(1134.725)"/><use xlink:href="#DejaVuSans-29" transform="translate(1198.201)"/></g></g><g id="matplotlib.axis_2"><g id="ytick_1"><g id="line2d_4"><defs><path id="ma49aa60f79" d="M0 0h-3.5" style="stroke:#000;stroke-width:.8"/></defs><use xlink:href="#ma49aa60f79" x="62.867" y="216.72" style="stroke:#000;stroke-width:.8"/></g><g id="text_5" transform="matrix(.14 0 0 -.14 24.75 222.039)"><defs><path id="DejaVuSans-34" d="M2419 4116 825 1625h1594zm-166 550h794V1625h666v-525h-666V0h-628v1100H313v609z" transform="scale(.01563)"/><path id="DejaVuSans-25" d="M4653 2053q-272 0-427-231-154-231-154-644 0-406 154-639 155-233 427-233 266 0 420 233 155 233 155 639 0 410-155 642-154 233-420 233m0 397q494 0 784-344 291-343 291-928 0-584-292-927-292-342-783-342-500 0-791 342-290 343-290 927 0 588 292 930t789 342M1428 4353q-269 0-424-233-154-232-154-639 0-412 153-644 153-231 425-231t426 231q155 232 155 644 0 403-156 637-156 235-425 235m2822 397h500L1831-91h-500zm-2822 0q494 0 787-342 294-342 294-927 0-590-292-931t-789-341-786 342q-289 343-289 930 0 582 290 925 291 344 785 344" transform="scale(.01563)"/></defs><use xlink:href="#DejaVuSans-34"/><use xlink:href="#DejaVuSans-30" transform="translate(63.623)"/><use xlink:href="#DejaVuSans-25" transform="translate(127.246)"/></g></g><g id="ytick_2"><use xlink:href="#ma49aa60f79" id="line2d_5" x="62.867" y="192.96" style="stroke:#000;stroke-width:.8"/><g id="text_6" transform="matrix(.14 0 0 -.14 24.75 198.279)"><defs><path id="DejaVuSans-35" d="M691 4666h2478v-532H1269V2991q137 47 274 70 138 23 276 23 781 0 1237-428 457-428 457-1159 0-753-469-1171Q2575-91 1722-91q-294 0-599 50Q819 9 494 109v635q281-153 581-228t634-75q541 0 856 284 316 284 316 772 0 487-316 771-315 285-856 285-253 0-505-56-251-56-513-175z" transform="scale(.01563)"/></defs><use xlink:href="#DejaVuSans-34"/><use xlink:href="#DejaVuSans-35" transform="translate(63.623)"/><use xlink:href="#DejaVuSans-25" transform="translate(127.246)"/></g></g><g id="ytick_3"><use xlink:href="#ma49aa60f79" id="line2d_6" x="62.867" y="169.2" style="stroke:#000;stroke-width:.8"/><g id="text_7" transform="matrix(.14 0 0 -.14 24.75 174.519)"><use xlink:href="#DejaVuSans-35"/><use xlink:href="#DejaVuSans-30" transform="translate(63.623)"/><use xlink:href="#DejaVuSans-25" transform="translate(127.246)"/></g></g><g id="ytick_4"><use xlink:href="#ma49aa60f79" id="line2d_7" x="62.867" y="145.44" style="stroke:#000;stroke-width:.8"/><g id="text_8" transform="matrix(.14 0 0 -.14 24.75 150.759)"><use xlink:href="#DejaVuSans-35"/><use xlink:href="#DejaVuSans-35" transform="translate(63.623)"/><use xlink:href="#DejaVuSans-25" transform="translate(127.246)"/></g></g><g id="ytick_5"><use xlink:href="#ma49aa60f79" id="line2d_8" x="62.867" y="121.68" style="stroke:#000;stroke-width:.8"/><g id="text_9" transform="matrix(.14 0 0 -.14 24.75 126.999)"><defs><path id="DejaVuSans-36" d="M2113 2584q-425 0-674-291-248-290-248-796 0-503 248-796 249-292 674-292t673 292q248 293 248 796 0 506-248 796-248 291-673 291m1253 1979v-575q-238 112-480 171-242 60-480 60-625 0-955-422-329-422-376-1275 184 272 462 417 279 145 613 145 703 0 1111-427 408-426 408-1160 0-719-425-1154Q2819-91 2113-91q-810 0-1238 620-428 621-428 1799 0 1106 525 1764t1409 658q238 0 480-47t505-140" transform="scale(.01563)"/></defs><use xlink:href="#DejaVuSans-36"/><use xlink:href="#DejaVuSans-30" transform="translate(63.623)"/><use xlink:href="#DejaVuSans-25" transform="translate(127.246)"/></g></g><g id="ytick_6"><use xlink:href="#ma49aa60f79" id="line2d_9" x="62.867" y="97.92" style="stroke:#000;stroke-width:.8"/><g id="text_10" transform="matrix(.14 0 0 -.14 24.75 103.239)"><use xlink:href="#DejaVuSans-36"/><use xlink:href="#DejaVuSans-35" transform="translate(63.623)"/><use xlink:href="#DejaVuSans-25" transform="translate(127.246)"/></g></g><g id="ytick_7"><use xlink:href="#ma49aa60f79" id="line2d_10" x="62.867" y="74.16" style="stroke:#000;stroke-width:.8"/><g id="text_11" transform="matrix(.14 0 0 -.14 24.75 79.479)"><defs><path id="DejaVuSans-37" d="M525 4666h3000v-269L1831 0h-659l1594 4134H525z" transform="scale(.01563)"/></defs><use xlink:href="#DejaVuSans-37"/><use xlink:href="#DejaVuSans-30" transform="translate(63.623)"/><use xlink:href="#DejaVuSans-25" transform="translate(127.246)"/></g></g><g id="ytick_8"><use xlink:href="#ma49aa60f79" id="line2d_11" x="62.867" y="50.4" style="stroke:#000;stroke-width:.8"/><g id="text_12" transform="matrix(.14 0 0 -.14 24.75 55.719)"><use xlink:href="#DejaVuSans-37"/><use xlink:href="#DejaVuSans-35" transform="translate(63.623)"/><use xlink:href="#DejaVuSans-25" transform="translate(127.246)"/></g></g><g id="text_13" transform="matrix(0 -.14 -.14 0 17.838 161.708)"><defs><path id="DejaVuSans-49" d="M628 4666h631V0H628z" transform="scale(.01563)"/><path id="DejaVuSans-4d" d="M628 4666h941l1190-3175 1197 3175h941V0h-616v4097L3078 897h-634L1241 4097V0H628z" transform="scale(.01563)"/><path id="DejaVuSans-45" d="M628 4666h2950v-532H1259V2753h2222v-531H1259V531h2375V0H628z" transform="scale(.01563)"/><path id="DejaVuSans-27" d="M1147 4666V2931H616v1735z" transform="scale(.01563)"/><path id="DejaVuSans-32" d="M1228 531h2203V0H469v531q359 372 979 998 621 627 780 809 303 340 423 576 121 236 121 464 0 372-261 606-261 235-680 235-297 0-627-103-329-103-704-313v638q381 153 712 231 332 78 607 78 725 0 1156-363 431-362 431-968 0-288-108-546-107-257-392-607-78-91-497-524-418-433-1181-1211" transform="scale(.01563)"/></defs><use xlink:href="#DejaVuSans-41"/><use xlink:href="#DejaVuSans-49" transform="translate(68.408)"/><use xlink:href="#DejaVuSans-4d" transform="translate(97.9)"/><use xlink:href="#DejaVuSans-45" transform="translate(184.18)"/><use xlink:href="#DejaVuSans-27" transform="translate(247.363)"/><use xlink:href="#DejaVuSans-32" transform="translate(274.854)"/><use xlink:href="#DejaVuSans-34" transform="translate(338.477)"/></g></g><path id="line2d_12" d="m-1 166.495.378-.1 30.223-15.51 21.443-16.995 16.633-9.075 13.59-4.373" clip-path="url(#pdd1e976ca6)" style="fill:none;stroke:#0066c0;stroke-width:3;stroke-linecap:square"/><path id="line2d_13" d="M-1 160.55 217.867 56.578" clip-path="url(#pdd1e976ca6)" style="fill:none;stroke-dasharray:11.1,4.8;stroke-dashoffset:0;stroke:#0066c0;stroke-width:3"/><path id="line2d_14" d="m81.267 120.443 5.535-28.463 5.152-4.455 4.818-1.485 4.526-.99 4.267-4.455 4.036-4.95" clip-path="url(#pdd1e976ca6)" style="fill:none;stroke:#169e78;stroke-width:3;stroke-linecap:square"/><path id="patch_3" d="M62.867 216.72V50.4" style="fill:none;stroke:#000;stroke-width:.8;stroke-linejoin:miter;stroke-linecap:square"/><path id="patch_4" d="M217.867 216.72V50.4" style="fill:none;stroke:#000;stroke-width:.8;stroke-linejoin:miter;stroke-linecap:square"/><path id="patch_5" d="M62.867 216.72h155" style="fill:none;stroke:#000;stroke-width:.8;stroke-linejoin:miter;stroke-linecap:square"/><path id="patch_6" d="M62.867 50.4h155" style="fill:none;stroke:#000;stroke-width:.8;stroke-linejoin:miter;stroke-linecap:square"/><g id="text_14" transform="matrix(.14 0 0 -.14 90.581 44.4)"><defs><path id="DejaVuSans-46" d="M628 4666h2681v-532H1259V2759h1850v-531H1259V0H628z" transform="scale(.01563)"/><path id="DejaVuSans-66" d="M2375 4863v-479h-550q-309 0-430-125-120-125-120-450v-309h947v-447h-947V0H697v3053H147v447h550v244q0 584 272 851 272 268 862 268z" transform="scale(.01563)"/></defs><use xlink:href="#DejaVuSans-46"/><use xlink:href="#DejaVuSans-75" transform="translate(52.02)"/><use xlink:href="#DejaVuSans-6c" transform="translate(115.398)"/><use xlink:href="#DejaVuSans-6c" transform="translate(143.182)"/><use xlink:href="#DejaVuSans-66" transform="translate(202.752)"/><use xlink:href="#DejaVuSans-69" transform="translate(237.957)"/><use xlink:href="#DejaVuSans-6e" transform="translate(265.74)"/><use xlink:href="#DejaVuSans-65" transform="translate(329.12)"/><use xlink:href="#DejaVuSans-74" transform="translate(390.643)"/><use xlink:href="#DejaVuSans-75" transform="translate(429.852)"/><use xlink:href="#DejaVuSans-6e" transform="translate(493.23)"/><use xlink:href="#DejaVuSans-69" transform="translate(556.61)"/><use xlink:href="#DejaVuSans-6e" transform="translate(584.393)"/><use xlink:href="#DejaVuSans-67" transform="translate(647.771)"/></g><g id="legend_1"><use xlink:href="#m9516c2ad2e" id="PathCollection_3" x="83.767" y="153.207" style="fill:#0066c0;stroke:#0066c0"/><g id="text_15" transform="matrix(.11 0 0 -.11 103.567 156.095)"><use xlink:href="#DejaVuSans-46"/><use xlink:href="#DejaVuSans-75" transform="translate(52.02)"/><use xlink:href="#DejaVuSans-6c" transform="translate(115.398)"/><use xlink:href="#DejaVuSans-6c" transform="translate(143.182)"/><use xlink:href="#DejaVuSans-66" transform="translate(202.752)"/><use xlink:href="#DejaVuSans-69" transform="translate(237.957)"/><use xlink:href="#DejaVuSans-6e" transform="translate(265.74)"/><use xlink:href="#DejaVuSans-65" transform="translate(329.12)"/><use xlink:href="#DejaVuSans-74" transform="translate(390.643)"/><use xlink:href="#DejaVuSans-75" transform="translate(429.852)"/><use xlink:href="#DejaVuSans-6e" transform="translate(493.23)"/><use xlink:href="#DejaVuSans-69" transform="translate(556.61)"/><use xlink:href="#DejaVuSans-6e" transform="translate(584.393)"/><use xlink:href="#DejaVuSans-67" transform="translate(647.771)"/></g><path id="line2d_15" d="M72.767 168.39h22" style="fill:none;stroke:#0066c0;stroke-width:3;stroke-linecap:square"/><g id="text_16" transform="matrix(.11 0 0 -.11 103.567 172.24)"><defs><path id="DejaVuSans-53" d="M3425 4513v-616q-359 172-678 256-319 85-616 85-515 0-795-200t-280-569q0-310 186-468 186-157 705-254l381-78q706-135 1042-474t336-907q0-679-455-1029Q2797-91 1919-91q-331 0-705 75-373 75-773 222v650q384-215 753-325 369-109 725-109 540 0 834 212 294 213 294 607 0 343-211 537t-692 291l-385 75q-706 140-1022 440-315 300-315 835 0 619 436 975t1201 356q329 0 669-60 341-59 697-177" transform="scale(.01563)"/><path id="DejaVuSans-54" d="M-19 4666h3947v-532H2272V0h-634v4134H-19z" transform="scale(.01563)"/></defs><use xlink:href="#DejaVuSans-53"/><use xlink:href="#DejaVuSans-46" transform="translate(63.477)"/><use xlink:href="#DejaVuSans-54" transform="translate(119.246)"/></g><path id="line2d_16" d="M72.767 184.536h22" style="fill:none;stroke-dasharray:11.1,4.8;stroke-dashoffset:0;stroke:#0066c0;stroke-width:3"/><g id="text_17" transform="matrix(.11 0 0 -.11 103.567 188.386)"><defs><path id="DejaVuSans-3a" d="M750 794h659V0H750zm0 2515h659v-793H750z" transform="scale(.01563)"/><path id="DejaVuSans-72" d="M2631 2963q-97 56-211 82-114 27-251 27-488 0-749-317t-261-911V0H581v3500h578v-544q182 319 472 473 291 155 707 155 59 0 131-8 72-7 159-23z" transform="scale(.01563)"/></defs><use xlink:href="#DejaVuSans-53"/><use xlink:href="#DejaVuSans-46" transform="translate(63.477)"/><use xlink:href="#DejaVuSans-54" transform="translate(119.246)"/><use xlink:href="#DejaVuSans-3a" transform="translate(169.33)"/><use xlink:href="#DejaVuSans-65" transform="translate(234.809)"/><use xlink:href="#DejaVuSans-78" transform="translate(294.582)"/><use xlink:href="#DejaVuSans-74" transform="translate(353.762)"/><use xlink:href="#DejaVuSans-72" transform="translate(392.97)"/><use xlink:href="#DejaVuSans-61" transform="translate(434.084)"/><use xlink:href="#DejaVuSans-70" transform="translate(495.363)"/><use xlink:href="#DejaVuSans-6f" transform="translate(558.84)"/><use xlink:href="#DejaVuSans-6c" transform="translate(620.021)"/><use xlink:href="#DejaVuSans-61" transform="translate(647.805)"/><use xlink:href="#DejaVuSans-74" transform="translate(709.084)"/><use xlink:href="#DejaVuSans-69" transform="translate(748.293)"/><use xlink:href="#DejaVuSans-6f" transform="translate(776.076)"/><use xlink:href="#DejaVuSans-6e" transform="translate(837.258)"/></g><path id="line2d_17" d="M72.767 200.682h22" style="fill:none;stroke:#169e78;stroke-width:3;stroke-linecap:square"/><g id="text_18" transform="matrix(.11 0 0 -.11 103.567 204.532)"><defs><path id="DejaVuSans-4f" d="M2522 4238q-688 0-1093-513-404-512-404-1397 0-881 404-1394 405-512 1093-512 687 0 1089 512 402 513 402 1394 0 885-402 1397-402 513-1089 513m0 512q981 0 1568-658 588-658 588-1764 0-1103-588-1761Q3503-91 2522-91q-984 0-1574 656-589 657-589 1763t589 1764q590 658 1574 658" transform="scale(.01563)"/><path id="DejaVuSans-2d" d="M313 2009h1684v-512H313z" transform="scale(.01563)"/><path id="DejaVuSans-79" d="M2059-325q-243-625-475-815-231-191-618-191H506v481h338q237 0 368 113 132 112 291 531l103 262L191 3500h609L1894 763l1094 2737h609z" transform="scale(.01563)"/><path id="DejaVuSans-73" d="M2834 3397v-544q-243 125-506 187-262 63-544 63-428 0-642-131t-214-394q0-200 153-314t616-217l197-44q612-131 870-370t258-667q0-488-386-773Q2250-91 1575-91q-281 0-586 55T347 128v594q319-166 628-249 309-82 613-82 406 0 624 139 219 139 219 392 0 234-158 359-157 125-692 241l-200 47q-534 112-772 345-237 233-237 639 0 494 350 762 350 269 994 269 318 0 599-47 282-46 519-140" transform="scale(.01563)"/></defs><use xlink:href="#DejaVuSans-4f"/><use xlink:href="#DejaVuSans-6e" transform="translate(78.71)"/><use xlink:href="#DejaVuSans-2d" transform="translate(142.09)"/><use xlink:href="#DejaVuSans-70" transform="translate(178.174)"/><use xlink:href="#DejaVuSans-6f" transform="translate(241.65)"/><use xlink:href="#DejaVuSans-6c" transform="translate(302.832)"/><use xlink:href="#DejaVuSans-69" transform="translate(330.615)"/><use xlink:href="#DejaVuSans-63" transform="translate(358.398)"/><use xlink:href="#DejaVuSans-79" transform="translate(413.379)"/><use xlink:href="#DejaVuSans-64" transform="translate(504.346)"/><use xlink:href="#DejaVuSans-69" transform="translate(567.822)"/><use xlink:href="#DejaVuSans-73" transform="translate(595.605)"/><use xlink:href="#DejaVuSans-74" transform="translate(647.705)"/><use xlink:href="#DejaVuSans-69" transform="translate(686.914)"/><use xlink:href="#DejaVuSans-6c" transform="translate(714.697)"/><use xlink:href="#DejaVuSans-6c" transform="translate(742.48)"/></g></g></g><g id="axes_2"><path id="patch_7" d="M264.367 216.72h155V50.4h-155z" style="fill:#fff"/><g id="PathCollection_4"><defs><path id="m12b84332d9" d="M0 3.873a3.873 3.873 0 1 0 0-7.746 3.873 3.873 0 0 0 0 7.746z" style="stroke:#0066c0;stroke-opacity:.6"/></defs><g clip-path="url(#p043a0ff7ed)"><use xlink:href="#m12b84332d9" x="149.211" y="200.88" style="fill:#0066c0;fill-opacity:.6;stroke:#0066c0;stroke-opacity:.6"/><use xlink:href="#m12b84332d9" x="200.878" y="185.04" style="fill:#0066c0;fill-opacity:.6;stroke:#0066c0;stroke-opacity:.6"/><use xlink:href="#m12b84332d9" x="231.101" y="171.84" style="fill:#0066c0;fill-opacity:.6;stroke:#0066c0;stroke-opacity:.6"/><use xlink:href="#m12b84332d9" x="252.544" y="158.805" style="fill:#0066c0;fill-opacity:.6;stroke:#0066c0;stroke-opacity:.6"/><use xlink:href="#m12b84332d9" x="269.177" y="153.03" style="fill:#0066c0;fill-opacity:.6;stroke:#0066c0;stroke-opacity:.6"/><use xlink:href="#m12b84332d9" x="282.767" y="148.905" style="fill:#0066c0;fill-opacity:.6;stroke:#0066c0;stroke-opacity:.6"/></g></g><g id="PathCollection_5" clip-path="url(#p043a0ff7ed)"><use xlink:href="#m25b43aa4b4" x="282.767" y="148.905" style="fill:#169e78;stroke:#169e78"/><use xlink:href="#m25b43aa4b4" x="311.101" y="102.375" style="fill:#169e78;stroke:#169e78"/></g><g id="matplotlib.axis_3"><g id="xtick_4"><use xlink:href="#m7f30fc5d7b" id="line2d_18" x="282.767" y="216.72" style="stroke:#000;stroke-width:.8"/><g id="text_19" transform="matrix(.14 0 0 -.14 274.17 234.358)"><use xlink:href="#DejaVuSans-30"/><use xlink:href="#DejaVuSans-78" transform="translate(63.623)"/></g></g><g id="xtick_5"><use xlink:href="#m7f30fc5d7b" id="line2d_19" x="311.101" y="216.72" style="stroke:#000;stroke-width:.8"/><g id="text_20" transform="matrix(.14 0 0 -.14 302.504 234.358)"><use xlink:href="#DejaVuSans-31"/><use xlink:href="#DejaVuSans-78" transform="translate(63.623)"/></g></g><g id="xtick_6"><use xlink:href="#m7f30fc5d7b" id="line2d_20" x="405.776" y="216.72" style="stroke:#000;stroke-width:.8"/><g id="text_21" transform="matrix(.14 0 0 -.14 390.501 234.358)"><use xlink:href="#DejaVuSans-39"/><use xlink:href="#DejaVuSans-2e" transform="translate(63.623)"/><use xlink:href="#DejaVuSans-31" transform="translate(95.41)"/><use xlink:href="#DejaVuSans-78" transform="translate(159.033)"/></g></g><g id="text_22" transform="matrix(.14 0 0 -.14 255.26 251.907)"><use xlink:href="#DejaVuSans-41"/><use xlink:href="#DejaVuSans-64" transform="translate(66.658)"/><use xlink:href="#DejaVuSans-64" transform="translate(130.135)"/><use xlink:href="#DejaVuSans-69" transform="translate(193.611)"/><use xlink:href="#DejaVuSans-74" transform="translate(221.395)"/><use xlink:href="#DejaVuSans-69" transform="translate(260.604)"/><use xlink:href="#DejaVuSans-6f" transform="translate(288.387)"/><use xlink:href="#DejaVuSans-6e" transform="translate(349.568)"/><use xlink:href="#DejaVuSans-61" transform="translate(412.947)"/><use xlink:href="#DejaVuSans-6c" transform="translate(474.227)"/><use xlink:href="#DejaVuSans-63" transform="translate(533.797)"/><use xlink:href="#DejaVuSans-6f" transform="translate(588.777)"/><use xlink:href="#DejaVuSans-6d" transform="translate(649.959)"/><use xlink:href="#DejaVuSans-70" transform="translate(747.371)"/><use xlink:href="#DejaVuSans-75" transform="translate(810.848)"/><use xlink:href="#DejaVuSans-74" transform="translate(874.227)"/><use xlink:href="#DejaVuSans-65" transform="translate(913.436)"/><use xlink:href="#DejaVuSans-28" transform="translate(1006.746)"/><use xlink:href="#DejaVuSans-6c" transform="translate(1045.76)"/><use xlink:href="#DejaVuSans-6f" transform="translate(1073.543)"/><use xlink:href="#DejaVuSans-67" transform="translate(1134.725)"/><use xlink:href="#DejaVuSans-29" transform="translate(1198.201)"/></g></g><g id="matplotlib.axis_4"><g id="ytick_9"><use xlink:href="#ma49aa60f79" id="line2d_21" x="264.367" y="216.72" style="stroke:#000;stroke-width:.8"/><g id="text_23" transform="matrix(.14 0 0 -.14 226.25 222.039)"><use xlink:href="#DejaVuSans-34"/><use xlink:href="#DejaVuSans-30" transform="translate(63.623)"/><use xlink:href="#DejaVuSans-25" transform="translate(127.246)"/></g></g><g id="ytick_10"><use xlink:href="#ma49aa60f79" id="line2d_22" x="264.367" y="192.96" style="stroke:#000;stroke-width:.8"/><g id="text_24" transform="matrix(.14 0 0 -.14 226.25 198.279)"><use xlink:href="#DejaVuSans-34"/><use xlink:href="#DejaVuSans-35" transform="translate(63.623)"/><use xlink:href="#DejaVuSans-25" transform="translate(127.246)"/></g></g><g id="ytick_11"><use xlink:href="#ma49aa60f79" id="line2d_23" x="264.367" y="169.2" style="stroke:#000;stroke-width:.8"/><g id="text_25" transform="matrix(.14 0 0 -.14 226.25 174.519)"><use xlink:href="#DejaVuSans-35"/><use xlink:href="#DejaVuSans-30" transform="translate(63.623)"/><use xlink:href="#DejaVuSans-25" transform="translate(127.246)"/></g></g><g id="ytick_12"><use xlink:href="#ma49aa60f79" id="line2d_24" x="264.367" y="145.44" style="stroke:#000;stroke-width:.8"/><g id="text_26" transform="matrix(.14 0 0 -.14 226.25 150.759)"><use xlink:href="#DejaVuSans-35"/><use xlink:href="#DejaVuSans-35" transform="translate(63.623)"/><use xlink:href="#DejaVuSans-25" transform="translate(127.246)"/></g></g><g id="ytick_13"><use xlink:href="#ma49aa60f79" id="line2d_25" x="264.367" y="121.68" style="stroke:#000;stroke-width:.8"/><g id="text_27" transform="matrix(.14 0 0 -.14 226.25 126.999)"><use xlink:href="#DejaVuSans-36"/><use xlink:href="#DejaVuSans-30" transform="translate(63.623)"/><use xlink:href="#DejaVuSans-25" transform="translate(127.246)"/></g></g><g id="ytick_14"><use xlink:href="#ma49aa60f79" id="line2d_26" x="264.367" y="97.92" style="stroke:#000;stroke-width:.8"/><g id="text_28" transform="matrix(.14 0 0 -.14 226.25 103.239)"><use xlink:href="#DejaVuSans-36"/><use xlink:href="#DejaVuSans-35" transform="translate(63.623)"/><use xlink:href="#DejaVuSans-25" transform="translate(127.246)"/></g></g><g id="ytick_15"><use xlink:href="#ma49aa60f79" id="line2d_27" x="264.367" y="74.16" style="stroke:#000;stroke-width:.8"/><g id="text_29" transform="matrix(.14 0 0 -.14 226.25 79.479)"><use xlink:href="#DejaVuSans-37"/><use xlink:href="#DejaVuSans-30" transform="translate(63.623)"/><use xlink:href="#DejaVuSans-25" transform="translate(127.246)"/></g></g><g id="ytick_16"><use xlink:href="#ma49aa60f79" id="line2d_28" x="264.367" y="50.4" style="stroke:#000;stroke-width:.8"/><g id="text_30" transform="matrix(.14 0 0 -.14 226.25 55.719)"><use xlink:href="#DejaVuSans-37"/><use xlink:href="#DejaVuSans-35" transform="translate(63.623)"/><use xlink:href="#DejaVuSans-25" transform="translate(127.246)"/></g></g></g><path id="line2d_29" d="m149.21 200.88 51.668-15.84 30.223-13.2 21.443-13.035 16.633-5.775 13.59-4.125" clip-path="url(#p043a0ff7ed)" style="fill:none;stroke:#0066c0;stroke-opacity:.6;stroke-width:3;stroke-linecap:square"/><path id="line2d_30" d="M130.81 210.464 419.367 93.141" clip-path="url(#p043a0ff7ed)" style="fill:none;stroke-dasharray:11.1,4.8;stroke-dashoffset:0;stroke:#0066c0;stroke-opacity:.6;stroke-width:3"/><path id="line2d_31" d="m282.767 148.905 5.535-42.075 5.152-4.95 4.818 6.93 4.526-14.355 4.267.495 4.036 7.425" clip-path="url(#p043a0ff7ed)" style="fill:none;stroke:#169e78;stroke-width:3;stroke-linecap:square"/><path id="patch_8" d="M264.367 216.72V50.4" style="fill:none;stroke:#000;stroke-width:.8;stroke-linejoin:miter;stroke-linecap:square"/><path id="patch_9" d="M419.367 216.72V50.4" style="fill:none;stroke:#000;stroke-width:.8;stroke-linejoin:miter;stroke-linecap:square"/><path id="patch_10" d="M264.367 216.72h155" style="fill:none;stroke:#000;stroke-width:.8;stroke-linejoin:miter;stroke-linecap:square"/><path id="patch_11" d="M264.367 50.4h155" style="fill:none;stroke:#000;stroke-width:.8;stroke-linejoin:miter;stroke-linecap:square"/><g id="text_31" transform="matrix(.14 0 0 -.14 282.875 44.4)"><defs><path id="DejaVuSans-4c" d="M628 4666h631V531h2272V0H628z" transform="scale(.01563)"/><path id="DejaVuSans-52" d="M2841 2188q203-69 395-294t386-619L4263 0h-679l-596 1197q-232 469-449 622t-592 153h-688V0H628v4666h1425q800 0 1194-335 394-334 394-1009 0-441-205-732-205-290-595-402M1259 4147V2491h794q456 0 689 211t233 620-233 617-689 208z" transform="scale(.01563)"/><path id="DejaVuSans-6b" d="M581 4863h578V1991l1716 1509h734L1753 1863 3688 0h-750L1159 1709V0H581z" transform="scale(.01563)"/><path id="DejaVuSans-3d" d="M678 2906h4006v-525H678zm0-1275h4006v-531H678z" transform="scale(.01563)"/><path id="DejaVuSans-38" d="M2034 2216q-450 0-708-241-257-241-257-662 0-422 257-663 258-241 708-241t709 242q260 243 260 662 0 421-258 662-257 241-711 241m-631 268q-406 100-633 378-226 279-226 679 0 559 398 884 399 325 1092 325 697 0 1094-325t397-884q0-400-227-679-226-278-629-378 456-106 710-416 255-309 255-755 0-679-414-1042Q2806-91 2034-91q-771 0-1186 362-414 363-414 1042 0 446 256 755 257 310 713 416m-231 997q0-362 226-565 227-203 636-203 407 0 636 203 230 203 230 565 0 363-230 566-229 203-636 203-409 0-636-203-226-203-226-566" transform="scale(.01563)"/></defs><use xlink:href="#DejaVuSans-4c"/><use xlink:href="#DejaVuSans-6f" transform="translate(53.963)"/><use xlink:href="#DejaVuSans-52" transform="translate(115.145)"/><use xlink:href="#DejaVuSans-41" transform="translate(180.627)"/><use xlink:href="#DejaVuSans-72" transform="translate(280.822)"/><use xlink:href="#DejaVuSans-61" transform="translate(321.936)"/><use xlink:href="#DejaVuSans-6e" transform="translate(383.215)"/><use xlink:href="#DejaVuSans-6b" transform="translate(446.594)"/><use xlink:href="#DejaVuSans-3d" transform="translate(536.291)"/><use xlink:href="#DejaVuSans-31" transform="translate(651.867)"/><use xlink:href="#DejaVuSans-32" transform="translate(715.49)"/><use xlink:href="#DejaVuSans-38" transform="translate(779.113)"/></g></g><g id="axes_3"><path id="patch_12" d="M465.867 216.72h155V50.4h-155z" style="fill:#fff"/><g id="PathCollection_6"><defs><path id="ma9b5d024e3" d="M0 3.873a3.873 3.873 0 1 0 0-7.746 3.873 3.873 0 0 0 0 7.746z" style="stroke:#0066c0;stroke-opacity:.3"/></defs><g clip-path="url(#pe481a027d2)"><use xlink:href="#ma9b5d024e3" x="350.711" y="206.82" style="fill:#0066c0;fill-opacity:.3;stroke:#0066c0;stroke-opacity:.3"/><use xlink:href="#ma9b5d024e3" x="402.378" y="201.375" style="fill:#0066c0;fill-opacity:.3;stroke:#0066c0;stroke-opacity:.3"/><use xlink:href="#ma9b5d024e3" x="432.601" y="198.9" style="fill:#0066c0;fill-opacity:.3;stroke:#0066c0;stroke-opacity:.3"/><use xlink:href="#ma9b5d024e3" x="454.044" y="189.66" style="fill:#0066c0;fill-opacity:.3;stroke:#0066c0;stroke-opacity:.3"/><use xlink:href="#ma9b5d024e3" x="470.677" y="187.68" style="fill:#0066c0;fill-opacity:.3;stroke:#0066c0;stroke-opacity:.3"/><use xlink:href="#ma9b5d024e3" x="484.267" y="181.822" style="fill:#0066c0;fill-opacity:.3;stroke:#0066c0;stroke-opacity:.3"/></g></g><g id="PathCollection_7" clip-path="url(#pe481a027d2)"><use xlink:href="#m25b43aa4b4" x="484.267" y="181.822" style="fill:#169e78;stroke:#169e78"/><use xlink:href="#m25b43aa4b4" x="512.601" y="103.365" style="fill:#169e78;stroke:#169e78"/></g><g id="matplotlib.axis_5"><g id="xtick_7"><use xlink:href="#m7f30fc5d7b" id="line2d_32" x="484.267" y="216.72" style="stroke:#000;stroke-width:.8"/><g id="text_32" transform="matrix(.14 0 0 -.14 475.67 234.358)"><use xlink:href="#DejaVuSans-30"/><use xlink:href="#DejaVuSans-78" transform="translate(63.623)"/></g></g><g id="xtick_8"><use xlink:href="#m7f30fc5d7b" id="line2d_33" x="512.601" y="216.72" style="stroke:#000;stroke-width:.8"/><g id="text_33" transform="matrix(.14 0 0 -.14 504.004 234.358)"><use xlink:href="#DejaVuSans-31"/><use xlink:href="#DejaVuSans-78" transform="translate(63.623)"/></g></g><g id="xtick_9"><use xlink:href="#m7f30fc5d7b" id="line2d_34" x="607.276" y="216.72" style="stroke:#000;stroke-width:.8"/><g id="text_34" transform="matrix(.14 0 0 -.14 592.001 234.358)"><use xlink:href="#DejaVuSans-39"/><use xlink:href="#DejaVuSans-2e" transform="translate(63.623)"/><use xlink:href="#DejaVuSans-31" transform="translate(95.41)"/><use xlink:href="#DejaVuSans-78" transform="translate(159.033)"/></g></g><g id="text_35" transform="matrix(.14 0 0 -.14 456.76 251.907)"><use xlink:href="#DejaVuSans-41"/><use xlink:href="#DejaVuSans-64" transform="translate(66.658)"/><use xlink:href="#DejaVuSans-64" transform="translate(130.135)"/><use xlink:href="#DejaVuSans-69" transform="translate(193.611)"/><use xlink:href="#DejaVuSans-74" transform="translate(221.395)"/><use xlink:href="#DejaVuSans-69" transform="translate(260.604)"/><use xlink:href="#DejaVuSans-6f" transform="translate(288.387)"/><use xlink:href="#DejaVuSans-6e" transform="translate(349.568)"/><use xlink:href="#DejaVuSans-61" transform="translate(412.947)"/><use xlink:href="#DejaVuSans-6c" transform="translate(474.227)"/><use xlink:href="#DejaVuSans-63" transform="translate(533.797)"/><use xlink:href="#DejaVuSans-6f" transform="translate(588.777)"/><use xlink:href="#DejaVuSans-6d" transform="translate(649.959)"/><use xlink:href="#DejaVuSans-70" transform="translate(747.371)"/><use xlink:href="#DejaVuSans-75" transform="translate(810.848)"/><use xlink:href="#DejaVuSans-74" transform="translate(874.227)"/><use xlink:href="#DejaVuSans-65" transform="translate(913.436)"/><use xlink:href="#DejaVuSans-28" transform="translate(1006.746)"/><use xlink:href="#DejaVuSans-6c" transform="translate(1045.76)"/><use xlink:href="#DejaVuSans-6f" transform="translate(1073.543)"/><use xlink:href="#DejaVuSans-67" transform="translate(1134.725)"/><use xlink:href="#DejaVuSans-29" transform="translate(1198.201)"/></g></g><g id="matplotlib.axis_6"><g id="ytick_17"><use xlink:href="#ma49aa60f79" id="line2d_35" x="465.867" y="216.72" style="stroke:#000;stroke-width:.8"/><g id="text_36" transform="matrix(.14 0 0 -.14 427.75 222.039)"><use xlink:href="#DejaVuSans-34"/><use xlink:href="#DejaVuSans-30" transform="translate(63.623)"/><use xlink:href="#DejaVuSans-25" transform="translate(127.246)"/></g></g><g id="ytick_18"><use xlink:href="#ma49aa60f79" id="line2d_36" x="465.867" y="192.96" style="stroke:#000;stroke-width:.8"/><g id="text_37" transform="matrix(.14 0 0 -.14 427.75 198.279)"><use xlink:href="#DejaVuSans-34"/><use xlink:href="#DejaVuSans-35" transform="translate(63.623)"/><use xlink:href="#DejaVuSans-25" transform="translate(127.246)"/></g></g><g id="ytick_19"><use xlink:href="#ma49aa60f79" id="line2d_37" x="465.867" y="169.2" style="stroke:#000;stroke-width:.8"/><g id="text_38" transform="matrix(.14 0 0 -.14 427.75 174.519)"><use xlink:href="#DejaVuSans-35"/><use xlink:href="#DejaVuSans-30" transform="translate(63.623)"/><use xlink:href="#DejaVuSans-25" transform="translate(127.246)"/></g></g><g id="ytick_20"><use xlink:href="#ma49aa60f79" id="line2d_38" x="465.867" y="145.44" style="stroke:#000;stroke-width:.8"/><g id="text_39" transform="matrix(.14 0 0 -.14 427.75 150.759)"><use xlink:href="#DejaVuSans-35"/><use xlink:href="#DejaVuSans-35" transform="translate(63.623)"/><use xlink:href="#DejaVuSans-25" transform="translate(127.246)"/></g></g><g id="ytick_21"><use xlink:href="#ma49aa60f79" id="line2d_39" x="465.867" y="121.68" style="stroke:#000;stroke-width:.8"/><g id="text_40" transform="matrix(.14 0 0 -.14 427.75 126.999)"><use xlink:href="#DejaVuSans-36"/><use xlink:href="#DejaVuSans-30" transform="translate(63.623)"/><use xlink:href="#DejaVuSans-25" transform="translate(127.246)"/></g></g><g id="ytick_22"><use xlink:href="#ma49aa60f79" id="line2d_40" x="465.867" y="97.92" style="stroke:#000;stroke-width:.8"/><g id="text_41" transform="matrix(.14 0 0 -.14 427.75 103.239)"><use xlink:href="#DejaVuSans-36"/><use xlink:href="#DejaVuSans-35" transform="translate(63.623)"/><use xlink:href="#DejaVuSans-25" transform="translate(127.246)"/></g></g><g id="ytick_23"><use xlink:href="#ma49aa60f79" id="line2d_41" x="465.867" y="74.16" style="stroke:#000;stroke-width:.8"/><g id="text_42" transform="matrix(.14 0 0 -.14 427.75 79.479)"><use xlink:href="#DejaVuSans-37"/><use xlink:href="#DejaVuSans-30" transform="translate(63.623)"/><use xlink:href="#DejaVuSans-25" transform="translate(127.246)"/></g></g><g id="ytick_24"><use xlink:href="#ma49aa60f79" id="line2d_42" x="465.867" y="50.4" style="stroke:#000;stroke-width:.8"/><g id="text_43" transform="matrix(.14 0 0 -.14 427.75 55.719)"><use xlink:href="#DejaVuSans-37"/><use xlink:href="#DejaVuSans-35" transform="translate(63.623)"/><use xlink:href="#DejaVuSans-25" transform="translate(127.246)"/></g></g></g><path id="line2d_43" d="m350.71 206.82 51.668-5.445L432.6 198.9l21.443-9.24 16.633-1.98 13.59-5.858" clip-path="url(#pe481a027d2)" style="fill:none;stroke:#0066c0;stroke-opacity:.3;stroke-width:3;stroke-linecap:square"/><path id="line2d_44" d="m332.31 212.725 288.557-52.875" clip-path="url(#pe481a027d2)" style="fill:none;stroke-dasharray:11.1,4.8;stroke-dashoffset:0;stroke:#0066c0;stroke-opacity:.3;stroke-width:3"/><path id="line2d_45" d="m484.267 181.823 5.535-42.818 5.152-11.88 4.818-13.86 4.526 10.89 4.267-17.82 4.036-2.97" clip-path="url(#pe481a027d2)" style="fill:none;stroke:#169e78;stroke-width:3;stroke-linecap:square"/><path id="patch_13" d="M465.867 216.72V50.4" style="fill:none;stroke:#000;stroke-width:.8;stroke-linejoin:miter;stroke-linecap:square"/><path id="patch_14" d="M620.867 216.72V50.4" style="fill:none;stroke:#000;stroke-width:.8;stroke-linejoin:miter;stroke-linecap:square"/><path id="patch_15" d="M465.867 216.72h155" style="fill:none;stroke:#000;stroke-width:.8;stroke-linejoin:miter;stroke-linecap:square"/><path id="patch_16" d="M465.867 50.4h155" style="fill:none;stroke:#000;stroke-width:.8;stroke-linejoin:miter;stroke-linecap:square"/><g id="text_44" transform="matrix(.14 0 0 -.14 488.829 44.4)"><defs><path id="DejaVuSans-33" d="M2597 2516q453-97 707-404 255-306 255-756 0-690-475-1069Q2609-91 1734-91q-293 0-604 58T488 141v609q262-153 574-231 313-78 654-78 593 0 904 234t311 681q0 413-289 645-289 233-804 233h-544v519h569q465 0 712 186t247 536q0 359-255 551-254 193-729 193-260 0-557-57-297-56-653-174v562q360 100 674 150t592 50q719 0 1137-327 419-326 419-882 0-388-222-655t-631-370" transform="scale(.01563)"/></defs><use xlink:href="#DejaVuSans-4c"/><use xlink:href="#DejaVuSans-6f" transform="translate(53.963)"/><use xlink:href="#DejaVuSans-52" transform="translate(115.145)"/><use xlink:href="#DejaVuSans-41" transform="translate(180.627)"/><use xlink:href="#DejaVuSans-72" transform="translate(280.822)"/><use xlink:href="#DejaVuSans-61" transform="translate(321.936)"/><use xlink:href="#DejaVuSans-6e" transform="translate(383.215)"/><use xlink:href="#DejaVuSans-6b" transform="translate(446.594)"/><use xlink:href="#DejaVuSans-3d" transform="translate(536.291)"/><use xlink:href="#DejaVuSans-33" transform="translate(651.867)"/><use xlink:href="#DejaVuSans-32" transform="translate(715.49)"/></g></g><g id="text_45" transform="matrix(.14 0 0 -.14 120.353 17.838)"><defs><path id="DejaVuSans-77" d="M269 3500h575l719-2731 715 2731h678l719-2731 716 2731h575L4050 0h-678l-753 2869L1863 0h-679z" transform="scale(.01563)"/><path id="DejaVuSans-68" d="M3513 2113V0h-575v2094q0 497-194 743-194 247-581 247-466 0-735-297-269-296-269-809V0H581v4863h578V2956q207 316 486 472 280 156 646 156 603 0 912-373 310-373 310-1098" transform="scale(.01563)"/><path id="DejaVuSans-51" d="M2522 4238q-688 0-1093-513-404-512-404-1397 0-881 404-1394 405-512 1093-512 687 0 1089 512 402 513 402 1394 0 885-402 1397-402 513-1089 513M3406 84l832-909h-763L2784-78q-103-6-158-9-54-4-104-4-984 0-1574 658-589 658-589 1761 0 1106 589 1764 590 658 1574 658 981 0 1568-658 588-658 588-1764 0-812-327-1391-326-578-945-853" transform="scale(.01563)"/><path id="DejaVuSans-42" d="M1259 2228V519h1013q509 0 754 211 246 211 246 645 0 438-246 645-245 208-754 208zm0 1919V2741h935q462 0 688 173 227 174 227 530 0 353-227 528-226 175-688 175zm-631 519h1613q722 0 1112-300 391-300 391-853 0-429-200-682t-588-315q466-100 724-418 258-317 258-792 0-625-425-966Q3088 0 2303 0H628z" transform="scale(.01563)"/></defs><use xlink:href="#DejaVuSans-4f"/><use xlink:href="#DejaVuSans-6e" transform="translate(78.71)"/><use xlink:href="#DejaVuSans-2d" transform="translate(142.09)"/><use xlink:href="#DejaVuSans-70" transform="translate(178.174)"/><use xlink:href="#DejaVuSans-6f" transform="translate(241.65)"/><use xlink:href="#DejaVuSans-6c" transform="translate(302.832)"/><use xlink:href="#DejaVuSans-69" transform="translate(330.615)"/><use xlink:href="#DejaVuSans-63" transform="translate(358.398)"/><use xlink:href="#DejaVuSans-79" transform="translate(413.379)"/><use xlink:href="#DejaVuSans-64" transform="translate(504.346)"/><use xlink:href="#DejaVuSans-69" transform="translate(567.822)"/><use xlink:href="#DejaVuSans-73" transform="translate(595.605)"/><use xlink:href="#DejaVuSans-74" transform="translate(647.705)"/><use xlink:href="#DejaVuSans-69" transform="translate(686.914)"/><use xlink:href="#DejaVuSans-6c" transform="translate(714.697)"/><use xlink:href="#DejaVuSans-6c" transform="translate(742.48)"/><use xlink:href="#DejaVuSans-61" transform="translate(770.264)"/><use xlink:href="#DejaVuSans-74" transform="translate(831.543)"/><use xlink:href="#DejaVuSans-69" transform="translate(870.752)"/><use xlink:href="#DejaVuSans-6f" transform="translate(898.535)"/><use xlink:href="#DejaVuSans-6e" transform="translate(959.717)"/><use xlink:href="#DejaVuSans-77" transform="translate(1054.883)"/><use xlink:href="#DejaVuSans-69" transform="translate(1136.67)"/><use xlink:href="#DejaVuSans-74" transform="translate(1164.453)"/><use xlink:href="#DejaVuSans-68" transform="translate(1203.662)"/><use xlink:href="#DejaVuSans-51" transform="translate(1298.828)"/><use xlink:href="#DejaVuSans-77" transform="translate(1377.54)"/><use xlink:href="#DejaVuSans-65" transform="translate(1459.326)"/><use xlink:href="#DejaVuSans-6e" transform="translate(1520.85)"/><use xlink:href="#DejaVuSans-33" transform="translate(1584.229)"/><use xlink:href="#DejaVuSans-2d" transform="translate(1647.852)"/><use xlink:href="#DejaVuSans-38" transform="translate(1683.936)"/><use xlink:href="#DejaVuSans-42" transform="translate(1747.559)"/><use xlink:href="#DejaVuSans-2d" transform="translate(1816.162)"/><use xlink:href="#DejaVuSans-42" transform="translate(1848.621)"/><use xlink:href="#DejaVuSans-61" transform="translate(1917.225)"/><use xlink:href="#DejaVuSans-73" transform="translate(1978.504)"/><use xlink:href="#DejaVuSans-65" transform="translate(2030.604)"/><use xlink:href="#DejaVuSans-28" transform="translate(2123.914)"/><use xlink:href="#DejaVuSans-4f" transform="translate(2162.928)"/><use xlink:href="#DejaVuSans-70" transform="translate(2241.639)"/><use xlink:href="#DejaVuSans-65" transform="translate(2305.115)"/><use xlink:href="#DejaVuSans-6e" transform="translate(2366.639)"/><use xlink:href="#DejaVuSans-54" transform="translate(2430.018)"/><use xlink:href="#DejaVuSans-68" transform="translate(2491.102)"/><use xlink:href="#DejaVuSans-6f" transform="translate(2554.48)"/><use xlink:href="#DejaVuSans-75" transform="translate(2615.662)"/><use xlink:href="#DejaVuSans-67" transform="translate(2679.041)"/><use xlink:href="#DejaVuSans-68" transform="translate(2742.518)"/><use xlink:href="#DejaVuSans-74" transform="translate(2805.896)"/><use xlink:href="#DejaVuSans-73" transform="translate(2845.105)"/><use xlink:href="#DejaVuSans-2d" transform="translate(2897.205)"/><use xlink:href="#DejaVuSans-33" transform="translate(2933.29)"/><use xlink:href="#DejaVuSans-29" transform="translate(2996.912)"/></g></g><defs><clipPath id="pdd1e976ca6"><path d="M62.867 50.4h155v166.32h-155z"/></clipPath><clipPath id="p043a0ff7ed"><path d="M264.367 50.4h155v166.32h-155z"/></clipPath><clipPath id="pe481a027d2"><path d="M465.867 50.4h155v166.32h-155z"/></clipPath></defs></svg>