<svg xmlns="http://www.w3.org/2000/svg" xmlns:xlink="http://www.w3.org/1999/xlink" width="971.198" height="429.92" viewBox="0 0 728.398 322.44"><defs><style>*{stroke-linejoin:round;stroke-linecap:butt}</style></defs><g id="figure_1"><path id="patch_1" d="M0 322.44h728.398V0H0z" style="fill:#fff"/><g id="axes_1"><path id="patch_2" d="M62.921 277.141h285.384V49.878H62.92z" style="fill:#fff"/><g id="matplotlib.axis_1"><g id="xtick_1"><g id="line2d_1"><defs><path id="m5154dde1bd" d="M0 0v3.5" style="stroke:#000;stroke-width:.8"/></defs><use xlink:href="#m5154dde1bd" x="75.893" y="277.141" style="stroke:#000;stroke-width:.8"/></g><g id="text_1" transform="matrix(.14 0 0 -.14 71.44 294.779)"><defs><path id="DejaVuSans-30" d="M2034 4250q-487 0-733-480-245-479-245-1442 0-959 245-1439 246-480 733-480 491 0 736 480 246 480 246 1439 0 963-246 1442-245 480-736 480m0 500q785 0 1199-621 414-620 414-1801 0-1178-414-1799Q2819-91 2034-91q-784 0-1198 620-414 621-414 1799 0 1181 414 1801 414 621 1198 621" transform="scale(.01563)"/></defs><use xlink:href="#DejaVuSans-30"/></g></g><g id="xtick_2"><use xlink:href="#m5154dde1bd" id="line2d_2" x="159.61" y="277.141" style="stroke:#000;stroke-width:.8"/><g id="text_2" transform="matrix(.14 0 0 -.14 141.795 294.779)"><defs><path id="DejaVuSans-31" d="M794 531h1031v3560L703 3866v575l1116 225h631V531h1031V0H794z" transform="scale(.01563)"/></defs><use xlink:href="#DejaVuSans-31"/><use xlink:href="#DejaVuSans-30" transform="translate(63.623)"/><use xlink:href="#DejaVuSans-30" transform="translate(127.246)"/><use xlink:href="#DejaVuSans-30" transform="translate(190.87)"/></g></g><g id="xtick_3"><use xlink:href="#m5154dde1bd" id="line2d_3" x="243.327" y="277.141" style="stroke:#000;stroke-width:.8"/><g id="text_3" transform="matrix(.14 0 0 -.14 225.512 294.779)"><defs><path id="DejaVuSans-32" d="M1228 531h2203V0H469v531q359 372 979 998 621 627 780 809 303 340 423 576 121 236 121 464 0 372-261 606-261 235-680 235-297 0-627-103-329-103-704-313v638q381 153 712 231 332 78 607 78 725 0 1156-363 431-362 431-968 0-288-108-546-107-257-392-607-78-91-497-524-418-433-1181-1211" transform="scale(.01563)"/></defs><use xlink:href="#DejaVuSans-32"/><use xlink:href="#DejaVuSans-30" transform="translate(63.623)"/><use xlink:href="#DejaVuSans-30" transform="translate(127.246)"/><use xlink:href="#DejaVuSans-30" transform="translate(190.87)"/></g></g><g id="xtick_4"><use xlink:href="#m5154dde1bd" id="line2d_4" x="327.045" y="277.141" style="stroke:#000;stroke-width:.8"/><g id="text_4" transform="matrix(.14 0 0 -.14 309.23 294.779)"><defs><path id="DejaVuSans-33" d="M2597 2516q453-97 707-404 255-306 255-756 0-690-475-1069Q2609-91 1734-91q-293 0-604 58T488 141v609q262-153 574-231 313-78 654-78 593 0 904 234t311 681q0 413-289 645-289 233-804 233h-544v519h569q465 0 712 186t247 536q0 359-255 551-254 193-729 193-260 0-557-57-297-56-653-174v562q360 100 674 150t592 50q719 0 1137-327 419-326 419-882 0-388-222-655t-631-370" transform="scale(.01563)"/></defs><use xlink:href="#DejaVuSans-33"/><use xlink:href="#DejaVuSans-30" transform="translate(63.623)"/><use xlink:href="#DejaVuSans-30" transform="translate(127.246)"/><use xlink:href="#DejaVuSans-30" transform="translate(190.87)"/></g></g><g id="text_5" transform="matrix(.14 0 0 -.14 189.674 312.328)"><defs><path id="DejaVuSans-53" d="M3425 4513v-616q-359 172-678 256-319 85-616 85-515 0-795-200t-280-569q0-310 186-468 186-157 705-254l381-78q706-135 1042-474t336-907q0-679-455-1029Q2797-91 1919-91q-331 0-705 75-373 75-773 222v650q384-215 753-325 369-109 725-109 540 0 834 212 294 213 294 607 0 343-211 537t-692 291l-385 75q-706 140-1022 440-315 300-315 835 0 619 436 975t1201 356q329 0 669-60 341-59 697-177" transform="scale(.01563)"/><path id="DejaVuSans-74" d="M1172 4494v-994h1184v-447H1172V1153q0-428 117-550t477-122h590V0h-590q-666 0-919 248-253 249-253 905v1900H172v447h422v994z" transform="scale(.01563)"/><path id="DejaVuSans-65" d="M3597 1894v-281H953q38-594 358-905t892-311q331 0 642 81t618 244V178Q3153 47 2828-22t-659-69q-838 0-1327 487-489 488-489 1320 0 859 464 1363 464 505 1252 505 706 0 1117-455 411-454 411-1235m-575 169q-6 471-264 752-258 282-683 282-481 0-770-272t-333-766z" transform="scale(.01563)"/><path id="DejaVuSans-70" d="M1159 525v-1856H581v4831h578v-531q182 312 458 463 277 152 661 152 638 0 1036-506 399-506 399-1331T3314 415Q2916-91 2278-91q-384 0-661 152-276 152-458 464m1957 1222q0 634-261 995t-717 361q-457 0-718-361t-261-995 261-995 718-361q456 0 717 361t261 995" transform="scale(.01563)"/></defs><use xlink:href="#DejaVuSans-53"/><use xlink:href="#DejaVuSans-74" transform="translate(63.477)"/><use xlink:href="#DejaVuSans-65" transform="translate(102.686)"/><use xlink:href="#DejaVuSans-70" transform="translate(164.209)"/></g></g><g id="matplotlib.axis_2"><g id="ytick_1"><g id="line2d_5"><defs><path id="m3c258b8c06" d="M0 0h-3.5" style="stroke:#000;stroke-width:.8"/></defs><use xlink:href="#m3c258b8c06" x="62.921" y="266.811" style="stroke:#000;stroke-width:.8"/></g><g id="text_6" transform="matrix(.14 0 0 -.14 24.75 272.13)"><defs><path id="DejaVuSans-2e" d="M684 794h660V0H684z" transform="scale(.01563)"/></defs><use xlink:href="#DejaVuSans-30"/><use xlink:href="#DejaVuSans-2e" transform="translate(63.623)"/><use xlink:href="#DejaVuSans-30" transform="translate(95.41)"/><use xlink:href="#DejaVuSans-30" transform="translate(159.033)"/></g></g><g id="ytick_2"><use xlink:href="#m3c258b8c06" id="line2d_6" x="62.921" y="215.22" style="stroke:#000;stroke-width:.8"/><g id="text_7" transform="matrix(.14 0 0 -.14 24.75 220.54)"><use xlink:href="#DejaVuSans-30"/><use xlink:href="#DejaVuSans-2e" transform="translate(63.623)"/><use xlink:href="#DejaVuSans-30" transform="translate(95.41)"/><use xlink:href="#DejaVuSans-32" transform="translate(159.033)"/></g></g><g id="ytick_3"><use xlink:href="#m3c258b8c06" id="line2d_7" x="62.921" y="163.63" style="stroke:#000;stroke-width:.8"/><g id="text_8" transform="matrix(.14 0 0 -.14 24.75 168.949)"><defs><path id="DejaVuSans-34" d="M2419 4116 825 1625h1594zm-166 550h794V1625h666v-525h-666V0h-628v1100H313v609z" transform="scale(.01563)"/></defs><use xlink:href="#DejaVuSans-30"/><use xlink:href="#DejaVuSans-2e" transform="translate(63.623)"/><use xlink:href="#DejaVuSans-30" transform="translate(95.41)"/><use xlink:href="#DejaVuSans-34" transform="translate(159.033)"/></g></g><g id="ytick_4"><use xlink:href="#m3c258b8c06" id="line2d_8" x="62.921" y="112.039" style="stroke:#000;stroke-width:.8"/><g id="text_9" transform="matrix(.14 0 0 -.14 24.75 117.358)"><defs><path id="DejaVuSans-36" d="M2113 2584q-425 0-674-291-248-290-248-796 0-503 248-796 249-292 674-292t673 292q248 293 248 796 0 506-248 796-248 291-673 291m1253 1979v-575q-238 112-480 171-242 60-480 60-625 0-955-422-329-422-376-1275 184 272 462 417 279 145 613 145 703 0 1111-427 408-426 408-1160 0-719-425-1154Q2819-91 2113-91q-810 0-1238 620-428 621-428 1799 0 1106 525 1764t1409 658q238 0 480-47t505-140" transform="scale(.01563)"/></defs><use xlink:href="#DejaVuSans-30"/><use xlink:href="#DejaVuSans-2e" transform="translate(63.623)"/><use xlink:href="#DejaVuSans-30" transform="translate(95.41)"/><use xlink:href="#DejaVuSans-36" transform="translate(159.033)"/></g></g><g id="ytick_5"><use xlink:href="#m3c258b8c06" id="line2d_9" x="62.921" y="60.449" style="stroke:#000;stroke-width:.8"/><g id="text_10" transform="matrix(.14 0 0 -.14 24.75 65.768)"><defs><path id="DejaVuSans-38" d="M2034 2216q-450 0-708-241-257-241-257-662 0-422 257-663 258-241 708-241t709 242q260 243 260 662 0 421-258 662-257 241-711 241m-631 268q-406 100-633 378-226 279-226 679 0 559 398 884 399 325 1092 325 697 0 1094-325t397-884q0-400-227-679-226-278-629-378 456-106 710-416 255-309 255-755 0-679-414-1042Q2806-91 2034-91q-771 0-1186 362-414 363-414 1042 0 446 256 755 257 310 713 416m-231 997q0-362 226-565 227-203 636-203 407 0 636 203 230 203 230 565 0 363-230 566-229 203-636 203-409 0-636-203-226-203-226-566" transform="scale(.01563)"/></defs><use xlink:href="#DejaVuSans-30"/><use xlink:href="#DejaVuSans-2e" transform="translate(63.623)"/><use xlink:href="#DejaVuSans-30" transform="translate(95.41)"/><use xlink:href="#DejaVuSans-38" transform="translate(159.033)"/></g></g><g id="text_11" transform="matrix(0 -.14 -.14 0 17.838 206.018)"><defs><path id="DejaVuSans-46" d="M628 4666h2681v-532H1259V2759h1850v-531H1259V0H628z" transform="scale(.01563)"/><path id="DejaVuSans-6f" d="M1959 3097q-462 0-731-361t-269-989 267-989q268-361 733-361 460 0 728 362 269 363 269 988 0 622-269 986-268 364-728 364m0 487q750 0 1178-488 429-487 429-1349 0-859-429-1349Q2709-91 1959-91q-753 0-1180 489-426 490-426 1349 0 862 426 1349 427 488 1180 488" transform="scale(.01563)"/><path id="DejaVuSans-72" d="M2631 2963q-97 56-211 82-114 27-251 27-488 0-749-317t-261-911V0H581v3500h578v-544q182 319 472 473 291 155 707 155 59 0 131-8 72-7 159-23z" transform="scale(.01563)"/><path id="DejaVuSans-77" d="M269 3500h575l719-2731 715 2731h678l719-2731 716 2731h575L4050 0h-678l-753 2869L1863 0h-679z" transform="scale(.01563)"/><path id="DejaVuSans-61" d="M2194 1759q-697 0-966-159t-269-544q0-306 202-486 202-179 548-179 479 0 768 339t289 901v128zm1147 238V0h-575v531q-197-318-491-470T1556-91q-537 0-855 302-317 302-317 808 0 590 395 890 396 300 1180 300h807v57q0 397-261 614t-733 217q-300 0-585-72-284-72-546-216v532q315 122 612 182 297 61 578 61 760 0 1135-394 375-393 375-1193" transform="scale(.01563)"/><path id="DejaVuSans-64" d="M2906 2969v1894h575V0h-575v525q-181-312-458-464-276-152-664-152-634 0-1033 506-398 507-398 1332t398 1331q399 506 1033 506 388 0 664-152 277-151 458-463M947 1747q0-634 261-995t717-361 718 361q263 361 263 995t-263 995q-262 361-718 361t-717-361-261-995" transform="scale(.01563)"/><path id="DejaVuSans-73" d="M2834 3397v-544q-243 125-506 187-262 63-544 63-428 0-642-131t-214-394q0-200 153-314t616-217l197-44q612-131 870-370t258-667q0-488-386-773Q2250-91 1575-91q-281 0-586 55T347 128v594q319-166 628-249 309-82 613-82 406 0 624 139 219 139 219 392 0 234-158 359-157 125-692 241l-200 47q-534 112-772 345-237 233-237 639 0 494 350 762 350 269 994 269 318 0 599-47 282-46 519-140" transform="scale(.01563)"/><path id="DejaVuSans-4b" d="M628 4666h631V2694l2094 1972h813L1850 2491 4331 0h-831L1259 2247V0H628z" transform="scale(.01563)"/><path id="DejaVuSans-4c" d="M628 4666h631V531h2272V0H628z" transform="scale(.01563)"/></defs><use xlink:href="#DejaVuSans-46"/><use xlink:href="#DejaVuSans-6f" transform="translate(53.895)"/><use xlink:href="#DejaVuSans-72" transform="translate(115.076)"/><use xlink:href="#DejaVuSans-77" transform="translate(156.19)"/><use xlink:href="#DejaVuSans-61" transform="translate(237.977)"/><use xlink:href="#DejaVuSans-72" transform="translate(299.256)"/><use xlink:href="#DejaVuSans-64" transform="translate(338.62)"/><use xlink:href="#DejaVuSans-73" transform="translate(402.096)"/><use xlink:href="#DejaVuSans-4b" transform="translate(485.982)"/><use xlink:href="#DejaVuSans-4c" transform="translate(551.559)"/></g></g><path id="line2d_10" d="m75.893 266.81 8.54-204.47.083.333.084-.095.084.278.083-.188.084.232.084-.18.083-.493.168.663.084.224.25-.885.084.346.084-.026.084.04.251-2.38.084.47.083 1.298.084-.612.168 1.35.083-.25.251 1.64.084-.974.251 1.29.084-.817.084.15.083.126.084-.246.084.474.084-.047.167.185.251 1.013.084-.025.167-1.545.084.42.084.668.083-.37.42 2.997.167-1.753.083 1.115.084-.21.251 1.388.084-.528.084.036.083.434.251-.636.084.29.084-.959.335 2.004.083.007.168-.385.167.515.084-.095.167.142.168-.535.167 1.275.084-.275.084.244.167-.336.084.607.084-.195.083-.168.084-.661.084.752.083-.268.084.712.084-.35.084.06.083.023.084-.248.084.259.084-.61.083.095.084-.262.084.038.083.696.084-.385.168.251.083-.673.084.328.167-.444.084.055.084 1.396.084-.37.167.515.251.58.084-.243.418 1.554.168-1.82.084.113.25 1.709.084-.177.084.068.335.896.084-.097.083 1.186.084-.162.251.767.084.147.084-.172.083.094.168 1.276.084-.785.083.296.252-1.65.083-.052.084.583.167-1.03.419 1.94.084-.742.083.188.084-.607.084.322.084-1.002.083.167.084-.056.084.114.083-.186.084.836.168-.81.083.205.168.402.083-.225.335 1.944.168-.49.083-.041.084-.821.168 1.57.083-.066.168-1.364.418 1.596.084.287.335 2.657.084-.195.167.283.168 1.563.083-.726.084.086.084-.093.25 1.05.085-.085.083-.177.084-.472.251 1.958.084.331.167-.83.084-.044.335-2.121.084.394.083 1.171.084-.022.084-.397.167.729.084.389.586-2.038.084-.158.083-.819.084.084.084.237.335 2.004.167.007.084.224.084-.499.083.094.084.144.084.596.083-.378.084.767.084-.08.502-2.312.084-.093.167-.749.084.647.335-2.34.084.437.083-.401.168 1.03.083-.209.419 1.056.084-.106.167-1.12.084.372.084-.46.167.266.251 2.453.084-.466.084.86.083-.85.084.484.084-.676.083.158.168.964.167.396.168.7.084-.482.167.414.084-.386.335 1.72.502-1.971.084.03.083-.77.084.089.084-.567.502 2.025.251-1.148.084-.026.167.116.084-.09.167-.878.084.322.084-.335.084.417.083-.03.084-.603.084.317.083-.556.084.17.084-.338.084.786.083-.228.168-.309.084.166.25.788.168.18.168.629.083-1.11.084.01.084-.15.25.747.085.08.083.503.084-.39.251.906.084-.462.084.865.083-.744.084.172.084.09.167-1.242.419.806.083-.823.084.148.251 1.04.168-1.169.167.507.084.576.084-.423.083.22.251-1.437.084.988.168-1.176.25-1.603.168.435.168-1.182.167.731.084.003.084-.246.083.058.084.088.084-.157.083.46.084-.336.084.35.084-.645.502 2.175.084-.242.083.123.084.747.251-1.118.084.118.167-1.062.084.006.084.262.083-.483.084.135.084-.046.084.373.167 1.062.084.018.25 1.169.336 1.313.083-.341.084-.83.251.832.168-.61.084.184.167-.467.084.649.083-.267.335 2.976.168.089.083.628.084-.486.335 1.986.586 1.528.167.63.084-.056.084.097.167.93.251.291.084.828.168-1.404.083-.234.168-1.277.083.618.084-.43.084.12.084.497.167-.872.084.21.084-.027.083-.55.084.16.167.173.084-.778.168.295.083-.072.084.444.084-.079.25.89.168-1.042.168.592.25 1.747.085-.4.083.38.084-.037.084.242.083-.04.084-.204.168.9.083.23.084-.21.084-.563.083.19.252 1.401.167.471.167-.785.084-.023.168.678.083-.086.168.15.167-.522.084.54.084-.38.167 1.384.168-.764.083.02.084.233.084-.063.083.047.084-.974.168.602.083-.173.084.233.084 1.465.083-.262.084.572.084-.015.167-.546.084.3.084-.096.083.24.084-.157.084-.503.167 1.45.168-.058.167.266.168-.645.083-.273.084.474.167-.247.252.613.167-.111.084.328.083-.066.084-.035.168.355.167-.533.167 1.024.084.125.084.573.084-.383.083-.976.084.972.084-.167.084-.08.083-.883.168.75.167.209.084-.337.167.504.084-.093.084-.026.25-1.987.085.303.083-.08.084.096.167.574.168-.246.167-.541.251 2.106.084-.05.084-.268.084.596.083-.112.168.516.167-.834.251.967.084-.114.251-.837.084-.61.167 1.116.084-.733.084.16.084.289.167.932.084-.145.083.299.168-.572.167.514.084-.156.167-.569.084-.252.084.934.084-.04.083.639.084-.3.419.965.167-1.01.084.138.083-.25.168-1.799.084-.123.25-.718.084.212.084-.035.168-.18.083-.85.084.685.084-.166.083.31.168 1.213.167.11.251.82.084-.185.168-.692.083.156.419 2.58.084-.867.083.037.084-.236.084.147.084-.078.083.245.168-.26.083.69.084-.08.168-.138.083.15.251-.8.084.163.084-.08.084.078.502 3.42.084.259.083-.312.251-1.669.335 1.428.084-.217.167.464.168 1.464.084-.04.083.245.084-.115.167-.915.084.16.084.672.084-.113.167.095.084.384.167 1.724.168-1.264.083.003.252-1.094.083.15.168-.062.167.398.168-.202.083.313.084 1.052.084-.457.083.055.168.155.084-.167.083-.494.251 1.67.252-.582.083.113.335 1.788.084.124.167 1.004.084-.037.084.259.167-1.219.084.63.084-.127.083.1.084-.636.502 2.097.252-1.6.083-.027.084.224.084-.215.167.404.251 1.995.084.433.167-.603.252 1.115.083-.235.251 1.66.252-1.486.083-.107.251.784.084-.08.084-.957.251 1.432.084-.271.083.076.084.502.084-.208.084.288.25-.643.42.707.083-.201.084.182.084-.104.083 1.092.168-.646.167-.228.084.2.084-.459.083.198.251-1.276.084-.042.419-1.73.25 1.249.587 3.719.084-.025.083-.325.084.62.084-.273.083.763.084-.345.084.435.084-.569.083.061.251 1.796.168-.18.084-.575.167 1.09.167.297.084-.41.084.196.251-.89.168 1.895.083-.068.084-.131.251 1.144.335 1.558.084-.128.167-.583.168 1 .167.066.084.256.418-3.015.084.205.084-.108.083.231.252 1.96.083-.409.084.14.084-.25.083.163.419-1.461.502 2.097.252-.754.083.166.084.323.167-.211.335 2.584.084.073.084.308.167-.702.168.466.167.356.167.732.084-.687.502 2.789.084.188.168-.437.083.15.084-.405.084.647.083-.048.168-.762.084-.14.083.258.084-.094.251-.81.168.445.083 1.336.084-.354.251 1.118.084-.412.335.816.084.682.083-.16.084.121.084.862.083-.013.084-.123.084.235.251-.838.167.947.084-.172.335.295.084-.314.083.303.084.805.168-1.382.167.235.167.797.084-.238.084.812.084-.107.083.255.084.66.084-.076.167-.118.251-.423.168.954.083-.016.252-.816.083-.174.084.813.167-.808.084.392.251-.694.168 1.187.084-.719.083.135.084-.087.084.231.167.764.084.06.167 1.099.084-.292.084.72.083-.032.084-.143.084 1.005.084-.04.083.423.335-3.29.084.063.084.032.083.608.084-.718.335.889.084-.92.083.34.084-.503.084.15.083-.163.168.348.084-.975.083.702.084-.11.251.782.251 1.05.084-.364.251.533.251-.315.168.748.167-.093.251.568.084-.167.084.237.084-.17.334.89.084-.21.084-.518.167.595.168-.334.25.416.168-.445.084-.666.084.062.167 1.031.084-.389.084.032.083-.46.168.352.083.006.084.393.084-.107.084-.547.083.149.084.219.084-.128.083-.492.252.972.083-.21.084-.115.084-.341.084.434.25-1.79.084-.015.335 2.485.084-.32.167.74.252-1.144.083.645.084-.096.084-.116.25-.98.168-.1.084.108.502 2.56.084-.58.335 1.204.084-.203.083.358.084-1.056.084.498.25-1.04.168.066.084.015.084-.306.167.698.084-.572.084.118.167 1.352.084-.386.418.601.084-.202.084.196.167-.876.084.757.251-1.266.084.1.084.307.083-.269.419 1.344.084.22.083.743.168-.747.083 1.04.084-.287.084.25.084.687.083-.121.084-.001.084.562.083-.564.084.123.084-.076.167 1.093.251 2.204.168-.028.084.341.083-.185.084.089.084-.29.084.152.083-.38.084.158.335 2.417.084.013.167.836.167-.63.168 1.179.084.271.25 1.825.084-.086.419 3.323.167-1.13.252 1.416.083.04.251 2.23.252.792.083-.892.084.247.167 1.411.168-.261.084.41.334-1.278.084.096.084.277.084-.822.083.233.084.332.251-1.17.084-.45.251.864.168-1.735.083-.007.084-.346.167.966.252-1.142.083.185.168.934.335.342.083-.426.168 1.135.167.189.168.66.083.013.419 2.874.084-.395.25.683.252-.425.251.781.167.919.084.028.335 2.146.084.51.084-.23.167-1.681.084.013.083-.304.084.74.168-.553.083 1.165.084-.312.084.387.25-.62.085.207.083-.188.084.403.167-.45.168.524.251-.894.084-.034.25 1.126.168-.292.084-.355.167 1.359.084 1.408.084-.037.084.016.083-.25.251.512.168 1.382.167-.674.084.166.168-.09.083.145.084-.247.335 1.275.084-.26.083.346.251-1.416.084.138.251.994.251-.52.084.454.084-.292.084.402.167-.945.251-.675.084.327.084-.785.25 1.335.252-.475.167-.326.084.114.419-2.59.083-1.035.084.072.251 1.06.168 1.162.083.64.084-.139.084-.205.084.174.25-.55.336.733.167-1.81.167.499.252-1.572.334-1.242.084-.495.168.423.502-2.32.084.15.083.51.168-.224.083 1.137.084-.445.168-1.684.167.387.084-.219.25 1.012.336 1.197.083-.193.168.343.167.171.168-.993.167.242.168 1.15.083-.312.168.673.084.123.083-.27.084.081.251 1.081.084-.034.084.458.083-.14.168.49.083.388.084-.716.084.095.167.579.084-.171.084-.01.25-1.04.085.3.167-1.33.084.738.083-.418.168.839.084.076.083-.402.251 1.655.503-1.214.084.458.167-.873.084.215.335 1.864.083-.22.084.297.419-.909.25.695.084.969.084-.387.168.51.167-.793.084 1.203.083-.376.168.78.084-.474.083.428.084-.456.084.127.25 1.494.168-1.05.168.747.083-.261.084.176.084.743.084-.23.167-.585.167-.08.084.579.503-2.66.083-.046.084.182.167.913.084-.404.335 2.186.419 1.186.167 1.23.084-.269.586 3.125.083-.377.084.155.084-.638.084.164.083.992.084-.152.084.443.083-.577.084.078.168.615.083-.384.251.707.168-.598.084-.703.083.503.084-.442.084.028.167.183.084.308.084-.445.083.148.252.21.083-.902.084.03.084-.416.083.153.084.394.084-.081.084-.905.083.01.168.958.083-.13.252 2.094.083-.223.084.012.084.71.083-.252.168 1.036.084.121.083-.06.251-.35.084.127.084.4.167-.463.168.898.167.531.168-.428.083.2.084-.531.084.337.167-.788.084.155.167-.749.335 1.384.168.902.25-.536.085.74.083-.017.168.255.335 2.103.25-.844.084.091.084.413.168-.66.083.297.084-.206.419.884.167 1.432.084-.14.083.385.084-.062.084-.052.084.66.25-.96.084.427.084-.206.084-.583.084.132.167-.182.084.406.083-.57.084.22.084-.488.084.052.167.526.419-1.247.92 3.795.168-.652.084-.125.083.16.084 1.016.251-2.091.084-.064.167.178.252-1.016.083-.268.251.452.084.035.084-.202.167.34.168-.924.083.165.084.129.251-.176.419 1.157.084.65.335-.99.083.962.084-.173.084-.189.083-.854.168.547.251-1.09.084.12.083-.793.084.048.084.19.084-.129.083-.846.084.282.084.075.083-.189.168-.886.251.295.167-.939.084.596.084-.562.084.717.083-.062.084-.262.251 2.205.251 1.218.084-.39.084.491.083-.545.168.564.084-.582.083.1.168 1.035.084-.097.167-.874.084-.891.167 1.214.084.085.084.992.083-.157.168-.598h.083l.084-.765.084.344.084-.084.083-.132.168-.758.167.36.084-.275.084.357.167-1.108.251.63.084-.324.167.25.168.218.083.385.084-.184.084.327.084-.562.083.068.084.235.251 1.564.084-.674.084.832.083-.087.084.356.167 1.908.168-.359.084-.107.083.127.252-1.074.167.897.167-1.37.168.472.084-.164.083-.457.084.64.084-.124.083.224.168-.56.084.571.083-.226.168 1.14.167-.175.168.094.418-1.414.251-.1.168-.93.502 2.4.084-.075.167.693.084-.308.251 1.528.251.195.084.944.084-.65.167.583.084-.367.084.032.334.881.503-1.984.335 2.97.083-1.035.084.178.167.596.252-1.378.167.662.167.244.084-.63.168.71.167-.434.167.786.084-.069.084.203.084-.073.083-.166.168.805.167-.786.251-.486.335.972.084-.45.335 1.122.084.474.167-.492.167 1.276.084-.383.084-.12.084.13.083-.624.084.032.167.974.084-.207.084-.814.084.261.083-.544.168.573.083-.868.084.073.168.715.25-.328.084.374.084.908.251-1.277.251-.627.168.451.084.68.083-.164.084.18.084.654.25-1.074.168.734.084.172.084.732.418-2.223.252 1.315.083-.134.168.62.25-.937.252.831.084.195.167-.792.084.605.084-.203.167-.228.084-.158.083.27.419-2.003.084.585.083-.27.084.406.251-1.078.084.432.084-.634.167.754.168-1.648.083.538.084-.426.084.094.083-.144.084.391.084-.425.084.247.083-.057.084-.06.168 1.416.25-.533.084.337.168-1.045.586 1.512.167.283.168-.524.167.136.084.668.084-.16.167-.088.084.048.083.304.084-.07.084.139.084-.182.167-1.122.084.75.335-1.375.167.616.084.062.335-.834.083-.066.084-.793.168.936.167.672.167-2.169.084.14.251.783.084-.113.084.392.083-.22.168.711.167-.61.251-.053.252-.392.25 1.88.168.004.168-1.082.083.498.251-.991.084.28.084-.697.084.208.167.42.084-.596.083.312.084-.033.084-.204.251 1.718.167.62.168.015.251 1.708.168-.253.083.235.084-.14.502 2.2.084.085.167 1.02.252-.401.167.626.084.274.167 1.216.084-.555.084.175.083.521.084-.244.167.246.168 1.048.251-1.056.251.848.251 1.737.084-.274.084-.27.083.366.084-.048.084-.407.084.467.083-.118.084-.254.084-.79.167.97.084-.174.502 3.008.084.128.084-.314.167.831.084-.687.251 1.06.084.09.167-1.093.084.45.167 1.745.084-.575.167.342.252-1.522.334 1.706.084-.006.084-.625.084.78.167-.47.167.448.084-.201.084.6.084-.744.083.051.335 2.124.084.183.084-.047.083-.136.168.3.418-1.321.168.879.084-.094.083.027.084.235.084-.351.25.318.336-1.813.25.734.085.036.418 1.143.084-.18.084.42.083-.09.251-.146.084.447.084-.785.167.918.168.503.083-.708.084.805.084-.26.084.008.083.159.168-.248.167.954.251-.777.168 1.617.084.957.167-1.09.084-.653.083.04.084.124.084-.243.084.251.083-.094.251-.653.084.477.084-.237.084.346.083-.15.168 1.144.083-.622.419 1.688.084.972.083-.115.084.267.168.952.083-.254.168 1.04.083-.077.335 1.332.168-.442.083-.708.084.294.335-1.547.167-1.118.084.216.335-.613.168-1.275.083.031.335-2.074.084-.43.251 1.407.167-.67.084.24.251-1.037.084.084.084.005.25-1.261.252-.787.084.27.083-.68.084.578.168-1.276.083.062.084.273.084-.429.167-1.244.084.388.084-.443.083.04.084.207.084-.281.167.284.084-.088.167-.872.084.186.251-1.003.168 1.222.167-.784.084.717.167-.473.084.925.084-.045.335 1.338.083.032.084.416.167-.62.084.182.168-.27.167 1.152.084.312.167-1.32.084.039.167 1.443.084-.157.167-.408.084.13.084-.157.084-.827.083.036.084-.12.084.5.25-.978.085-.36.083.224.335-1.065.084-.195.084-.521.083.644.084-.436.168.653.167-.3.084-.254.083.238.084-.173.084-.647.084.292.167-.743.084.63.083-.176.335 1.261.084-.115.084.308.335-1.66.083.054.251 1.256.084-.66.084.079.084.11.083-.478.084.715.167-.577.084.385.084-.035.251-.82.084.573.25-.923.168-.203.084.001.084-.142.084.518.167-.459.084.016.083-.39.168.795.084-.864.083.526.084-.106.251.43.084.07.084.232.167-.491.167.164.084.016.168.68.167-.887.084.02.335-1.307.083.273.084.061.167.973.084-.205.084-.8.084.07.334-1.741.252 1.88.083-.147.168 1.009.083-.151.084.751.251-.854.168.555.084-.397.25.764.168-.157.168.165.167.522.084-.127.25-1.019.168.522.084-.31.084.634.083-.393.084.404.251-.594.084.027.084.488.083-.52.084.118.084-.345.084.095.083-.049.084.293.167 1.318.084-.627.251 2.09.084-.248.167.938.084-.136.084.065.084.026.083.864.084-.333.335 1.924.335-1.326.25 1.325.168-.131.084.242.335-1.005.167.527.084-1.031.084.258.084.037.334.665.252 1.557.083.137.084.485.167-.53.084.11.084-.224.251.663.167 1.718.252-.889.083.41.168-.51.083-.224.335 1.7.084-.016.251.445.168-.415.083-.67.084.611.084-.022.084-.346.083.228.251 1.585.084.003.084-.57.084.863.083-.23.084-.097.167.296.084.573.084-.616.084.71.167-1.156.084.057.083.065.252-.938.083 1.375.084-.021.084-.53.083.186.335-2.382.335.764.084-.085.167 1.323.168.579.167-.639.084.224.335-.866.084.629.083-.083.084.162.251 1.599.419-1.883.167.662.251-.845.084.014.167.687.084-.12.084-.28.084.112.167 1.371.084.14.083-.228.335-2.13.084.709.084-.152.167.526.168-.288.167-1.438.084-.074.167.512.084-.273.084.826.083-.366.084.265.084-.245.083.383.168-.536.084.654.083-.156.252-1.842.167-.066.167.788.084-.34.084.343.084-.485.167.597.167-.535.084.261.084-.207.251 1.23.084-.024.167.906.251-.466.084.124.167-.448.084.369.084-.29.167.215.168-.72.083.222.252-1.332.083.153.251-.86.084.42.335-1.457.168 1.18.083.028.084-.4.084.355.418-1.114.084.504.167-.362.168.306.251-1.252.084.218.083-.263.084.13.084-.072.084.597.25-1.281.084.555.252-.902.167 1.46.084-.75.083.392.252-.645.083.081.168 1.087.083-.177.168.805.084.391.167-.366.084-.03.083.214.084-.41.168.525.083-.146.335-1.143.084.048.251 1.382.168-1.161.083.035.335-.819.251-1.392.084.917.084-.773.083.446.084-.377.168.69.167-.199.251-1.255.251 1.563.084-.097.167 1.459.084-.43.084.111.084-.024.083.628.168-1.107.167-.153.084-.168.167 1.176.084-.07.084-.755.25.683.085-.231.083.28.084-.15.251-1.353.168-.1.083-.433.252 1.071h0" clip-path="url(#pd4866dd1a6)" style="fill:none;stroke:#0066c0;stroke-width:3;stroke-linecap:square"/><path id="line2d_11" d="M62.921 266.81h285.384" clip-path="url(#pd4866dd1a6)" style="fill:none;stroke-dasharray:11.1,4.8;stroke-dashoffset:0;stroke:#ff9640;stroke-opacity:.7;stroke-width:3"/><path id="patch_3" d="M62.921 277.141V49.878" style="fill:none;stroke:#000;stroke-width:.8;stroke-linejoin:miter;stroke-linecap:square"/><path id="patch_4" d="M348.305 277.141V49.878" style="fill:none;stroke:#000;stroke-width:.8;stroke-linejoin:miter;stroke-linecap:square"/><path id="patch_5" d="M62.921 277.141h285.384" style="fill:none;stroke:#000;stroke-width:.8;stroke-linejoin:miter;stroke-linecap:square"/><path id="patch_6" d="M62.921 49.878h285.384" style="fill:none;stroke:#000;stroke-width:.8;stroke-linejoin:miter;stroke-linecap:square"/><g id="text_12" transform="matrix(.14 0 0 -.14 66.851 43.878)"><defs><path id="DejaVuSans-54" d="M-19 4666h3947v-532H2272V0h-634v4134H-19z" transform="scale(.01563)"/><path id="DejaVuSans-69" d="M603 3500h575V0H603zm0 1363h575v-729H603z" transform="scale(.01563)"/><path id="DejaVuSans-6e" d="M3513 2113V0h-575v2094q0 497-194 743-194 247-581 247-466 0-735-297-269-296-269-809V0H581v3500h578v-544q207 316 486 472 280 156 646 156 603 0 912-373 310-373 310-1098" transform="scale(.01563)"/><path id="DejaVuSans-67" d="M2906 1791q0 625-258 968-257 344-723 344-462 0-720-344-258-343-258-968 0-622 258-966t720-344q466 0 723 344 258 344 258 966m575-1357q0-893-397-1329-396-436-1215-436-303 0-572 45t-522 139v559q253-137 500-202 247-66 503-66 566 0 847 295t281 892v285q-178-310-456-463T1784 0Q1141 0 747 490 353 981 353 1791q0 812 394 1302 394 491 1037 491 388 0 666-153t456-462v531h575z" transform="scale(.01563)"/><path id="DejaVuSans-76" d="M191 3500h609L1894 563l1094 2937h609L2284 0h-781z" transform="scale(.01563)"/><path id="DejaVuSans-6c" d="M603 4863h575V0H603z" transform="scale(.01563)"/><path id="DejaVuSans-3a" d="M750 794h659V0H750zm0 2515h659v-793H750z" transform="scale(.01563)"/><path id="DejaVuSans-66" d="M2375 4863v-479h-550q-309 0-430-125-120-125-120-450v-309h947v-447h-947V0H697v3053H147v447h550v244q0 584 272 851 272 268 862 268z" transform="scale(.01563)"/><path id="DejaVuSans-51" d="M2522 4238q-688 0-1093-513-404-512-404-1397 0-881 404-1394 405-512 1093-512 687 0 1089 512 402 513 402 1394 0 885-402 1397-402 513-1089 513M3406 84l832-909h-763L2784-78q-103-6-158-9-54-4-104-4-984 0-1574 658-589 658-589 1761 0 1106 589 1764 590 658 1574 658 981 0 1568-658 588-658 588-1764 0-812-327-1391-326-578-945-853" transform="scale(.01563)"/><path id="DejaVuSans-2d" d="M313 2009h1684v-512H313z" transform="scale(.01563)"/><path id="DejaVuSans-42" d="M1259 2228V519h1013q509 0 754 211 246 211 246 645 0 438-246 645-245 208-754 208zm0 1919V2741h935q462 0 688 173 227 174 227 530 0 353-227 528-226 175-688 175zm-631 519h1613q722 0 1112-300 391-300 391-853 0-429-200-682t-588-315q466-100 724-418 258-317 258-792 0-625-425-966Q3088 0 2303 0H628z" transform="scale(.01563)"/></defs><use xlink:href="#DejaVuSans-54"/><use xlink:href="#DejaVuSans-72" transform="translate(46.334)"/><use xlink:href="#DejaVuSans-61" transform="translate(87.447)"/><use xlink:href="#DejaVuSans-69" transform="translate(148.727)"/><use xlink:href="#DejaVuSans-6e" transform="translate(176.51)"/><use xlink:href="#DejaVuSans-69" transform="translate(239.889)"/><use xlink:href="#DejaVuSans-6e" transform="translate(267.672)"/><use xlink:href="#DejaVuSans-67" transform="translate(331.05)"/><use xlink:href="#DejaVuSans-65" transform="translate(426.314)"/><use xlink:href="#DejaVuSans-76" transform="translate(487.838)"/><use xlink:href="#DejaVuSans-61" transform="translate(547.018)"/><use xlink:href="#DejaVuSans-6c" transform="translate(608.297)"/><use xlink:href="#DejaVuSans-3a" transform="translate(636.08)"/><use xlink:href="#DejaVuSans-66" transform="translate(701.559)"/><use xlink:href="#DejaVuSans-6f" transform="translate(736.764)"/><use xlink:href="#DejaVuSans-72" transform="translate(797.945)"/><use xlink:href="#DejaVuSans-77" transform="translate(839.059)"/><use xlink:href="#DejaVuSans-61" transform="translate(920.846)"/><use xlink:href="#DejaVuSans-72" transform="translate(982.125)"/><use xlink:href="#DejaVuSans-64" transform="translate(1021.488)"/><use xlink:href="#DejaVuSans-73" transform="translate(1084.965)"/><use xlink:href="#DejaVuSans-4b" transform="translate(1168.852)"/><use xlink:href="#DejaVuSans-4c" transform="translate(1234.428)"/><use xlink:href="#DejaVuSans-76" transform="translate(1321.928)"/><use xlink:href="#DejaVuSans-73" transform="translate(1381.107)"/><use xlink:href="#DejaVuSans-51" transform="translate(1464.994)"/><use xlink:href="#DejaVuSans-77" transform="translate(1543.705)"/><use xlink:href="#DejaVuSans-65" transform="translate(1625.492)"/><use xlink:href="#DejaVuSans-6e" transform="translate(1687.016)"/><use xlink:href="#DejaVuSans-2d" transform="translate(1750.395)"/><use xlink:href="#DejaVuSans-33" transform="translate(1786.479)"/><use xlink:href="#DejaVuSans-32" transform="translate(1850.102)"/><use xlink:href="#DejaVuSans-42" transform="translate(1913.725)"/></g><g id="legend_1"><path id="line2d_12" d="M148.094 65.596h24" style="fill:none;stroke:#0066c0;stroke-width:3;stroke-linecap:square"/><g id="text_13" transform="matrix(.12 0 0 -.12 181.694 69.796)"><defs><path id="DejaVuSans-75" d="M544 1381v2119h575V1403q0-497 193-746 194-248 582-248 465 0 735 297 271 297 271 810v1984h575V0h-575v538q-209-319-486-474-276-155-642-155-603 0-916 375-312 375-312 1097m1447 2203" transform="scale(.01563)"/><path id="DejaVuSans-2b" d="M2944 4013V2272h1740v-531H2944V0h-525v1741H678v531h1741v1741z" transform="scale(.01563)"/><path id="DejaVuSans-52" d="M2841 2188q203-69 395-294t386-619L4263 0h-679l-596 1197q-232 469-449 622t-592 153h-688V0H628v4666h1425q800 0 1194-335 394-334 394-1009 0-441-205-732-205-290-595-402M1259 4147V2491h794q456 0 689 211t233 620-233 617-689 208z" transform="scale(.01563)"/></defs><use xlink:href="#DejaVuSans-46"/><use xlink:href="#DejaVuSans-75" transform="translate(52.02)"/><use xlink:href="#DejaVuSans-6c" transform="translate(115.398)"/><use xlink:href="#DejaVuSans-6c" transform="translate(143.182)"/><use xlink:href="#DejaVuSans-66" transform="translate(202.752)"/><use xlink:href="#DejaVuSans-69" transform="translate(237.957)"/><use xlink:href="#DejaVuSans-6e" transform="translate(265.74)"/><use xlink:href="#DejaVuSans-65" transform="translate(329.12)"/><use xlink:href="#DejaVuSans-74" transform="translate(390.643)"/><use xlink:href="#DejaVuSans-75" transform="translate(429.852)"/><use xlink:href="#DejaVuSans-6e" transform="translate(493.23)"/><use xlink:href="#DejaVuSans-69" transform="translate(556.61)"/><use xlink:href="#DejaVuSans-6e" transform="translate(584.393)"/><use xlink:href="#DejaVuSans-67" transform="translate(647.771)"/><use xlink:href="#DejaVuSans-2b" transform="translate(743.035)"/><use xlink:href="#DejaVuSans-6c" transform="translate(858.611)"/><use xlink:href="#DejaVuSans-69" transform="translate(886.395)"/><use xlink:href="#DejaVuSans-6e" transform="translate(914.178)"/><use xlink:href="#DejaVuSans-65" transform="translate(977.557)"/><use xlink:href="#DejaVuSans-61" transform="translate(1039.08)"/><use xlink:href="#DejaVuSans-72" transform="translate(1100.36)"/><use xlink:href="#DejaVuSans-4c" transform="translate(1173.26)"/><use xlink:href="#DejaVuSans-52" transform="translate(1228.973)"/></g><path id="line2d_13" d="M148.094 83.21h24" style="fill:none;stroke-dasharray:11.1,4.8;stroke-dashoffset:0;stroke:#ff9640;stroke-opacity:.7;stroke-width:3"/><g id="text_14" transform="matrix(.12 0 0 -.12 181.694 87.41)"><use xlink:href="#DejaVuSans-51"/><use xlink:href="#DejaVuSans-77" transform="translate(78.71)"/><use xlink:href="#DejaVuSans-65" transform="translate(160.498)"/><use xlink:href="#DejaVuSans-6e" transform="translate(222.021)"/><use xlink:href="#DejaVuSans-2d" transform="translate(285.4)"/><use xlink:href="#DejaVuSans-33" transform="translate(321.484)"/><use xlink:href="#DejaVuSans-32" transform="translate(385.107)"/><use xlink:href="#DejaVuSans-42" transform="translate(448.73)"/></g></g></g><g id="axes_2"><path id="patch_7" d="M422.026 277.141h285.383V49.878H422.026z" style="fill:#fff"/><g id="matplotlib.axis_3"><g id="xtick_5"><use xlink:href="#m5154dde1bd" id="line2d_14" x="434.998" y="277.141" style="stroke:#000;stroke-width:.8"/><use xlink:href="#DejaVuSans-30" id="text_15" transform="matrix(.14 0 0 -.14 430.544 294.779)"/></g><g id="xtick_6"><use xlink:href="#m5154dde1bd" id="line2d_15" x="524.46" y="277.141" style="stroke:#000;stroke-width:.8"/><g id="text_16" transform="matrix(.14 0 0 -.14 506.645 294.779)"><use xlink:href="#DejaVuSans-31"/><use xlink:href="#DejaVuSans-30" transform="translate(63.623)"/><use xlink:href="#DejaVuSans-30" transform="translate(127.246)"/><use xlink:href="#DejaVuSans-30" transform="translate(190.87)"/></g></g><g id="xtick_7"><use xlink:href="#m5154dde1bd" id="line2d_16" x="613.921" y="277.141" style="stroke:#000;stroke-width:.8"/><g id="text_17" transform="matrix(.14 0 0 -.14 596.106 294.779)"><use xlink:href="#DejaVuSans-32"/><use xlink:href="#DejaVuSans-30" transform="translate(63.623)"/><use xlink:href="#DejaVuSans-30" transform="translate(127.246)"/><use xlink:href="#DejaVuSans-30" transform="translate(190.87)"/></g></g><g id="xtick_8"><use xlink:href="#m5154dde1bd" id="line2d_17" x="703.383" y="277.141" style="stroke:#000;stroke-width:.8"/><g id="text_18" transform="matrix(.14 0 0 -.14 685.568 294.779)"><use xlink:href="#DejaVuSans-33"/><use xlink:href="#DejaVuSans-30" transform="translate(63.623)"/><use xlink:href="#DejaVuSans-30" transform="translate(127.246)"/><use xlink:href="#DejaVuSans-30" transform="translate(190.87)"/></g></g><g id="text_19" transform="matrix(.14 0 0 -.14 548.778 312.328)"><use xlink:href="#DejaVuSans-53"/><use xlink:href="#DejaVuSans-74" transform="translate(63.477)"/><use xlink:href="#DejaVuSans-65" transform="translate(102.686)"/><use xlink:href="#DejaVuSans-70" transform="translate(164.209)"/></g></g><g id="matplotlib.axis_4"><g id="ytick_6"><use xlink:href="#m3c258b8c06" id="line2d_18" x="422.026" y="254.971" style="stroke:#000;stroke-width:.8"/><g id="text_20" transform="matrix(.14 0 0 -.14 383.854 260.29)"><defs><path id="DejaVuSans-37" d="M525 4666h3000v-269L1831 0h-659l1594 4134H525z" transform="scale(.01563)"/></defs><use xlink:href="#DejaVuSans-30"/><use xlink:href="#DejaVuSans-2e" transform="translate(63.623)"/><use xlink:href="#DejaVuSans-37" transform="translate(95.41)"/><use xlink:href="#DejaVuSans-36" transform="translate(159.033)"/></g></g><g id="ytick_7"><use xlink:href="#m3c258b8c06" id="line2d_19" x="422.026" y="211.69" style="stroke:#000;stroke-width:.8"/><g id="text_21" transform="matrix(.14 0 0 -.14 383.854 217.01)"><use xlink:href="#DejaVuSans-30"/><use xlink:href="#DejaVuSans-2e" transform="translate(63.623)"/><use xlink:href="#DejaVuSans-37" transform="translate(95.41)"/><use xlink:href="#DejaVuSans-38" transform="translate(159.033)"/></g></g><g id="ytick_8"><use xlink:href="#m3c258b8c06" id="line2d_20" x="422.026" y="168.41" style="stroke:#000;stroke-width:.8"/><g id="text_22" transform="matrix(.14 0 0 -.14 383.854 173.729)"><use xlink:href="#DejaVuSans-30"/><use xlink:href="#DejaVuSans-2e" transform="translate(63.623)"/><use xlink:href="#DejaVuSans-38" transform="translate(95.41)"/><use xlink:href="#DejaVuSans-30" transform="translate(159.033)"/></g></g><g id="ytick_9"><use xlink:href="#m3c258b8c06" id="line2d_21" x="422.026" y="125.129" style="stroke:#000;stroke-width:.8"/><g id="text_23" transform="matrix(.14 0 0 -.14 383.854 130.448)"><use xlink:href="#DejaVuSans-30"/><use xlink:href="#DejaVuSans-2e" transform="translate(63.623)"/><use xlink:href="#DejaVuSans-38" transform="translate(95.41)"/><use xlink:href="#DejaVuSans-32" transform="translate(159.033)"/></g></g><g id="ytick_10"><use xlink:href="#m3c258b8c06" id="line2d_22" x="422.026" y="81.848" style="stroke:#000;stroke-width:.8"/><g id="text_24" transform="matrix(.14 0 0 -.14 383.854 87.167)"><use xlink:href="#DejaVuSans-30"/><use xlink:href="#DejaVuSans-2e" transform="translate(63.623)"/><use xlink:href="#DejaVuSans-38" transform="translate(95.41)"/><use xlink:href="#DejaVuSans-34" transform="translate(159.033)"/></g></g><g id="text_25" transform="matrix(0 -.14 -.14 0 376.942 248.64)"><defs><path id="DejaVuSans-41" d="m2188 4044-857-2322h1716zm-357 622h716L4325 0h-656l-425 1197H1141L716 0H50z" transform="scale(.01563)"/><path id="DejaVuSans-63" d="M3122 3366v-538q-244 135-489 202t-495 67q-560 0-870-355-309-354-309-995t309-996q310-354 870-354 250 0 495 67t489 202V134Q2881 22 2623-34q-257-57-548-57-791 0-1257 497-465 497-465 1341 0 856 470 1346 471 491 1290 491 265 0 518-55 253-54 491-163" transform="scale(.01563)"/><path id="DejaVuSans-79" d="M2059-325q-243-625-475-815-231-191-618-191H506v481h338q237 0 368 113 132 112 291 531l103 262L191 3500h609L1894 763l1094 2737h609z" transform="scale(.01563)"/><path id="DejaVuSans-28" d="M1984 4856q-418-718-622-1422-203-703-203-1425 0-721 205-1429t620-1424h-500Q1016-109 783 600T550 2009q0 697 231 1403 232 707 703 1444z" transform="scale(.01563)"/><path id="DejaVuSans-6d" d="M3328 2828q216 388 516 572t706 184q547 0 844-383 297-382 297-1088V0h-578v2094q0 503-179 746-178 244-543 244-447 0-707-297-259-296-259-809V0h-578v2094q0 506-178 748t-550 242q-441 0-701-298-259-298-259-808V0H581v3500h578v-544q197 322 472 475t653 153q382 0 649-194 267-193 395-562" transform="scale(.01563)"/><path id="DejaVuSans-29" d="M513 4856h500q468-737 701-1444 233-706 233-1403 0-700-233-1409T1013-844H513q415 716 620 1424t205 1429q0 722-205 1425-205 704-620 1422" transform="scale(.01563)"/></defs><use xlink:href="#DejaVuSans-41"/><use xlink:href="#DejaVuSans-63" transform="translate(66.658)"/><use xlink:href="#DejaVuSans-63" transform="translate(121.639)"/><use xlink:href="#DejaVuSans-75" transform="translate(176.62)"/><use xlink:href="#DejaVuSans-72" transform="translate(239.998)"/><use xlink:href="#DejaVuSans-61" transform="translate(281.111)"/><use xlink:href="#DejaVuSans-63" transform="translate(342.39)"/><use xlink:href="#DejaVuSans-79" transform="translate(397.371)"/><use xlink:href="#DejaVuSans-28" transform="translate(488.338)"/><use xlink:href="#DejaVuSans-73" transform="translate(527.352)"/><use xlink:href="#DejaVuSans-74" transform="translate(579.451)"/><use xlink:href="#DejaVuSans-72" transform="translate(618.66)"/><use xlink:href="#DejaVuSans-69" transform="translate(659.773)"/><use xlink:href="#DejaVuSans-63" transform="translate(687.557)"/><use xlink:href="#DejaVuSans-74" transform="translate(742.537)"/><use xlink:href="#DejaVuSans-70" transform="translate(813.533)"/><use xlink:href="#DejaVuSans-72" transform="translate(877.01)"/><use xlink:href="#DejaVuSans-6f" transform="translate(915.873)"/><use xlink:href="#DejaVuSans-6d" transform="translate(977.055)"/><use xlink:href="#DejaVuSans-70" transform="translate(1074.467)"/><use xlink:href="#DejaVuSans-74" transform="translate(1137.943)"/><use xlink:href="#DejaVuSans-29" transform="translate(1177.152)"/></g></g><path id="line2d_23" d="m434.998 60.208 26.838 198.603 8.946-1.6 8.947 6.4 8.946-3.2 8.946 6.4 8.946-8 8.946-9.6 8.947-9.6 8.946-16.8 8.946 4.8 8.946 2.4 8.946-9.6 8.946 2.4 8.947 5.6 8.946-16.8 8.946-8.801 8.946 8.8 8.946-.8 8.947-6.4 8.946-.8 8.946-11.2 8.946-12.8 8.946-4 8.946-.8 8.947-5.6 8.946 4 8.946 11.2" clip-path="url(#pbb70bcf001)" style="fill:none;stroke:#0066c0;stroke-width:3;stroke-linecap:square"/><path id="line2d_24" d="M422.026 60.208h285.383" clip-path="url(#pbb70bcf001)" style="fill:none;stroke-dasharray:11.1,4.8;stroke-dashoffset:0;stroke:#ff9640;stroke-opacity:.7;stroke-width:3"/><path id="patch_8" d="M422.026 277.141V49.878" style="fill:none;stroke:#000;stroke-width:.8;stroke-linejoin:miter;stroke-linecap:square"/><path id="patch_9" d="M707.409 277.141V49.878" style="fill:none;stroke:#000;stroke-width:.8;stroke-linejoin:miter;stroke-linecap:square"/><path id="patch_10" d="M422.026 277.141h285.383" style="fill:none;stroke:#000;stroke-width:.8;stroke-linejoin:miter;stroke-linecap:square"/><path id="patch_11" d="M422.026 49.878h285.383" style="fill:none;stroke:#000;stroke-width:.8;stroke-linejoin:miter;stroke-linecap:square"/><g id="text_26" transform="matrix(.14 0 0 -.14 487.158 43.878)"><defs><path id="DejaVuSans-49" d="M628 4666h631V0H628z" transform="scale(.01563)"/></defs><use xlink:href="#DejaVuSans-53"/><use xlink:href="#DejaVuSans-61" transform="translate(63.477)"/><use xlink:href="#DejaVuSans-6d" transform="translate(124.756)"/><use xlink:href="#DejaVuSans-70" transform="translate(222.168)"/><use xlink:href="#DejaVuSans-6c" transform="translate(285.645)"/><use xlink:href="#DejaVuSans-69" transform="translate(313.428)"/><use xlink:href="#DejaVuSans-6e" transform="translate(341.21)"/><use xlink:href="#DejaVuSans-67" transform="translate(404.59)"/><use xlink:href="#DejaVuSans-65" transform="translate(499.854)"/><use xlink:href="#DejaVuSans-76" transform="translate(561.377)"/><use xlink:href="#DejaVuSans-61" transform="translate(620.557)"/><use xlink:href="#DejaVuSans-6c" transform="translate(681.836)"/><use xlink:href="#DejaVuSans-3a" transform="translate(709.62)"/><use xlink:href="#DejaVuSans-49" transform="translate(775.098)"/><use xlink:href="#DejaVuSans-46" transform="translate(804.59)"/><use xlink:href="#DejaVuSans-2d" transform="translate(862.11)"/><use xlink:href="#DejaVuSans-65" transform="translate(898.193)"/><use xlink:href="#DejaVuSans-76" transform="translate(959.717)"/><use xlink:href="#DejaVuSans-61" transform="translate(1018.896)"/><use xlink:href="#DejaVuSans-6c" transform="translate(1080.176)"/></g></g><g id="text_27" transform="matrix(.14 0 0 -.14 193.985 17.838)"><defs><path id="DejaVuSans-22" d="M1147 4666V2931H616v1735zm1181 0V2931h-531v1735z" transform="scale(.01563)"/></defs><use xlink:href="#DejaVuSans-52"/><use xlink:href="#DejaVuSans-75" transform="translate(64.982)"/><use xlink:href="#DejaVuSans-6e" transform="translate(128.361)"/><use xlink:href="#DejaVuSans-6e" transform="translate(191.74)"/><use xlink:href="#DejaVuSans-69" transform="translate(255.12)"/><use xlink:href="#DejaVuSans-6e" transform="translate(282.902)"/><use xlink:href="#DejaVuSans-67" transform="translate(346.281)"/><use xlink:href="#DejaVuSans-53" transform="translate(441.545)"/><use xlink:href="#DejaVuSans-46" transform="translate(505.021)"/><use xlink:href="#DejaVuSans-54" transform="translate(560.791)"/><use xlink:href="#DejaVuSans-6f" transform="translate(653.662)"/><use xlink:href="#DejaVuSans-6e" transform="translate(714.844)"/><use xlink:href="#DejaVuSans-22" transform="translate(810.01)"/><use xlink:href="#DejaVuSans-6f" transform="translate(856.006)"/><use xlink:href="#DejaVuSans-6e" transform="translate(917.188)"/><use xlink:href="#DejaVuSans-2d" transform="translate(980.566)"/><use xlink:href="#DejaVuSans-70" transform="translate(1016.65)"/><use xlink:href="#DejaVuSans-6f" transform="translate(1080.127)"/><use xlink:href="#DejaVuSans-6c" transform="translate(1141.309)"/><use xlink:href="#DejaVuSans-69" transform="translate(1169.092)"/><use xlink:href="#DejaVuSans-63" transform="translate(1196.875)"/><use xlink:href="#DejaVuSans-79" transform="translate(1251.855)"/><use xlink:href="#DejaVuSans-22" transform="translate(1311.035)"/><use xlink:href="#DejaVuSans-73" transform="translate(1388.818)"/><use xlink:href="#DejaVuSans-61" transform="translate(1440.918)"/><use xlink:href="#DejaVuSans-6d" transform="translate(1502.197)"/><use xlink:href="#DejaVuSans-70" transform="translate(1599.61)"/><use xlink:href="#DejaVuSans-6c" transform="translate(1663.086)"/><use xlink:href="#DejaVuSans-65" transform="translate(1690.87)"/><use xlink:href="#DejaVuSans-73" transform="translate(1752.393)"/><use xlink:href="#DejaVuSans-28" transform="translate(1836.28)"/><use xlink:href="#DejaVuSans-51" transform="translate(1875.293)"/><use xlink:href="#DejaVuSans-77" transform="translate(1954.004)"/><use xlink:href="#DejaVuSans-65" transform="translate(2035.791)"/><use xlink:href="#DejaVuSans-6e" transform="translate(2097.314)"/><use xlink:href="#DejaVuSans-2d" transform="translate(2160.693)"/><use xlink:href="#DejaVuSans-33" transform="translate(2196.777)"/><use xlink:href="#DejaVuSans-32" transform="translate(2260.4)"/><use xlink:href="#DejaVuSans-42" transform="translate(2324.023)"/><use xlink:href="#DejaVuSans-29" transform="translate(2392.627)"/></g></g><defs><clipPath id="pd4866dd1a6"><path d="M62.921 49.878h285.383v227.263H62.921z"/></clipPath><clipPath id="pbb70bcf001"><path d="M422.026 49.878h285.383v227.263H422.026z"/></clipPath></defs></svg>