<svg xmlns="http://www.w3.org/2000/svg" width="660" height="150" fill="none"><path fill="#f5f5f5" d="M0 0h660v150H0z"/><path fill="#fff" d="M0 0h660v150H0z"/><g filter="url(#filter0_d_861_19346)"><path fill="#ff6340" fill-opacity=".8" d="M165.8 33.8a4.8 4.8 0 0 1 4.8-4.8h15.8a4.8 4.8 0 0 1 4.8 4.8v26.4a4.8 4.8 0 0 1-4.8 4.8h-15.8a4.8 4.8 0 0 1-4.8-4.8z" shape-rendering="crispEdges"/><path stroke="#000" stroke-opacity=".1" stroke-width="1.2" d="M170.6 29.6h15.8a4.2 4.2 0 0 1 4.2 4.2v26.4a4.2 4.2 0 0 1-4.2 4.2h-15.8a4.2 4.2 0 0 1-4.2-4.2V33.8a4.2 4.2 0 0 1 4.2-4.2Z" shape-rendering="crispEdges"/><text xml:space="preserve" fill="#000" font-family="Iowan Old Style BT" font-size="18" letter-spacing="0em" style="white-space:pre"><tspan x="173" y="52.859">5</tspan></text></g><g filter="url(#filter1_d_861_19346)"><path fill="#ffcbbf" fill-opacity=".8" d="M198.2 33.8A4.8 4.8 0 0 1 203 29h19.8a4.8 4.8 0 0 1 4.8 4.8v26.4a4.8 4.8 0 0 1-4.8 4.8H203a4.8 4.8 0 0 1-4.8-4.8z" shape-rendering="crispEdges"/><path stroke="#000" stroke-opacity=".1" stroke-width="1.2" d="M203 29.6h19.8a4.2 4.2 0 0 1 4.2 4.2v26.4a4.2 4.2 0 0 1-4.2 4.2H203a4.2 4.2 0 0 1-4.2-4.2V33.8a4.2 4.2 0 0 1 4.2-4.2Z" shape-rendering="crispEdges"/><text xml:space="preserve" fill="#000" font-family="Iowan Old Style BT" font-size="18" letter-spacing="0em" style="white-space:pre"><tspan x="205.4" y="52.859">+</tspan></text></g><g filter="url(#filter2_d_861_19346)"><path fill="#ea2b00" fill-opacity=".9" d="M235.4 33.8a4.8 4.8 0 0 1 4.8-4.8H256a4.8 4.8 0 0 1 4.8 4.8v26.4A4.8 4.8 0 0 1 256 65h-15.8a4.8 4.8 0 0 1-4.8-4.8z" shape-rendering="crispEdges"/><path stroke="#000" stroke-opacity=".1" stroke-width="1.2" d="M240.2 29.6H256a4.2 4.2 0 0 1 4.2 4.2v26.4a4.2 4.2 0 0 1-4.2 4.2h-15.8a4.2 4.2 0 0 1-4.2-4.2V33.8a4.2 4.2 0 0 1 4.2-4.2Z" shape-rendering="crispEdges"/><text xml:space="preserve" fill="#000" font-family="Iowan Old Style BT" font-size="18" letter-spacing="0em" style="white-space:pre"><tspan x="242.6" y="52.859">2</tspan></text></g><g filter="url(#filter3_d_861_19346)"><path fill="#ea2b00" fill-opacity=".8" d="M267.8 33.8a4.8 4.8 0 0 1 4.8-4.8h18.8a4.8 4.8 0 0 1 4.8 4.8v26.4a4.8 4.8 0 0 1-4.8 4.8h-18.8a4.8 4.8 0 0 1-4.8-4.8z" shape-rendering="crispEdges"/><path stroke="#000" stroke-opacity=".1" stroke-width="1.2" d="M272.6 29.6h18.8a4.2 4.2 0 0 1 4.2 4.2v26.4a4.2 4.2 0 0 1-4.2 4.2h-18.8a4.2 4.2 0 0 1-4.2-4.2V33.8a4.2 4.2 0 0 1 4.2-4.2Z" shape-rendering="crispEdges"/><text xml:space="preserve" fill="#000" font-family="Iowan Old Style BT" font-size="18" letter-spacing="0em" style="white-space:pre"><tspan x="275" y="52.859">is</tspan></text></g><g filter="url(#filter4_d_861_19346)"><rect width="25.4" height="36" x="302.6" y="29" fill="#fff" rx="4.8" shape-rendering="crispEdges"/><rect width="24.2" height="34.8" x="303.2" y="29.6" stroke="#000" stroke-opacity=".16" stroke-width="1.2" rx="4.2" shape-rendering="crispEdges"/><text xml:space="preserve" fill="#000" font-family="Iowan Old Style BT" font-size="18" letter-spacing="0em" style="white-space:pre"><tspan x="309.8" y="52.859">7</tspan></text></g><g filter="url(#filter5_d_861_19346)"><rect width="28.8" height="36" x="335" y="29" fill="#fff" rx="4.8" shape-rendering="crispEdges"/><rect width="27.6" height="34.8" x="335.6" y="29.6" stroke="#000" stroke-opacity=".16" stroke-width="1.2" rx="4.2" shape-rendering="crispEdges"/><text xml:space="preserve" fill="#000" font-family="Iowan Old Style BT" font-size="18" letter-spacing="0em" style="white-space:pre"><tspan x="346.4" y="52.859">,</tspan></text></g><g filter="url(#filter6_d_861_19346)"><path fill="#ff6340" fill-opacity=".8" d="M371 33.8a4.8 4.8 0 0 1 4.8-4.8h34.8a4.8 4.8 0 0 1 4.8 4.8v26.4a4.8 4.8 0 0 1-4.8 4.8h-34.8a4.8 4.8 0 0 1-4.8-4.8z" shape-rendering="crispEdges"/><path stroke="#000" stroke-opacity=".1" stroke-width="1.2" d="M375.8 29.6h34.8a4.2 4.2 0 0 1 4.2 4.2v26.4a4.2 4.2 0 0 1-4.2 4.2h-34.8a4.2 4.2 0 0 1-4.2-4.2V33.8a4.2 4.2 0 0 1 4.2-4.2Z" shape-rendering="crispEdges"/><text xml:space="preserve" fill="#000" font-family="Iowan Old Style BT" font-size="18" letter-spacing="0em" style="white-space:pre"><tspan x="378.2" y="52.859">and</tspan></text></g><g filter="url(#filter7_d_861_19346)"><path fill="#ffcbbf" fill-opacity=".8" d="M422.6 33.8a4.8 4.8 0 0 1 4.8-4.8h15.8a4.8 4.8 0 0 1 4.8 4.8v26.4a4.8 4.8 0 0 1-4.8 4.8h-15.8a4.8 4.8 0 0 1-4.8-4.8z" shape-rendering="crispEdges"/><path stroke="#000" stroke-opacity=".1" stroke-width="1.2" d="M427.4 29.6h15.8a4.2 4.2 0 0 1 4.2 4.2v26.4a4.2 4.2 0 0 1-4.2 4.2h-15.8a4.2 4.2 0 0 1-4.2-4.2V33.8a4.2 4.2 0 0 1 4.2-4.2Z" shape-rendering="crispEdges"/><text xml:space="preserve" fill="#000" font-family="Iowan Old Style BT" font-size="18" letter-spacing="0em" style="white-space:pre"><tspan x="429.8" y="52.859">7</tspan></text></g><g filter="url(#filter8_d_861_19346)"><path fill="#fff1ed" d="M455 33.8a4.8 4.8 0 0 1 4.8-4.8h19.8a4.8 4.8 0 0 1 4.8 4.8v26.4a4.8 4.8 0 0 1-4.8 4.8h-19.8a4.8 4.8 0 0 1-4.8-4.8z" shape-rendering="crispEdges"/><path stroke="#000" stroke-opacity=".16" stroke-width="1.2" d="M459.8 29.6h19.8a4.2 4.2 0 0 1 4.2 4.2v26.4a4.2 4.2 0 0 1-4.2 4.2h-19.8a4.2 4.2 0 0 1-4.2-4.2V33.8a4.2 4.2 0 0 1 4.2-4.2Z" shape-rendering="crispEdges"/><text xml:space="preserve" fill="#000" font-family="Iowan Old Style BT" font-size="18" letter-spacing="0em" style="white-space:pre"><tspan x="462.2" y="52.859">×</tspan></text></g><g filter="url(#filter9_d_861_19346)"><rect width="25.4" height="36" x="492.2" y="29" fill="#fff" rx="4.8" shape-rendering="crispEdges"/><rect width="24.2" height="34.8" x="492.8" y="29.6" stroke="#000" stroke-opacity=".16" stroke-width="1.2" rx="4.2" shape-rendering="crispEdges"/><text xml:space="preserve" fill="#000" font-family="Iowan Old Style BT" font-size="18" letter-spacing="0em" style="white-space:pre"><tspan x="499.4" y="52.859">3</tspan></text></g><g filter="url(#filter10_d_861_19346)"><path fill="#ffcbbf" d="M524.6 33.8a4.8 4.8 0 0 1 4.8-4.8h18.8a4.8 4.8 0 0 1 4.8 4.8v26.4a4.8 4.8 0 0 1-4.8 4.8h-18.8a4.8 4.8 0 0 1-4.8-4.8z" shape-rendering="crispEdges"/><path stroke="#000" stroke-opacity=".1" stroke-width="1.2" d="M529.4 29.6h18.8a4.2 4.2 0 0 1 4.2 4.2v26.4a4.2 4.2 0 0 1-4.2 4.2h-18.8a4.2 4.2 0 0 1-4.2-4.2V33.8a4.2 4.2 0 0 1 4.2-4.2Z" shape-rendering="crispEdges"/><text xml:space="preserve" fill="#000" font-family="Iowan Old Style BT" font-size="18" letter-spacing="0em" style="white-space:pre"><tspan x="531.8" y="52.859">is</tspan></text></g><g filter="url(#filter11_d_861_19346)"><rect width="35.4" height="36" x="559.4" y="29" fill="#fff" rx="4.8" shape-rendering="crispEdges"/><rect width="34.2" height="34.8" x="560" y="29.6" stroke="#000" stroke-opacity=".16" stroke-width="1.2" rx="4.2" shape-rendering="crispEdges"/><text xml:space="preserve" fill="#000" font-family="Iowan Old Style BT" font-size="18" letter-spacing="0em" style="white-space:pre"><tspan x="566.6" y="52.859">21</tspan></text></g><g filter="url(#filter12_d_861_19346)"><rect width="28.8" height="36" x="601.4" y="29" fill="#fff" rx="4.8" shape-rendering="crispEdges"/><rect width="27.6" height="34.8" x="602" y="29.6" stroke="#000" stroke-opacity=".16" stroke-width="1.2" rx="4.2" shape-rendering="crispEdges"/><text xml:space="preserve" fill="#000" font-family="Iowan Old Style BT" font-size="18" letter-spacing="0em" style="white-space:pre"><tspan x="612.8" y="52.859">.</tspan></text></g><text xml:space="preserve" fill="#ff5731" font-family="SF Mono" font-size="10.8" font-weight="600" letter-spacing="0em" style="white-space:pre"><tspan x="168.686" y="77.74">40%</tspan></text><text xml:space="preserve" fill="#ff7757" font-family="SF Mono" font-size="10.8" font-weight="600" letter-spacing="0em" style="white-space:pre"><tspan x="203.486" y="77.74">80%</tspan></text><text xml:space="preserve" fill="#ec401a" font-family="SF Mono" font-size="10.8" font-weight="600" letter-spacing="0em" style="white-space:pre"><tspan x="241.724" y="77.74">5%</tspan></text><text xml:space="preserve" fill="#ec401a" font-family="SF Mono" font-size="10.8" font-weight="600" letter-spacing="0em" style="white-space:pre"><tspan x="271.886" y="77.74">15%</tspan></text><text xml:space="preserve" fill="#000" font-family="SF Mono" font-size="10.8" font-weight="600" letter-spacing="0em" style="white-space:pre"><tspan x="305.486" y="77.74">99%</tspan></text><text xml:space="preserve" fill="#000" font-family="SF Mono" font-size="10.8" font-weight="600" letter-spacing="0em" style="white-space:pre"><tspan x="340.286" y="77.74">99%</tspan></text><text xml:space="preserve" fill="#ff5731" font-family="SF Mono" font-size="10.8" font-weight="600" letter-spacing="0em" style="white-space:pre"><tspan x="383.486" y="77.74">40%</tspan></text><text xml:space="preserve" fill="#ff7757" font-family="SF Mono" font-size="10.8" font-weight="600" letter-spacing="0em" style="white-space:pre"><tspan x="425.486" y="77.74">80%</tspan></text><text xml:space="preserve" fill="#600000" font-family="SF Mono" font-size="10.8" font-weight="600" letter-spacing="0em" style="white-space:pre"><tspan x="460.286" y="77.74">90%</tspan></text><text xml:space="preserve" fill="#000" font-family="SF Mono" font-size="10.8" font-weight="600" letter-spacing="0em" style="white-space:pre"><tspan x="495.086" y="77.74">99%</tspan></text><text xml:space="preserve" fill="#000" font-family="SF Mono" font-size="10.8" font-weight="600" letter-spacing="0em" style="white-space:pre"><tspan x="528.686" y="77.74">70%</tspan></text><text xml:space="preserve" fill="#000" font-family="SF Mono" font-size="10.8" font-weight="600" letter-spacing="0em" style="white-space:pre"><tspan x="567.086" y="77.74">99%</tspan></text><text xml:space="preserve" fill="#000" font-family="SF Mono" font-size="10.8" font-weight="600" letter-spacing="0em" style="white-space:pre"><tspan x="606.686" y="77.74">99%</tspan></text><text xml:space="preserve" fill="#878787" font-family="Iowan Old Style BT" font-size="15.6" font-style="italic" letter-spacing="0em" style="white-space:pre"><tspan x="29.631" y="51.778">student trajectory</tspan></text><text xml:space="preserve" fill="#878787" font-family="Iowan Old Style BT" font-size="15.6" letter-spacing="0em" style="white-space:pre"><tspan x="257.125" y="115.378">teacher’s conditional per-token probability</tspan></text><path stroke="#000" stroke-opacity=".1" stroke-width="1.2" d="M175.4 84.8v9.6h442.2v-9.6"/><defs><filter id="filter0_d_861_19346" width="30.2" height="40.8" x="163.4" y="27.8" color-interpolation-filters="sRGB" filterUnits="userSpaceOnUse"><feFlood flood-opacity="0" result="BackgroundImageFix"/><feColorMatrix in="SourceAlpha" result="hardAlpha" values="0 0 0 0 0 0 0 0 0 0 0 0 0 0 0 0 0 0 127 0"/><feOffset dy="1.2"/><feGaussianBlur stdDeviation="1.2"/><feComposite in2="hardAlpha" operator="out"/><feColorMatrix values="0 0 0 0 0 0 0 0 0 0 0 0 0 0 0 0 0 0 0.04 0"/><feBlend in2="BackgroundImageFix" result="effect1_dropShadow_861_19346"/><feBlend in="SourceGraphic" in2="effect1_dropShadow_861_19346" result="shape"/></filter><filter id="filter1_d_861_19346" width="34.2" height="40.8" x="195.8" y="27.8" color-interpolation-filters="sRGB" filterUnits="userSpaceOnUse"><feFlood flood-opacity="0" result="BackgroundImageFix"/><feColorMatrix in="SourceAlpha" result="hardAlpha" values="0 0 0 0 0 0 0 0 0 0 0 0 0 0 0 0 0 0 127 0"/><feOffset dy="1.2"/><feGaussianBlur stdDeviation="1.2"/><feComposite in2="hardAlpha" operator="out"/><feColorMatrix values="0 0 0 0 0 0 0 0 0 0 0 0 0 0 0 0 0 0 0.04 0"/><feBlend in2="BackgroundImageFix" result="effect1_dropShadow_861_19346"/><feBlend in="SourceGraphic" in2="effect1_dropShadow_861_19346" result="shape"/></filter><filter id="filter2_d_861_19346" width="30.2" height="40.8" x="233" y="27.8" color-interpolation-filters="sRGB" filterUnits="userSpaceOnUse"><feFlood flood-opacity="0" result="BackgroundImageFix"/><feColorMatrix in="SourceAlpha" result="hardAlpha" values="0 0 0 0 0 0 0 0 0 0 0 0 0 0 0 0 0 0 127 0"/><feOffset dy="1.2"/><feGaussianBlur stdDeviation="1.2"/><feComposite in2="hardAlpha" operator="out"/><feColorMatrix values="0 0 0 0 0 0 0 0 0 0 0 0 0 0 0 0 0 0 0.04 0"/><feBlend in2="BackgroundImageFix" result="effect1_dropShadow_861_19346"/><feBlend in="SourceGraphic" in2="effect1_dropShadow_861_19346" result="shape"/></filter><filter id="filter3_d_861_19346" width="33.2" height="40.8" x="265.4" y="27.8" color-interpolation-filters="sRGB" filterUnits="userSpaceOnUse"><feFlood flood-opacity="0" result="BackgroundImageFix"/><feColorMatrix in="SourceAlpha" result="hardAlpha" values="0 0 0 0 0 0 0 0 0 0 0 0 0 0 0 0 0 0 127 0"/><feOffset dy="1.2"/><feGaussianBlur stdDeviation="1.2"/><feComposite in2="hardAlpha" operator="out"/><feColorMatrix values="0 0 0 0 0 0 0 0 0 0 0 0 0 0 0 0 0 0 0.04 0"/><feBlend in2="BackgroundImageFix" result="effect1_dropShadow_861_19346"/><feBlend in="SourceGraphic" in2="effect1_dropShadow_861_19346" result="shape"/></filter><filter id="filter4_d_861_19346" width="30.2" height="40.8" x="300.2" y="27.8" color-interpolation-filters="sRGB" filterUnits="userSpaceOnUse"><feFlood flood-opacity="0" result="BackgroundImageFix"/><feColorMatrix in="SourceAlpha" result="hardAlpha" values="0 0 0 0 0 0 0 0 0 0 0 0 0 0 0 0 0 0 127 0"/><feOffset dy="1.2"/><feGaussianBlur stdDeviation="1.2"/><feComposite in2="hardAlpha" operator="out"/><feColorMatrix values="0 0 0 0 0 0 0 0 0 0 0 0 0 0 0 0 0 0 0.04 0"/><feBlend in2="BackgroundImageFix" result="effect1_dropShadow_861_19346"/><feBlend in="SourceGraphic" in2="effect1_dropShadow_861_19346" result="shape"/></filter><filter id="filter5_d_861_19346" width="33.6" height="40.8" x="332.6" y="27.8" color-interpolation-filters="sRGB" filterUnits="userSpaceOnUse"><feFlood flood-opacity="0" result="BackgroundImageFix"/><feColorMatrix in="SourceAlpha" result="hardAlpha" values="0 0 0 0 0 0 0 0 0 0 0 0 0 0 0 0 0 0 127 0"/><feOffset dy="1.2"/><feGaussianBlur stdDeviation="1.2"/><feComposite in2="hardAlpha" operator="out"/><feColorMatrix values="0 0 0 0 0 0 0 0 0 0 0 0 0 0 0 0 0 0 0.04 0"/><feBlend in2="BackgroundImageFix" result="effect1_dropShadow_861_19346"/><feBlend in="SourceGraphic" in2="effect1_dropShadow_861_19346" result="shape"/></filter><filter id="filter6_d_861_19346" width="49.2" height="40.8" x="368.6" y="27.8" color-interpolation-filters="sRGB" filterUnits="userSpaceOnUse"><feFlood flood-opacity="0" result="BackgroundImageFix"/><feColorMatrix in="SourceAlpha" result="hardAlpha" values="0 0 0 0 0 0 0 0 0 0 0 0 0 0 0 0 0 0 127 0"/><feOffset dy="1.2"/><feGaussianBlur stdDeviation="1.2"/><feComposite in2="hardAlpha" operator="out"/><feColorMatrix values="0 0 0 0 0 0 0 0 0 0 0 0 0 0 0 0 0 0 0.04 0"/><feBlend in2="BackgroundImageFix" result="effect1_dropShadow_861_19346"/><feBlend in="SourceGraphic" in2="effect1_dropShadow_861_19346" result="shape"/></filter><filter id="filter7_d_861_19346" width="30.2" height="40.8" x="420.2" y="27.8" color-interpolation-filters="sRGB" filterUnits="userSpaceOnUse"><feFlood flood-opacity="0" result="BackgroundImageFix"/><feColorMatrix in="SourceAlpha" result="hardAlpha" values="0 0 0 0 0 0 0 0 0 0 0 0 0 0 0 0 0 0 127 0"/><feOffset dy="1.2"/><feGaussianBlur stdDeviation="1.2"/><feComposite in2="hardAlpha" operator="out"/><feColorMatrix values="0 0 0 0 0 0 0 0 0 0 0 0 0 0 0 0 0 0 0.04 0"/><feBlend in2="BackgroundImageFix" result="effect1_dropShadow_861_19346"/><feBlend in="SourceGraphic" in2="effect1_dropShadow_861_19346" result="shape"/></filter><filter id="filter8_d_861_19346" width="34.2" height="40.8" x="452.6" y="27.8" color-interpolation-filters="sRGB" filterUnits="userSpaceOnUse"><feFlood flood-opacity="0" result="BackgroundImageFix"/><feColorMatrix in="SourceAlpha" result="hardAlpha" values="0 0 0 0 0 0 0 0 0 0 0 0 0 0 0 0 0 0 127 0"/><feOffset dy="1.2"/><feGaussianBlur stdDeviation="1.2"/><feComposite in2="hardAlpha" operator="out"/><feColorMatrix values="0 0 0 0 0 0 0 0 0 0 0 0 0 0 0 0 0 0 0.04 0"/><feBlend in2="BackgroundImageFix" result="effect1_dropShadow_861_19346"/><feBlend in="SourceGraphic" in2="effect1_dropShadow_861_19346" result="shape"/></filter><filter id="filter9_d_861_19346" width="30.2" height="40.8" x="489.8" y="27.8" color-interpolation-filters="sRGB" filterUnits="userSpaceOnUse"><feFlood flood-opacity="0" result="BackgroundImageFix"/><feColorMatrix in="SourceAlpha" result="hardAlpha" values="0 0 0 0 0 0 0 0 0 0 0 0 0 0 0 0 0 0 127 0"/><feOffset dy="1.2"/><feGaussianBlur stdDeviation="1.2"/><feComposite in2="hardAlpha" operator="out"/><feColorMatrix values="0 0 0 0 0 0 0 0 0 0 0 0 0 0 0 0 0 0 0.04 0"/><feBlend in2="BackgroundImageFix" result="effect1_dropShadow_861_19346"/><feBlend in="SourceGraphic" in2="effect1_dropShadow_861_19346" result="shape"/></filter><filter id="filter10_d_861_19346" width="33.2" height="40.8" x="522.2" y="27.8" color-interpolation-filters="sRGB" filterUnits="userSpaceOnUse"><feFlood flood-opacity="0" result="BackgroundImageFix"/><feColorMatrix in="SourceAlpha" result="hardAlpha" values="0 0 0 0 0 0 0 0 0 0 0 0 0 0 0 0 0 0 127 0"/><feOffset dy="1.2"/><feGaussianBlur stdDeviation="1.2"/><feComposite in2="hardAlpha" operator="out"/><feColorMatrix values="0 0 0 0 0 0 0 0 0 0 0 0 0 0 0 0 0 0 0.04 0"/><feBlend in2="BackgroundImageFix" result="effect1_dropShadow_861_19346"/><feBlend in="SourceGraphic" in2="effect1_dropShadow_861_19346" result="shape"/></filter><filter id="filter11_d_861_19346" width="40.2" height="40.8" x="557" y="27.8" color-interpolation-filters="sRGB" filterUnits="userSpaceOnUse"><feFlood flood-opacity="0" result="BackgroundImageFix"/><feColorMatrix in="SourceAlpha" result="hardAlpha" values="0 0 0 0 0 0 0 0 0 0 0 0 0 0 0 0 0 0 127 0"/><feOffset dy="1.2"/><feGaussianBlur stdDeviation="1.2"/><feComposite in2="hardAlpha" operator="out"/><feColorMatrix values="0 0 0 0 0 0 0 0 0 0 0 0 0 0 0 0 0 0 0.04 0"/><feBlend in2="BackgroundImageFix" result="effect1_dropShadow_861_19346"/><feBlend in="SourceGraphic" in2="effect1_dropShadow_861_19346" result="shape"/></filter><filter id="filter12_d_861_19346" width="33.6" height="40.8" x="599" y="27.8" color-interpolation-filters="sRGB" filterUnits="userSpaceOnUse"><feFlood flood-opacity="0" result="BackgroundImageFix"/><feColorMatrix in="SourceAlpha" result="hardAlpha" values="0 0 0 0 0 0 0 0 0 0 0 0 0 0 0 0 0 0 127 0"/><feOffset dy="1.2"/><feGaussianBlur stdDeviation="1.2"/><feComposite in2="hardAlpha" operator="out"/><feColorMatrix values="0 0 0 0 0 0 0 0 0 0 0 0 0 0 0 0 0 0 0.04 0"/><feBlend in2="BackgroundImageFix" result="effect1_dropShadow_861_19346"/><feBlend in="SourceGraphic" in2="effect1_dropShadow_861_19346" result="shape"/></filter></defs></svg>